<svg width="20" height="20" viewBox="0 0 20 20" fill="none" xmlns="http://www.w3.org/2000/svg">
<g id="Icons">
<mask id="mask0_5015_13387" style="mask-type:alpha" maskUnits="userSpaceOnUse" x="0" y="0" width="20" height="20">
<rect id="Bounding box" width="20" height="20" fill="#D9D9D9"/>
</mask>
<g mask="url(#mask0_5015_13387)">
<path id="add_circle" d="M9.45842 13.7916H10.5417V10.5416H13.7917V9.45829H10.5417V6.20829H9.45842V9.45829H6.20841V10.5416H9.45842V13.7916ZM10.0072 17.5833C8.96397 17.5833 7.98147 17.3859 7.05966 16.9912C6.13786 16.5965 5.33105 16.0534 4.63925 15.3618C3.94744 14.6703 3.40404 13.8641 3.00904 12.9433C2.61418 12.0226 2.41675 11.0388 2.41675 9.99183C2.41675 8.94489 2.61411 7.96399 3.00883 7.04913C3.40355 6.13426 3.94668 5.33093 4.63821 4.63913C5.32973 3.94732 6.13592 3.40392 7.05675 3.00892C7.97744 2.61406 8.96126 2.41663 10.0082 2.41663C11.0552 2.41663 12.0361 2.61399 12.9509 3.00871C13.8658 3.40343 14.6691 3.94656 15.3609 4.63808C16.0527 5.32961 16.5961 6.13413 16.9911 7.05163C17.386 7.96926 17.5834 8.94968 17.5834 9.99288C17.5834 11.0361 17.3861 12.0186 16.9913 12.9404C16.5966 13.8622 16.0535 14.669 15.362 15.3608C14.6704 16.0526 13.8659 16.596 12.9484 16.991C12.0308 17.3859 11.0504 17.5833 10.0072 17.5833Z" fill="#1D1F2C"/>
</g>
</g>
</svg>
