<svg width="24" height="25" viewBox="0 0 24 25" fill="none" xmlns="http://www.w3.org/2000/svg">
<g id="Frame" clip-path="url(#clip0_4953_6074)">
<g id="Group">
<path id="Vector" d="M8.22308 0.516235C7.83454 0.516235 7.51953 0.83124 7.51953 1.21979V23.7801C7.51953 24.1687 7.83454 24.4837 8.22308 24.4837H15.7599L16.229 11.7731L15.7599 0.516235H8.22308Z" fill="#24A4FF"/>
<path id="Vector_2" d="M23.2966 0.516235H15.7598V24.4837H23.2966C23.6852 24.4837 24.0002 24.1687 24.0002 23.7801V1.21979C24.0002 0.83124 23.6852 0.516235 23.2966 0.516235Z" fill="#86DAFF"/>
<path id="Vector_3" d="M11.7407 18.8086C11.3521 18.8086 11.0371 19.1236 11.0371 19.5121C11.0371 19.9007 11.3521 20.2157 11.7407 20.2157H15.7598L16.2288 19.5121L15.7598 18.8086H11.7407Z" fill="#86DAFF"/>
<path id="Vector_4" d="M19.7788 18.8086H15.7598V20.2157H19.7788C20.1674 20.2157 20.4824 19.9007 20.4824 19.5121C20.4824 19.1236 20.1674 18.8086 19.7788 18.8086Z" fill="#24A4FF"/>
<path id="Vector_5" d="M11.7407 15.9944C11.3521 15.9944 11.0371 16.3094 11.0371 16.6979C11.0371 17.0865 11.3521 17.4015 11.7407 17.4015H15.7598L16.2288 16.6979L15.7598 15.9944H11.7407Z" fill="#86DAFF"/>
<path id="Vector_6" d="M19.7788 15.9944H15.7598V17.4015H19.7788C20.1674 17.4015 20.4824 17.0865 20.4824 16.6979C20.4824 16.3094 20.1674 15.9944 19.7788 15.9944Z" fill="#24A4FF"/>
<path id="Vector_7" d="M11.7407 13.1802C11.3521 13.1802 11.0371 13.4952 11.0371 13.8837C11.0371 14.2723 11.3521 14.5873 11.7407 14.5873H15.7598L16.2288 13.8837L15.7598 13.1802H11.7407Z" fill="#9DCFFF"/>
<path id="Vector_8" d="M19.7788 13.1802H15.7598V14.5873H19.7788C20.1674 14.5873 20.4824 14.2723 20.4824 13.8837C20.4824 13.4952 20.1674 13.1802 19.7788 13.1802Z" fill="#24A4FF"/>
<path id="Vector_9" d="M11.7407 10.366C11.3521 10.366 11.0371 10.681 11.0371 11.0695C11.0371 11.4581 11.3521 11.7731 11.7407 11.7731H15.7598L16.2288 11.0695L15.7598 10.366H11.7407Z" fill="#9DCFFF"/>
<path id="Vector_10" d="M19.7788 10.366H15.7598V11.7731H19.7788C20.1674 11.7731 20.4824 11.4581 20.4824 11.0695C20.4824 10.681 20.1674 10.366 19.7788 10.366Z" fill="#24A4FF"/>
<path id="Vector_11" d="M11.7407 7.55176C11.3521 7.55176 11.0371 7.86676 11.0371 8.25531C11.0371 8.64386 11.3521 8.95887 11.7407 8.95887H15.7598L16.2288 8.25531L15.7598 7.55176H11.7407Z" fill="#9DCFFF"/>
<path id="Vector_12" d="M19.7788 7.55176H15.7598V8.95887H19.7788C20.1674 8.95887 20.4824 8.64386 20.4824 8.25531C20.4824 7.86676 20.1674 7.55176 19.7788 7.55176Z" fill="#24A4FF"/>
<path id="Vector_13" d="M11.7407 4.73755C11.3521 4.73755 11.0371 5.05255 11.0371 5.4411C11.0371 5.82965 11.3521 6.14466 11.7407 6.14466H15.7598L16.2288 5.4411L15.7598 4.73755H11.7407Z" fill="#9DCFFF"/>
<path id="Vector_14" d="M19.7788 4.73755H15.7598V6.14466H19.7788C20.1674 6.14466 20.4824 5.82965 20.4824 5.4411C20.4824 5.05255 20.1674 4.73755 19.7788 4.73755Z" fill="#24A4FF"/>
<path id="Vector_15" d="M4.4184 17.5785C4.23853 17.5785 4.05865 17.5099 3.92127 17.3728C3.64632 17.0983 3.646 16.6528 3.92052 16.3778L5.90609 14.3893C6.18062 14.1144 6.62601 14.114 6.90106 14.3885C7.17601 14.6631 7.17633 15.1086 6.90181 15.3835L4.91624 17.372C4.85097 17.4376 4.77338 17.4896 4.68794 17.525C4.6025 17.5604 4.5109 17.5786 4.4184 17.5785Z" fill="#24A4FF"/>
<path id="Vector_16" d="M10.8295 17.1874C9.03281 17.1874 7.34377 16.4878 6.07334 15.2174C3.45082 12.5948 3.45082 8.3276 6.07334 5.70508C7.34377 4.43465 9.03286 3.73499 10.8295 3.73499C12.6261 3.73499 14.3152 4.43465 15.5856 5.70508C16.856 6.97551 17.5557 8.6646 17.5557 10.4612C17.5557 12.2577 16.8559 13.9469 15.5856 15.2173C15.5855 15.2174 15.5857 15.2172 15.5856 15.2173C14.3152 16.4878 12.6261 17.1874 10.8295 17.1874Z" fill="#4DC3FF"/>
<path id="Vector_17" d="M10.8293 15.7803C9.40851 15.7803 8.07274 15.227 7.06811 14.2224C4.99422 12.1485 4.99422 8.77397 7.06811 6.70004C8.07279 5.69541 9.40851 5.14209 10.8293 5.14209C11.8949 5.14209 12.9126 5.4533 13.7787 6.03274L14.1214 6.69999L15.2535 7.50556C15.5436 7.93756 15.768 8.41023 15.9192 8.90812L15.6108 9.60206L16.1465 10.3198C16.1478 10.3669 16.1484 10.414 16.1484 10.4612C16.1484 10.8933 16.0972 11.3176 15.9977 11.727L15.311 12.4138L15.4708 13.0638C15.2348 13.4832 14.9399 13.8728 14.5904 14.2224C13.5858 15.2271 12.2501 15.7803 10.8293 15.7803Z" fill="#E7F2FF"/>
<g id="Group_2">
<path id="Vector_18" d="M15.9974 11.7271H10.5297C10.1412 11.7271 9.82617 12.0421 9.82617 12.4306C9.82617 12.8192 10.1412 13.1342 10.5297 13.1342H15.4301C15.6863 12.6951 15.8774 12.2211 15.9974 11.7271ZM15.9206 8.91285H10.5297C10.1412 8.91285 9.82617 9.22785 9.82617 9.6164C9.82617 10.005 10.1412 10.32 10.5297 10.32H16.1464C16.1339 9.8368 16.0574 9.36448 15.9206 8.91285ZM14.5904 6.70012C14.3697 6.47922 14.1301 6.27797 13.8744 6.09863H10.5297C10.1412 6.09863 9.82617 6.41364 9.82617 6.80219C9.82617 7.19074 10.1412 7.50574 10.5297 7.50574H15.2534C15.0591 7.21633 14.837 6.94652 14.5904 6.70012Z" fill="#86DAFF"/>
</g>
<path id="Vector_19" d="M2.11451 21.2917C1.54946 21.2917 1.01818 21.0717 0.618611 20.6721H0.618564C-0.206188 19.8473 -0.206188 18.5053 0.618564 17.6804L2.92139 15.3776C3.1961 15.1028 3.64159 15.1028 3.91636 15.3776L5.91313 17.3744C6.1879 17.6491 6.1879 18.0946 5.91313 18.3693L3.61036 20.6721C3.21083 21.0717 2.67955 21.2917 2.11451 21.2917Z" fill="#86DAFF"/>
</g>
</g>
<defs>
<clipPath id="clip0_4953_6074">
<rect width="24" height="24" fill="white" transform="translate(0 0.5)"/>
</clipPath>
</defs>
</svg>
