<svg width="20" height="20" viewBox="0 0 20 20" fill="none" xmlns="http://www.w3.org/2000/svg">
<g id="Icons">
<mask id="mask0_4745_38989" style="mask-type:alpha" maskUnits="userSpaceOnUse" x="0" y="0" width="20" height="20">
<rect id="Bounding box" width="20" height="20" fill="#D9D9D9"/>
</mask>
<g mask="url(#mask0_4745_38989)">
<path id="credit_card" d="M18.1667 8.33979V16.8269C18.1667 17.1923 18.0372 17.5069 17.7781 17.7708C17.5191 18.0347 17.202 18.1667 16.8269 18.1667H4.33979C3.97437 18.1667 3.65972 18.0347 3.39583 17.7708C3.13194 17.5069 3 17.1923 3 16.8269V8.33979C3 7.97437 3.13194 7.65972 3.39583 7.39583C3.65972 7.13194 3.97437 7 4.33979 7H16.8269C17.202 7 17.5191 7.13194 17.7781 7.39583C18.0372 7.65972 18.1667 7.97437 18.1667 8.33979ZM4.08333 9.92H17.0833V8.33979C17.0833 8.27562 17.0566 8.21687 17.0031 8.16354C16.9498 8.11007 16.891 8.08333 16.8269 8.08333H4.33979C4.27562 8.08333 4.21688 8.11007 4.16354 8.16354C4.11007 8.21687 4.08333 8.27562 4.08333 8.33979V9.92ZM4.08333 12.2467V16.8269C4.08333 16.891 4.11007 16.9498 4.16354 17.0031C4.21688 17.0566 4.27562 17.0833 4.33979 17.0833H16.8269C16.891 17.0833 16.9498 17.0566 17.0031 17.0031C17.0566 16.9498 17.0833 16.891 17.0833 16.8269V12.2467H4.08333Z" fill="#A5A5AB"/>
<path id="redo" d="M2.2125 6C1.60625 6 1.08594 5.79 0.651563 5.37C0.217188 4.95 0 4.42667 0 3.8C0 3.17333 0.217188 2.65 0.651563 2.23C1.08594 1.81 1.60625 1.6 2.2125 1.6H4.575L3.6 0.56L4.125 0L6 2L4.125 4L3.6 3.44L4.575 2.4H2.2125C1.81875 2.4 1.47656 2.53333 1.18594 2.8C0.895313 3.06667 0.75 3.4 0.75 3.8C0.75 4.2 0.895313 4.53333 1.18594 4.8C1.47656 5.06667 1.81875 5.2 2.2125 5.2H4.875V6H2.2125Z" fill="#A5A5AB"/>
</g>
</g>
</svg>
