<svg width="20" height="21" viewBox="0 0 20 21" fill="none" xmlns="http://www.w3.org/2000/svg">
<g id="Icons">
<path id="Vector" d="M10.0003 19.4583C5.05866 19.4583 1.04199 15.4416 1.04199 10.5C1.04199 5.55829 5.05866 1.54163 10.0003 1.54163C14.942 1.54163 18.9587 5.55829 18.9587 10.5C18.9587 15.4416 14.942 19.4583 10.0003 19.4583ZM10.0003 2.79163C5.75033 2.79163 2.29199 6.24996 2.29199 10.5C2.29199 14.75 5.75033 18.2083 10.0003 18.2083C14.2503 18.2083 17.7087 14.75 17.7087 10.5C17.7087 6.24996 14.2503 2.79163 10.0003 2.79163Z" fill="#4A4C56"/>
<path id="Vector_2" d="M7.64245 13.4828C7.48411 13.4828 7.32578 13.4244 7.20078 13.2994C6.95911 13.0578 6.95911 12.6578 7.20078 12.4161L11.9174 7.69944C12.1591 7.45777 12.5591 7.45777 12.8008 7.69944C13.0424 7.94111 13.0424 8.3411 12.8008 8.58277L8.08411 13.2994C7.96745 13.4244 7.80078 13.4828 7.64245 13.4828Z" fill="#4A4C56"/>
<path id="Vector_3" d="M12.3591 13.4828C12.2008 13.4828 12.0424 13.4244 11.9174 13.2994L7.20078 8.58277C6.95911 8.3411 6.95911 7.94111 7.20078 7.69944C7.44245 7.45777 7.84245 7.45777 8.08411 7.69944L12.8008 12.4161C13.0424 12.6578 13.0424 13.0578 12.8008 13.2994C12.6758 13.4244 12.5174 13.4828 12.3591 13.4828Z" fill="#4A4C56"/>
</g>
</svg>
