<svg width="25" height="25" viewBox="0 0 25 25" fill="none" xmlns="http://www.w3.org/2000/svg">
<g id="Frame" clip-path="url(#clip0_4953_5887)">
<g id="Group">
<path id="Vector" d="M18.8864 2.8082V21.6851H4.16477C3.74031 21.6851 3.39648 21.3408 3.39648 20.9164V6.79114L8.27085 2.03943H18.1176C18.5421 2.03943 18.8864 2.38373 18.8864 2.8082Z" fill="#A7EADE"/>
<path id="Vector_2" d="M18.8866 14.3524V21.6852H11.5635V16.3666C11.5635 15.254 12.465 14.3524 13.5776 14.3524H18.8866Z" fill="#D3F4EF"/>
<path id="Vector_3" d="M18.1181 2.03967H17.1621C17.5866 2.03967 17.9308 2.38379 17.9308 2.8083V21.6851H18.8868V2.80835C18.8868 2.38383 18.5426 2.03967 18.1181 2.03967Z" fill="#A7EADE"/>
<path id="Vector_4" d="M17.296 1.26877V20.1457H2.57444C2.14997 20.1457 1.80566 19.8014 1.80566 19.3769V4.85573C1.80566 4.85573 1.80566 4.71811 1.88003 4.55489L5.86731 0.574366C6.03053 0.5 6.16816 0.5 6.16816 0.5H16.5273C16.9517 0.5 17.296 0.844306 17.296 1.26877Z" fill="#EAF6FF"/>
<path id="Vector_5" d="M14.7267 14.3523L17.2964 20.1457H11.5635V16.3665C11.5635 15.2539 12.465 14.3523 13.5776 14.3523L14.7267 14.3523Z" fill="#D3F4EF"/>
<path id="Vector_6" d="M16.5271 0.5H15.3779C15.8024 0.5 16.1466 0.844113 16.1466 1.26863V20.1455H17.2958V1.26863C17.2958 0.844113 16.9516 0.5 16.5271 0.5Z" fill="#7ADFCE"/>
<path id="Vector_7" d="M20.8455 24.5H14.7259C13.6136 24.5 12.7119 23.5983 12.7119 22.486V16.3664C12.7119 15.2541 13.6136 14.3524 14.7259 14.3524H20.8455C21.9578 14.3524 22.8595 15.2541 22.8595 16.3664V22.486C22.8596 23.5983 21.9579 24.5 20.8455 24.5Z" fill="#4ED5BD"/>
<path id="Vector_8" d="M20.8454 14.3523H19.6963C20.8086 14.3523 21.7103 15.254 21.7103 16.3663V22.4859C21.7103 23.5982 20.8086 24.4999 19.6963 24.4999H20.8454C21.9577 24.4999 22.8595 23.5982 22.8595 22.4859V16.3664C22.8595 15.254 21.9578 14.3523 20.8454 14.3523Z" fill="#22CAAD"/>
<path id="Vector_9" d="M20.3222 18.6805L18.5049 16.4158C18.1359 15.9561 17.4362 15.9561 17.0673 16.4158L15.25 18.6805C14.7991 19.2127 15.2165 20.0918 15.9172 20.0715H16.2118C16.3206 20.0715 16.4249 20.1147 16.5019 20.1916C16.5788 20.2686 16.622 20.3729 16.622 20.4817V22.3214C16.622 22.4434 16.6705 22.5604 16.7568 22.6467C16.843 22.7329 16.96 22.7814 17.082 22.7814H18.4903C18.6123 22.7814 18.7293 22.7329 18.8156 22.6467C18.9018 22.5604 18.9503 22.4434 18.9503 22.3214V20.4817C18.9503 20.3729 18.9935 20.2686 19.0704 20.1916C19.1474 20.1147 19.2517 20.0715 19.3606 20.0715H19.6551C20.3556 20.0918 20.7732 19.2128 20.3222 18.6805Z" fill="#C8EFFE"/>
<path id="Vector_10" d="M20.3225 18.6805L18.5051 16.4158C18.1362 15.9561 17.4365 15.9561 17.0676 16.4158L16.9668 16.5414C17.2409 16.5352 17.5173 16.6492 17.7066 16.8851L19.1733 18.6805C19.6244 19.2128 19.2067 20.0918 18.5061 20.0715H18.2116C18.1028 20.0715 17.9984 20.1147 17.9215 20.1916C17.8446 20.2686 17.8013 20.3729 17.8013 20.4817V22.3214C17.8013 22.4434 17.7529 22.5604 17.6666 22.6466C17.5804 22.7329 17.4634 22.7813 17.3414 22.7813H18.4905C18.6125 22.7813 18.7295 22.7329 18.8158 22.6466C18.902 22.5604 18.9505 22.4434 18.9505 22.3214V20.4817C18.9505 20.3729 18.9937 20.2685 19.0707 20.1916C19.1476 20.1146 19.2519 20.0714 19.3608 20.0714H19.6553C20.3558 20.0918 20.7735 19.2128 20.3225 18.6805Z" fill="#22CAAD"/>
<path id="Vector_11" d="M5.86717 0.574341V3.78609C5.86717 4.21056 5.52286 4.55486 5.09839 4.55486H1.87988C1.91513 4.47712 1.9668 4.39358 2.04407 4.3168L4.71787 1.64734L5.6291 0.73756V0.738526C5.69778 0.669742 5.77846 0.614099 5.86717 0.574341Z" fill="#C8EFFE"/>
<path id="Vector_12" d="M5.86778 0.574341V3.78609C5.86778 4.21056 5.52347 4.55486 5.09901 4.55486H3.9502C4.37466 4.55486 4.71848 4.21056 4.71848 3.78609V1.64734L5.62971 0.73756V0.738526C5.6984 0.669742 5.77908 0.614099 5.86778 0.574341ZM11.8504 4.22171H8.44945C8.01238 4.22171 7.65807 3.86741 7.65807 3.43034V3.4287C7.65807 2.99163 8.01238 2.63733 8.44945 2.63733H11.8504C12.2875 2.63733 12.6418 2.99163 12.6418 3.4287V3.43034C12.6418 3.86741 12.2875 4.22171 11.8504 4.22171Z" fill="#22CAAD"/>
<path id="Vector_13" d="M11.8503 2.63733H10.7012C11.1382 2.63733 11.4925 2.99163 11.4925 3.4287V3.43034C11.4925 3.86741 11.1382 4.22172 10.7012 4.22172H11.8503C12.2874 4.22172 12.6417 3.86741 12.6417 3.43034V3.4287C12.6417 2.99168 12.2874 2.63733 11.8503 2.63733Z" fill="#7ADFCE"/>
<path id="Vector_14" d="M14.5771 7.65049H4.54088C4.44483 7.65049 4.35271 7.61234 4.28479 7.54442C4.21687 7.47649 4.17871 7.38437 4.17871 7.28832C4.17871 7.19227 4.21687 7.10015 4.28479 7.03223C4.35271 6.9643 4.44483 6.92615 4.54088 6.92615H14.5771C14.6732 6.92615 14.7653 6.9643 14.8332 7.03223C14.9011 7.10015 14.9393 7.19227 14.9393 7.28832C14.9393 7.38437 14.9011 7.47649 14.8332 7.54442C14.7653 7.61234 14.6732 7.65049 14.5771 7.65049ZM14.5771 9.79808H4.54088C4.44483 9.79808 4.35271 9.75993 4.28479 9.692C4.21687 9.62408 4.17871 9.53196 4.17871 9.43591C4.17871 9.33986 4.21687 9.24774 4.28479 9.17981C4.35271 9.11189 4.44483 9.07374 4.54088 9.07374H14.5771C14.6732 9.07374 14.7653 9.11189 14.8332 9.17981C14.9011 9.24774 14.9393 9.33986 14.9393 9.43591C14.9393 9.53196 14.9011 9.62408 14.8332 9.692C14.7653 9.75993 14.6732 9.79808 14.5771 9.79808ZM14.5771 11.9456H12.703C12.6069 11.9456 12.5148 11.9075 12.4469 11.8395C12.3789 11.7716 12.3408 11.6795 12.3408 11.5835C12.3408 11.4874 12.3789 11.3953 12.4469 11.3274C12.5148 11.2594 12.6069 11.2213 12.703 11.2213H14.5771C14.6732 11.2213 14.7653 11.2594 14.8332 11.3274C14.9011 11.3953 14.9393 11.4874 14.9393 11.5835C14.9393 11.6795 14.9011 11.7716 14.8332 11.8395C14.7653 11.9075 14.6732 11.9456 14.5771 11.9456ZM11.003 11.9456H4.54088C4.44483 11.9456 4.35271 11.9075 4.28479 11.8395C4.21687 11.7716 4.17871 11.6795 4.17871 11.5835C4.17871 11.4874 4.21687 11.3953 4.28479 11.3274C4.35271 11.2594 4.44483 11.2213 4.54088 11.2213H11.0029C11.099 11.2213 11.1911 11.2594 11.259 11.3273C11.3269 11.3953 11.3651 11.4874 11.3651 11.5834C11.3651 11.6795 11.327 11.7716 11.2591 11.8395C11.1911 11.9075 11.099 11.9456 11.003 11.9456ZM8.91719 14.0932H4.54088C4.44483 14.0932 4.35271 14.0551 4.28479 13.9871C4.21687 13.9192 4.17871 13.8271 4.17871 13.731C4.17871 13.635 4.21687 13.5429 4.28479 13.4749C4.35271 13.407 4.44483 13.3689 4.54088 13.3689H8.91714C9.0132 13.3689 9.10532 13.407 9.17324 13.4749C9.24117 13.5428 9.27933 13.635 9.27934 13.731C9.27934 13.8271 9.24119 13.9192 9.17328 13.9871C9.10536 14.055 9.01324 14.0932 8.91719 14.0932ZM8.91719 16.2408H4.54088C4.44483 16.2408 4.35271 16.2026 4.28479 16.1347C4.21687 16.0668 4.17871 15.9746 4.17871 15.8786C4.17871 15.7825 4.21687 15.6904 4.28479 15.6225C4.35271 15.5546 4.44483 15.5164 4.54088 15.5164H8.91714C9.0132 15.5164 9.10532 15.5546 9.17324 15.6225C9.24117 15.6904 9.27933 15.7825 9.27934 15.8786C9.27934 15.9746 9.24119 16.0667 9.17328 16.1347C9.10536 16.2026 9.01324 16.2407 8.91719 16.2408Z" fill="#4ED5BD"/>
</g>
</g>
<defs>
<clipPath id="clip0_4953_5887">
<rect width="24" height="24" fill="white" transform="translate(0.333008 0.5)"/>
</clipPath>
</defs>
</svg>
