<svg width="20" height="20" viewBox="0 0 20 20" fill="none" xmlns="http://www.w3.org/2000/svg">
<g id="Icons">
<mask id="mask0_5106_5624" style="mask-type:alpha" maskUnits="userSpaceOnUse" x="0" y="0" width="20" height="20">
<rect id="Bounding box" width="20" height="20" fill="#D9D9D9"/>
</mask>
<g mask="url(#mask0_5106_5624)">
<path id="logout" d="M4.75678 16.5833C4.38164 16.5833 4.06456 16.4538 3.80553 16.1948C3.54651 15.9357 3.41699 15.6186 3.41699 15.2435V4.75642C3.41699 4.38128 3.54651 4.0642 3.80553 3.80517C4.06456 3.54614 4.38164 3.41663 4.75678 3.41663H10.0082V4.49996H4.75678C4.69262 4.49996 4.63387 4.5267 4.58053 4.58017C4.52706 4.6335 4.50033 4.69225 4.50033 4.75642V15.2435C4.50033 15.3077 4.52706 15.3664 4.58053 15.4198C4.63387 15.4732 4.69262 15.5 4.75678 15.5H10.0082V16.5833H4.75678ZM13.6926 12.891L12.9105 12.1329L14.502 10.5416H8.08053V9.45829H14.502L12.9105 7.86704L13.6926 7.10892L16.5837 9.99996L13.6926 12.891Z" fill="#1D1F2C"/>
</g>
</g>
</svg>
