<svg width="20" height="20" viewBox="0 0 20 20" fill="none" xmlns="http://www.w3.org/2000/svg">
<g id="Icons">
<mask id="mask0_5106_5613" style="mask-type:alpha" maskUnits="userSpaceOnUse" x="0" y="0" width="20" height="20">
<rect id="Bounding box" width="20" height="20" fill="#D9D9D9"/>
</mask>
<g mask="url(#mask0_5106_5613)">
<path id="notifications_unread" d="M12.73 7.27114C13.2165 7.75705 13.8068 8 14.5009 8C15.1952 8 15.7852 7.75667 16.2711 7.27C16.757 6.78348 17 6.19311 17 5.49886C17 4.80477 16.7567 4.21477 16.27 3.72886C15.7835 3.24295 15.1931 3 14.4989 3C13.8048 3 13.2148 3.24326 12.7289 3.72977C12.243 4.21644 12 4.80682 12 5.50091C12 6.19515 12.2433 6.78523 12.73 7.27114Z" fill="#1D1F2C"/>
<path id="notifications_unread_2" d="M9.99449 17.7435C9.62449 17.7435 9.3097 17.6123 9.05012 17.35C8.7904 17.0876 8.66053 16.7722 8.66053 16.4037H11.3401C11.3401 16.7777 11.2083 17.0945 10.9447 17.3541C10.6812 17.6137 10.3645 17.7435 9.99449 17.7435ZM4.41699 15.4037V14.3206H5.25678V8.93579C5.25678 7.75954 5.62699 6.73044 6.36741 5.8485C7.10769 4.96656 8.05477 4.43315 9.20866 4.24829V3.20829C9.20866 2.98843 9.28553 2.80149 9.43928 2.64746C9.59303 2.49357 9.7797 2.41663 9.99928 2.41663C10.219 2.41663 10.406 2.49357 10.5603 2.64746C10.7148 2.80149 10.792 2.98843 10.792 3.20829V3.66663C10.6552 3.89954 10.5363 4.15058 10.4353 4.41975C10.3344 4.68906 10.2679 4.97489 10.236 5.27725L10.1126 5.276C10.0726 5.27572 10.0352 5.27558 10.0003 5.27558C8.98005 5.27558 8.11491 5.63058 7.40491 6.34058C6.69505 7.05045 6.34012 7.91551 6.34012 8.93579V14.3206H13.6605V9.83975C13.8379 9.86642 14.019 9.87468 14.2039 9.86454C14.3887 9.8544 14.5687 9.83281 14.7439 9.79975V14.3154H15.5837V15.4037H4.41699Z" fill="#1D1F2C"/>
</g>
</g>
</svg>
