<svg width="20" height="20" viewBox="0 0 20 20" fill="none" xmlns="http://www.w3.org/2000/svg">
<g id="Icons">
<mask id="mask0_4811_12048" style="mask-type:alpha" maskUnits="userSpaceOnUse" x="0" y="0" width="20" height="20">
<rect id="Bounding box" width="20" height="20" fill="#D9D9D9"/>
</mask>
<g mask="url(#mask0_4811_12048)">
<path id="add_card" d="M3.75678 15.5833C3.39137 15.5833 3.07671 15.4537 2.81283 15.1945C2.54894 14.9354 2.41699 14.6181 2.41699 14.2427V5.75058C2.41699 5.37517 2.54894 5.05899 2.81283 4.80204C3.07671 4.5451 3.39137 4.41663 3.75678 4.41663H16.2439C16.6093 4.41663 16.9239 4.54614 17.1878 4.80517C17.4517 5.0642 17.5837 5.38128 17.5837 5.75642V9.66329H3.50033V14.2435C3.50033 14.3077 3.52706 14.3664 3.58053 14.4198C3.63387 14.4732 3.69262 14.5 3.75678 14.5H11.6637V15.5833H3.75678ZM3.50033 7.33663H16.5003V5.75642C16.5003 5.69225 16.4736 5.6335 16.4201 5.58017C16.3668 5.5267 16.308 5.49996 16.2439 5.49996H3.75678C3.69262 5.49996 3.63387 5.5267 3.58053 5.58017C3.52706 5.6335 3.50033 5.69225 3.50033 5.75642V7.33663ZM16.2087 17.7916V15.2916H13.7087V14.2083H16.2087V11.7083H17.292V14.2083H19.792V15.2916H17.292V17.7916H16.2087Z" fill="#1D1F2C"/>
</g>
</g>
</svg>
