<svg width="19" height="20" viewBox="0 0 19 20" fill="none" xmlns="http://www.w3.org/2000/svg">
<g id="picture_as_pdf">
<path id="picture_as_pdf_2" d="M6.077 10.6923H6.9615V8.69225H8.077C8.32817 8.69225 8.53842 8.60767 8.70775 8.4385C8.87692 8.26917 8.9615 8.05892 8.9615 7.80775V6.69225C8.9615 6.44108 8.87692 6.23083 8.70775 6.0615C8.53842 5.89233 8.32817 5.80775 8.077 5.80775H6.077V10.6923ZM6.9615 7.80775V6.69225H8.077V7.80775H6.9615ZM9.98075 10.6923H11.9423C12.1936 10.6923 12.4038 10.6077 12.573 10.4385C12.7423 10.2692 12.827 10.0589 12.827 9.80775V6.69225C12.827 6.44108 12.7423 6.23083 12.573 6.0615C12.4038 5.89233 12.1936 5.80775 11.9423 5.80775H9.98075V10.6923ZM10.8652 9.80775V6.69225H11.9423V9.80775H10.8652ZM13.9423 10.6923H14.827V8.69225H16.0193V7.80775H14.827V6.69225H16.0193V5.80775H13.9423V10.6923ZM5.30775 15.75C4.80258 15.75 4.375 15.575 4.025 15.225C3.675 14.875 3.5 14.4474 3.5 13.9423V2.55775C3.5 2.05258 3.675 1.625 4.025 1.275C4.375 0.925 4.80258 0.75 5.30775 0.75H16.6923C17.1974 0.75 17.625 0.925 17.975 1.275C18.325 1.625 18.5 2.05258 18.5 2.55775V13.9423C18.5 14.4474 18.325 14.875 17.975 15.225C17.625 15.575 17.1974 15.75 16.6923 15.75H5.30775ZM5.30775 14.25H16.6923C16.7693 14.25 16.8398 14.2179 16.9038 14.1538C16.9679 14.0898 17 14.0192 17 13.9423V2.55775C17 2.48075 16.9679 2.41025 16.9038 2.34625C16.8398 2.28208 16.7693 2.25 16.6923 2.25H5.30775C5.23075 2.25 5.16025 2.28208 5.09625 2.34625C5.03208 2.41025 5 2.48075 5 2.55775V13.9423C5 14.0192 5.03208 14.0898 5.09625 14.1538C5.16025 14.2179 5.23075 14.25 5.30775 14.25ZM1.80775 19.25C1.30258 19.25 0.875 19.075 0.525 18.725C0.175 18.375 0 17.9474 0 17.4423V4.55775H1.5V17.4423C1.5 17.5193 1.53208 17.5898 1.59625 17.6538C1.66025 17.7179 1.73075 17.75 1.80775 17.75H14.6923V19.25H1.80775Z" fill="white"/>
</g>
</svg>
