<svg width="25" height="25" viewBox="0 0 25 25" fill="none" xmlns="http://www.w3.org/2000/svg">
<path d="M2.46094 5.2396L3.0511 4.64943L9.39536 10.9937L22.379 0.862549L22.8708 1.50189L9.34618 12.0757L2.46094 5.2396Z" fill="#24A4FF"/>
<circle cx="2.75623" cy="5.09204" r="1.27869" fill="#D2D2D5"/>
<circle cx="15.1986" cy="6.96094" r="1.27869" fill="#D2D2D5"/>
<circle cx="22.5756" cy="1.30518" r="1.27869" fill="#D2D2D5"/>
<circle cx="9.51892" cy="11.1904" r="1.27869" fill="#D2D2D5"/>
<path d="M0.666016 10.5642C0.666016 10.0209 1.10639 9.58057 1.64962 9.58057H4.207C4.75023 9.58057 5.19061 10.0209 5.19061 10.5642V23.9904C5.19061 24.5336 4.75023 24.974 4.207 24.974H1.64962C1.10639 24.974 0.666016 24.5336 0.666016 23.9904V10.5642Z" fill="#FF6CB5"/>
<path d="M0.666016 10.5642C0.666016 10.0209 1.10639 9.58057 1.64962 9.58057H2.09225C2.63548 9.58057 3.07585 10.0209 3.07585 10.5642V23.9904C3.07585 24.5336 2.63548 24.974 2.09225 24.974H1.64962C1.10639 24.974 0.666016 24.5336 0.666016 23.9904V10.5642Z" fill="#FA9084"/>
<path d="M7.1582 16.6134C7.1582 16.0701 7.59858 15.6298 8.14181 15.6298H10.6992C11.2424 15.6298 11.6828 16.0701 11.6828 16.6134V23.9904C11.6828 24.5336 11.2424 24.974 10.6992 24.974H8.14181C7.59858 24.974 7.1582 24.5336 7.1582 23.9904V16.6134Z" fill="#FCC645"/>
<path d="M7.1582 16.6134C7.1582 16.0701 7.59858 15.6298 8.14181 15.6298H8.58443C9.12766 15.6298 9.56804 16.0701 9.56804 16.6134V23.9904C9.56804 24.5336 9.12766 24.974 8.58443 24.974H8.14181C7.59858 24.974 7.1582 24.5336 7.1582 23.9904V16.6134Z" fill="#FFD36C"/>
<path d="M13.6494 12.4823C13.6494 11.939 14.0898 11.4987 14.633 11.4987H17.1904C17.7336 11.4987 18.174 11.939 18.174 12.4823V23.9905C18.174 24.5337 17.7336 24.9741 17.1904 24.9741H14.633C14.0898 24.9741 13.6494 24.5337 13.6494 23.9905V12.4823Z" fill="#62A6FD"/>
<path d="M13.6494 12.4823C13.6494 11.939 14.0898 11.4987 14.633 11.4987H15.0756C15.6189 11.4987 16.0592 11.939 16.0592 12.4823V23.9905C16.0592 24.5337 15.6189 24.9741 15.0756 24.9741H14.633C14.0898 24.9741 13.6494 24.5337 13.6494 23.9905V12.4823Z" fill="#72D1FB"/>
<path d="M20.1416 7.36752C20.1416 6.82429 20.582 6.38391 21.1252 6.38391H23.6826C24.2258 6.38391 24.6662 6.82429 24.6662 7.36752V23.9905C24.6662 24.5337 24.2258 24.9741 23.6826 24.9741H21.1252C20.582 24.9741 20.1416 24.5337 20.1416 23.9905V7.36752Z" fill="#22CAAD"/>
<path d="M20.1416 7.36752C20.1416 6.82429 20.582 6.38391 21.1252 6.38391H21.5678C22.1111 6.38391 22.5514 6.82429 22.5514 7.36752V23.9905C22.5514 24.5337 22.1111 24.9741 21.5678 24.9741H21.1252C20.582 24.9741 20.1416 24.5337 20.1416 23.9905V7.36752Z" fill="#72E4A0"/>
</svg>
