<svg width="24" height="24" viewBox="0 0 24 24" fill="none" xmlns="http://www.w3.org/2000/svg">
<g id="Icons">
<mask id="mask0_4745_45208" style="mask-type:alpha" maskUnits="userSpaceOnUse" x="0" y="0" width="24" height="24">
<rect id="Bounding box" width="24" height="24" fill="#D9D9D9"/>
</mask>
<g mask="url(#mask0_4745_45208)">
<path id="encrypted" d="M10.7907 14.75H13.2097L12.6694 11.5922C12.9293 11.4752 13.1394 11.2896 13.2999 11.0352C13.4603 10.7809 13.5404 10.4984 13.5404 10.1877C13.5404 9.76639 13.3894 9.40639 13.0872 9.10773C12.7849 8.80906 12.4208 8.65973 11.9949 8.65973C11.5689 8.65973 11.2066 8.81031 10.9079 9.11148C10.6093 9.41264 10.4599 9.77548 10.4599 10.2C10.4599 10.5081 10.5401 10.7882 10.7004 11.0402C10.8609 11.2924 11.0711 11.4764 11.3309 11.5922L10.7907 14.75ZM12.0002 21.0807C9.90403 20.5242 8.16336 19.3066 6.7782 17.428C5.39286 15.5491 4.7002 13.4481 4.7002 11.125V5.74623L12.0002 2.93848L19.3002 5.74623V11.125C19.3002 13.4481 18.6075 15.5491 17.2222 17.428C15.837 19.3066 14.0964 20.5242 12.0002 21.0807ZM12.0002 19.725C13.7335 19.1875 15.1669 18.1125 16.3002 16.5C17.4335 14.8875 18.0002 13.0958 18.0002 11.125V6.62498L12.0002 4.33448L6.0002 6.62498V11.125C6.0002 13.0958 6.56686 14.8875 7.7002 16.5C8.83353 18.1125 10.2669 19.1875 12.0002 19.725Z" fill="#777980"/>
</g>
</g>
</svg>
