<svg width="20" height="20" viewBox="0 0 20 20" fill="none" xmlns="http://www.w3.org/2000/svg">
<g id="Icons">
<mask id="mask0_4811_5122" style="mask-type:alpha" maskUnits="userSpaceOnUse" x="0" y="0" width="20" height="20">
<rect id="Bounding box" width="20" height="20" fill="#D9D9D9"/>
</mask>
<g mask="url(#mask0_4811_5122)">
<path id="left_panel_close" d="M13.3737 12.9887V7.01121L10.377 9.99996L13.3737 12.9887ZM4.42345 17.0833C4.00789 17.0833 3.6529 16.9361 3.35845 16.6418C3.06415 16.3474 2.91699 15.9924 2.91699 15.5768V4.42308C2.91699 4.00753 3.06415 3.65253 3.35845 3.35808C3.6529 3.06378 4.00789 2.91663 4.42345 2.91663H15.5772C15.9928 2.91663 16.3478 3.06378 16.6422 3.35808C16.9365 3.65253 17.0837 4.00753 17.0837 4.42308V15.5768C17.0837 15.9924 16.9365 16.3474 16.6422 16.6418C16.3478 16.9361 15.9928 17.0833 15.5772 17.0833H4.42345ZM6.66699 15.8333V4.16663H4.42345C4.35928 4.16663 4.30053 4.19336 4.2472 4.24683C4.19373 4.30017 4.16699 4.35892 4.16699 4.42308V15.5768C4.16699 15.641 4.19373 15.6998 4.2472 15.7531C4.30053 15.8066 4.35928 15.8333 4.42345 15.8333H6.66699ZM7.91699 15.8333H15.5772C15.6414 15.8333 15.7001 15.8066 15.7535 15.7531C15.8069 15.6998 15.8337 15.641 15.8337 15.5768V4.42308C15.8337 4.35892 15.8069 4.30017 15.7535 4.24683C15.7001 4.19336 15.6414 4.16663 15.5772 4.16663H7.91699V15.8333Z" fill="#D2D2D5"/>
</g>
</g>
</svg>
