<svg width="20" height="20" viewBox="0 0 20 20" fill="none" xmlns="http://www.w3.org/2000/svg">
<g id="Icons">
<mask id="mask0_5245_4859" style="mask-type:alpha" maskUnits="userSpaceOnUse" x="0" y="0" width="20" height="20">
<rect id="Bounding box" width="20" height="20" fill="#D9D9D9"/>
</mask>
<g mask="url(#mask0_5245_4859)">
<path id="token" d="M10 17.2595L3.45837 13.6297V6.37015L10 2.74036L16.5417 6.37015V13.6297L10 17.2595ZM7.87337 8.1939C8.13518 7.89154 8.45435 7.65168 8.83087 7.47432C9.20754 7.29695 9.59726 7.20827 10 7.20827C10.4028 7.20827 10.7925 7.29695 11.1692 7.47432C11.5457 7.65168 11.8649 7.89154 12.1267 8.1939L14.8623 6.68744L10 3.98869L5.13775 6.68744L7.87337 8.1939ZM9.45837 15.7274V12.7564C8.80768 12.6217 8.27004 12.2969 7.84546 11.782C7.42073 11.267 7.20837 10.673 7.20837 9.99994C7.20837 9.85897 7.21587 9.71445 7.23087 9.5664C7.24573 9.41848 7.28629 9.28091 7.35254 9.15369L4.54171 7.58494V12.9951L9.45837 15.7274ZM10 11.7083C10.4809 11.7083 10.8858 11.5438 11.2148 11.2147C11.5439 10.8857 11.7084 10.4808 11.7084 9.99994C11.7084 9.51911 11.5439 9.11418 11.2148 8.78515C10.8858 8.45612 10.4809 8.29161 10 8.29161C9.51921 8.29161 9.11428 8.45612 8.78525 8.78515C8.45622 9.11418 8.29171 9.51911 8.29171 9.99994C8.29171 10.4808 8.45622 10.8857 8.78525 11.2147C9.11428 11.5438 9.51921 11.7083 10 11.7083ZM10.5417 15.7274L15.4584 12.9951V7.58494L12.6475 9.15369C12.6999 9.28091 12.737 9.41848 12.7588 9.5664C12.7807 9.71445 12.7917 9.85897 12.7917 9.99994C12.7917 10.673 12.5793 11.267 12.1546 11.782C11.73 12.2969 11.1924 12.6217 10.5417 12.7564V15.7274Z" fill="#777980"/>
</g>
</g>
</svg>
