<svg width="34" height="10" viewBox="0 0 34 10" fill="none" xmlns="http://www.w3.org/2000/svg">
<path id="path3789" d="M22.1525 0C19.7415 0 17.5768 1.14118 17.5768 3.23529C17.5768 5.64706 21.4007 5.81176 21.4007 7.01176C21.4007 7.51765 20.7526 7.97647 19.6637 7.97647C18.1083 7.97647 16.9417 7.34118 16.9417 7.34118L16.4491 9.45882C16.4491 9.45882 17.7842 10 19.573 10C22.2173 10 24.2913 8.81176 24.2913 6.67059C24.2913 4.12941 20.4544 3.96471 20.4544 2.84706C20.4544 2.44706 20.9859 2.01176 22.0747 2.01176C23.3061 2.01176 24.3172 2.47059 24.3172 2.47059L24.8098 0.423529C24.7968 0.423529 23.695 0 22.1525 0ZM0.0648113 0.152941L0 0.458824C0 0.458824 1.01106 0.623529 1.93138 0.964706C3.11094 1.35294 3.18872 1.57647 3.39611 2.27059L5.56081 9.83529H8.46435L12.9104 0.152941H10.0198L7.15517 6.74118L5.98856 1.15294C5.88486 0.517647 5.34045 0.152941 4.66641 0.152941H0.0648113ZM14.077 0.152941L11.8086 9.83529H14.5696L16.825 0.152941H14.077ZM29.4502 0.152941C28.7892 0.152941 28.4392 0.470588 28.1799 1.03529L24.1357 9.83529H27.0263L27.5837 8.36471H31.1094L31.4464 9.83529H34L31.7835 0.152941H29.4502ZM29.8262 2.77647L30.6817 6.41176H28.3873L29.8262 2.77647Z" fill="#1434CB"/>
</svg>
