<svg width="194" height="150" viewBox="0 0 194 150" fill="none" xmlns="http://www.w3.org/2000/svg">
<g id="Group">
<path id="Vector" fill-rule="evenodd" clip-rule="evenodd" d="M32.4246 2.21572C31.9916 2.34103 31.5835 2.51644 31.2049 2.73469C30.8139 2.9602 30.4524 3.23224 30.1301 3.54367C30.0666 3.60448 29.9727 3.61519 29.901 3.57236L28.4513 2.73469L28.4441 2.73112C28.3617 2.68459 28.2661 2.67745 28.1793 2.69887C28.0897 2.72398 28.011 2.78122 27.9618 2.86714L27.9538 2.87785L26.9372 4.64255C26.8871 4.72847 26.8764 4.82498 26.8988 4.91459C26.9231 5.00408 26.9803 5.08631 27.0661 5.13296L27.0767 5.1401L28.5157 5.9705C28.5908 6.01346 28.6232 6.10295 28.6052 6.18161C28.5515 6.39641 28.5123 6.61466 28.4836 6.8403C28.4593 7.05855 28.4441 7.28406 28.4441 7.51314C28.4441 7.74222 28.4593 7.96416 28.4836 8.1861C28.5121 8.41161 28.5515 8.62998 28.6052 8.84478C28.6267 8.93427 28.5837 9.02376 28.505 9.06315L27.0661 9.88999C26.9802 9.94009 26.923 10.0224 26.8988 10.1084C26.8764 10.1978 26.8871 10.298 26.9372 10.384L27.9619 12.1594C28.0111 12.2452 28.0899 12.3025 28.1794 12.324C28.2689 12.3491 28.3654 12.3382 28.4514 12.2918L28.4622 12.2846L29.901 11.454C29.9761 11.4111 30.0692 11.4255 30.1301 11.4827C30.4523 11.7905 30.8101 12.0625 31.2049 12.2917C31.5835 12.51 31.9986 12.6891 32.4327 12.8105C32.5177 12.8357 32.5714 12.9144 32.5714 12.9968V14.6684C32.5714 14.7686 32.6143 14.8581 32.6788 14.9226C32.7432 14.987 32.8327 15.0264 32.9329 15.0264H34.9848C35.0805 15.0264 35.17 14.987 35.238 14.9226C35.3024 14.8581 35.3418 14.7688 35.3418 14.6684V12.9968C35.3418 12.9073 35.4071 12.8285 35.4885 12.8105C35.9215 12.6852 36.3332 12.51 36.7127 12.2917C37.1028 12.0626 37.4609 11.7906 37.7829 11.4827C37.8519 11.4182 37.9512 11.411 38.0228 11.4576L39.4618 12.2916C39.5477 12.338 39.6452 12.3488 39.7338 12.3237C39.8233 12.3022 39.9021 12.2449 39.9521 12.1591L39.9593 12.1484L40.9803 10.3802C41.026 10.2978 41.0367 10.1976 41.0151 10.1081C40.99 10.0186 40.9329 9.93984 40.847 9.88974L39.4009 9.05577C39.3258 9.01281 39.2899 8.92332 39.3079 8.84466C39.3616 8.62986 39.4044 8.41148 39.4295 8.18597C39.4581 7.96403 39.4726 7.74209 39.4726 7.51301C39.4726 7.28393 39.4582 7.05842 39.4295 6.84017C39.4044 6.61454 39.3616 6.39629 39.3079 6.18149C39.2864 6.092 39.333 6.00251 39.4127 5.96312L40.8471 5.13271C40.933 5.08618 40.9903 5.0074 41.0153 4.91434C41.0368 4.82842 41.0297 4.72822 40.9804 4.6423L40.9724 4.63159L39.9522 2.8669C39.9021 2.78098 39.8234 2.72373 39.734 2.70232C39.6453 2.67733 39.5478 2.68435 39.4619 2.73457L38.0122 3.57223C37.9371 3.61876 37.8404 3.60079 37.7796 3.53998C37.4574 3.23212 37.0994 2.96008 36.7128 2.73457C36.3299 2.51632 35.9181 2.33734 35.4823 2.21203C35.3956 2.19049 35.3418 2.11183 35.3418 2.02948V0.357838C35.3418 0.257639 35.3024 0.168026 35.238 0.10377C35.17 0.0393909 35.0805 0 34.9848 0H32.9329C32.8327 0 32.7432 0.0393909 32.6788 0.10377C32.6144 0.168149 32.5714 0.257762 32.5714 0.357838V2.02948C32.5715 2.11909 32.5105 2.19418 32.4246 2.21572ZM31.7517 5.30837C32.3172 4.74275 33.0976 4.39205 33.9575 4.39205C34.8193 4.39205 35.5968 4.74287 36.1616 5.30837C36.7271 5.8703 37.0779 6.6506 37.0779 7.51326C37.0779 8.37591 36.7271 9.15264 36.1616 9.71827C35.5969 10.2838 34.8193 10.631 33.9575 10.631C33.0976 10.631 32.3172 10.2839 31.7517 9.71827C31.186 9.15264 30.839 8.37603 30.839 7.51326C30.839 6.65073 31.1862 5.87043 31.7517 5.30837Z" fill="#CFDAEE"/>
<path id="Vector_2" fill-rule="evenodd" clip-rule="evenodd" d="M128.989 125.588C128.555 125.713 128.147 125.893 127.765 126.111C127.377 126.336 127.016 126.608 126.694 126.92C126.629 126.98 126.536 126.988 126.465 126.945L125.016 126.111L125.008 126.104C124.926 126.057 124.829 126.05 124.743 126.072C124.654 126.096 124.574 126.154 124.525 126.24L124.517 126.25L123.497 128.015C123.452 128.101 123.44 128.198 123.462 128.287C123.487 128.377 123.543 128.455 123.63 128.505L123.641 128.512L125.076 129.343C125.151 129.386 125.187 129.472 125.17 129.554C125.115 129.769 125.072 129.987 125.047 130.213C125.022 130.431 125.008 130.657 125.008 130.886C125.008 131.111 125.022 131.337 125.047 131.559C125.072 131.781 125.115 132.003 125.17 132.217C125.191 132.303 125.147 132.393 125.065 132.432L123.63 133.263C123.543 133.313 123.487 133.392 123.462 133.481C123.44 133.57 123.447 133.671 123.497 133.756L124.526 135.532C124.574 135.618 124.654 135.675 124.743 135.697C124.832 135.722 124.929 135.711 125.016 135.664L125.025 135.657L126.466 134.823C126.54 134.78 126.633 134.795 126.695 134.852C127.016 135.163 127.374 135.435 127.765 135.661C128.147 135.883 128.559 136.058 128.995 136.183C129.081 136.208 129.135 136.287 129.135 136.369V138.041C129.135 138.138 129.178 138.227 129.242 138.292C129.307 138.359 129.396 138.399 129.492 138.399H131.548C131.644 138.399 131.734 138.359 131.798 138.292C131.862 138.227 131.905 138.138 131.905 138.041V136.369C131.905 136.276 131.967 136.201 132.052 136.18C132.485 136.058 132.893 135.879 133.276 135.661C133.666 135.435 134.025 135.163 134.346 134.852C134.415 134.791 134.511 134.784 134.586 134.83L136.025 135.661C136.111 135.711 136.209 135.722 136.297 135.697C136.387 135.671 136.465 135.614 136.515 135.532L136.523 135.521L137.543 133.753C137.588 133.667 137.6 133.57 137.58 133.481C137.554 133.391 137.496 133.313 137.41 133.263L135.964 132.429C135.886 132.382 135.853 132.296 135.87 132.217C135.925 132.003 135.964 131.781 135.993 131.559C136.018 131.337 136.032 131.111 136.032 130.886C136.032 130.657 136.018 130.431 135.993 130.213C135.964 129.987 135.925 129.765 135.87 129.554C135.85 129.465 135.893 129.375 135.972 129.336L137.41 128.505C137.496 128.455 137.554 128.377 137.58 128.287C137.6 128.198 137.588 128.101 137.543 128.015L137.536 128.004L136.515 126.24C136.465 126.154 136.387 126.096 136.297 126.072C136.209 126.046 136.111 126.057 136.025 126.107L134.575 126.945C134.496 126.988 134.404 126.973 134.343 126.913C134.021 126.601 133.663 126.333 133.276 126.107C132.889 125.885 132.477 125.71 132.045 125.585C131.959 125.56 131.905 125.485 131.905 125.398V123.727C131.905 123.63 131.862 123.541 131.798 123.476C131.733 123.408 131.644 123.369 131.548 123.369H129.492C129.396 123.369 129.306 123.408 129.242 123.476C129.178 123.541 129.135 123.63 129.135 123.727V125.398C129.135 125.492 129.073 125.567 128.989 125.585L128.989 125.588ZM128.315 128.681C128.877 128.119 129.657 127.768 130.52 127.768C131.383 127.768 132.16 128.119 132.725 128.681C133.29 129.247 133.638 130.027 133.638 130.889C133.638 131.748 133.29 132.529 132.725 133.094C132.16 133.656 131.383 134.007 130.52 134.007C129.657 134.007 128.877 133.656 128.315 133.094C127.749 132.529 127.402 131.748 127.402 130.889C127.402 130.027 127.749 129.247 128.315 128.681Z" fill="#CFDAEE"/>
<path id="Vector_3" fill-rule="evenodd" clip-rule="evenodd" d="M21.6303 26.3305C19.6178 26.3305 17.9819 24.6947 17.9819 22.6831C17.9819 20.6679 19.6178 19.0357 21.6303 19.0357C23.6455 19.0357 25.2769 20.6679 25.2769 22.6831C25.2768 24.6947 23.6455 26.3305 21.6303 26.3305ZM31.9775 24.6232V20.829H29.6152C29.4184 19.9664 29.0854 19.154 28.6381 18.4201L30.3204 16.7377L27.6358 14.0531L25.9679 15.7248C25.2375 15.2666 24.4287 14.923 23.5704 14.7154V12.3351H19.7754V14.6974C18.9135 14.8944 18.1002 15.2272 17.3664 15.6747L15.6839 13.9923L13.003 16.6769L14.6718 18.345C14.2173 19.0752 13.8737 19.8842 13.6616 20.7432H11.2812V24.5374H13.6437C13.8441 25.4001 14.1779 26.2091 14.6244 26.9464L12.9421 28.6287L15.6231 31.3096L17.2947 29.6417C18.0251 30.0963 18.8304 30.4398 19.6895 30.6511V33.0314H23.4837V30.6689C24.3463 30.4685 25.1587 30.1357 25.8926 29.6882L27.575 31.3706L30.2596 28.6896L28.588 27.0179C29.0461 26.2877 29.3898 25.4823 29.5974 24.6232H31.9775Z" fill="#CFDAEE"/>
<path id="Vector_4" fill-rule="evenodd" clip-rule="evenodd" d="M108.79 13.0078C125.071 13.0078 123.214 41.7613 134.965 50.5238C150.522 62.1248 177.285 56.3833 177.285 76.2886C177.285 111.238 142.571 123.902 104.745 123.902C66.9127 123.902 34.6366 104.516 45.8976 69.6596C57.1621 34.803 70.9608 13.0078 108.79 13.0078Z" fill="#E9EEF7"/>
<path id="Vector_5" fill-rule="evenodd" clip-rule="evenodd" d="M138.985 104.777L110.997 101.484L88.4287 110.98C93.6763 114.571 101.834 116.876 110.997 116.869C124.703 116.858 136.161 111.682 138.985 104.777Z" fill="#AABCDD"/>
<path id="Vector_6" fill-rule="evenodd" clip-rule="evenodd" d="M83.7512 105.833L106.319 96.3335L94.2604 82.3807C84.4598 84.8362 77.666 90.1733 77.666 96.3547C77.666 99.9343 79.939 103.224 83.7512 105.833Z" fill="#AABCDD"/>
<path id="Vector_7" fill-rule="evenodd" clip-rule="evenodd" d="M113.939 94.1394L141.928 97.4324C142.364 96.3657 142.592 95.256 142.592 94.1178C142.592 86.4149 132.049 80.0399 118.285 78.9268L113.939 94.1394Z" fill="#AABCDD"/>
<path id="Vector_8" fill-rule="evenodd" clip-rule="evenodd" d="M109.848 97.6019L114.194 82.3891C112.776 82.2745 111.322 82.2174 109.848 82.2174C105.539 82.2174 101.454 82.7329 97.7891 83.6527L109.848 97.6019Z" fill="#AABCDD"/>
<path id="Vector_9" fill-rule="evenodd" clip-rule="evenodd" d="M83.7512 105.834C79.939 103.225 77.666 99.9348 77.666 96.3553V101.957C77.666 105.537 79.939 108.826 83.7512 111.436V105.834Z" fill="#CFDAEE"/>
<path id="Vector_10" fill-rule="evenodd" clip-rule="evenodd" d="M138.985 104.778C136.161 111.683 124.703 116.859 110.997 116.87C101.834 116.877 93.6763 114.572 88.4287 110.981V116.583C93.6763 120.173 101.834 122.478 110.997 122.471C124.703 122.461 136.161 117.285 138.985 110.38V104.778Z" fill="#CFDAEE"/>
<path id="Vector_11" fill-rule="evenodd" clip-rule="evenodd" d="M141.929 97.4318V103.033C142.364 101.967 142.593 100.857 142.593 99.7191V94.1172C142.593 95.2555 142.364 96.365 141.929 97.4318Z" fill="#998CCE"/>
<path id="Vector_12" fill-rule="evenodd" clip-rule="evenodd" d="M141.928 97.4333L113.939 94.1403V99.3769L141.928 103.035V97.4333Z" fill="#CFDAEE"/>
<path id="Vector_13" fill-rule="evenodd" clip-rule="evenodd" d="M83.751 111.434L106.319 101.641V96.3323L83.751 105.832V111.434Z" fill="#CFDAEE"/>
<path id="Vector_14" fill-rule="evenodd" clip-rule="evenodd" d="M111.886 101.587L113.94 94.1667V94.1384L114.194 93.258V82.387L109.849 97.5997V101.967L110.998 101.483L111.886 101.587Z" fill="#CFDAEE"/>
<path id="Vector_15" fill-rule="evenodd" clip-rule="evenodd" d="M109.848 97.6021L97.7891 83.653V86.4665L106.318 96.335V99.0804L109.225 102.23L109.848 101.969V97.6021Z" fill="#CFDAEE"/>
<path id="Vector_16" fill-rule="evenodd" clip-rule="evenodd" d="M46.1595 8.96594H133.308C135.85 8.96594 137.929 11.0456 137.929 13.5869V66.0864C137.929 68.6279 135.85 70.7039 133.308 70.7039H46.1595C43.6189 70.7039 41.542 68.6278 41.542 66.0864V13.5869C41.5419 11.0455 43.6189 8.96594 46.1595 8.96594Z" fill="#CFDAEE"/>
<path id="Vector_17" fill-rule="evenodd" clip-rule="evenodd" d="M55.2872 43.7508L72.3935 34.634C72.3693 34.5122 72.3577 34.387 72.3577 34.2546C72.3577 33.145 73.2552 32.2465 74.3657 32.2465C75.4753 32.2465 76.3747 33.1449 76.3747 34.2546C76.3747 34.3227 76.3747 34.387 76.3631 34.4515L83.0745 37.2685C83.4432 36.8318 83.9943 36.5527 84.6102 36.5527C84.85 36.5527 85.0835 36.5956 85.2939 36.6708L93.2259 26.1867C92.9897 25.8574 92.8501 25.4529 92.8501 25.0163C92.8501 23.9067 93.7495 23.0082 94.8582 23.0082C95.9669 23.0082 96.8663 23.9067 96.8663 25.0163C96.8663 25.3491 96.784 25.6606 96.6443 25.9362L104.168 33.3277C104.45 33.1737 104.777 33.0878 105.12 33.0878C105.346 33.0878 105.564 33.1236 105.768 33.1951L113.743 22.2277C113.494 21.8913 113.342 21.4759 113.342 21.0249C113.342 19.9153 114.241 19.0168 115.351 19.0168C116.46 19.0168 117.358 19.9152 117.358 21.0249C117.358 21.1967 117.337 21.365 117.298 21.5225L124.274 25.8033C124.629 25.492 125.091 25.3058 125.599 25.3058C126.708 25.3058 127.607 26.2043 127.607 27.3139C127.607 28.4199 126.708 29.3219 125.599 29.3219C124.49 29.3219 123.59 28.4199 123.59 27.3139C123.59 27.142 123.612 26.9739 123.65 26.8163L116.675 22.5353C116.324 22.8466 115.86 23.0328 115.351 23.0328C115.126 23.0328 114.907 22.997 114.707 22.9289L106.732 33.8928C106.982 34.2292 107.128 34.6444 107.128 35.0956C107.128 36.2052 106.23 37.1036 105.12 37.1036C104.011 37.1036 103.112 36.2053 103.112 35.0956C103.112 34.7627 103.195 34.4513 103.338 34.1757L95.8112 26.7842C95.5275 26.938 95.2045 27.024 94.8581 27.024C94.6182 27.024 94.3892 26.981 94.1735 26.9059L86.2423 37.39C86.4785 37.7192 86.6217 38.1237 86.6217 38.5605C86.6217 39.6701 85.7197 40.5685 84.6102 40.5685C83.5042 40.5685 82.6057 39.6701 82.6057 38.5605C82.6057 38.496 82.6083 38.4316 82.6128 38.3672L75.9014 35.5466C75.5371 35.9869 74.9813 36.2625 74.3657 36.2625C73.8154 36.2625 73.3134 36.0406 72.9519 35.6828L55.8457 44.7959C55.8672 44.9176 55.8815 45.0464 55.8815 45.1754C55.8815 46.2851 54.983 47.1834 53.8734 47.1834C52.7638 47.1834 51.8662 46.2851 51.8662 45.1754C51.8662 44.0658 52.7638 43.1673 53.8734 43.1673C54.4255 43.1673 54.9221 43.3894 55.2872 43.7508Z" fill="white"/>
<path id="Vector_18" fill-rule="evenodd" clip-rule="evenodd" d="M50.5117 53.5593H57.2303V66.3701H50.5117V53.5593ZM122.237 34.7244H128.955V66.3702H122.237V34.7244ZM111.992 29.9529H118.711V66.3701H111.992V29.9529ZM101.745 45.5235H108.463V66.3702H101.745V45.5235ZM91.4964 34.2268H98.2188V66.3701H91.4964V34.2268ZM81.2519 47.2882H87.9706V66.3702H81.2519V47.2882ZM71.004 42.3951H77.7218V66.3702H71.004V42.3951ZM60.757 49.4215H67.4792V66.3702H60.757V49.4215Z" fill="#E9EEF7"/>
<path id="Vector_19" fill-rule="evenodd" clip-rule="evenodd" d="M50.4434 16.0536H79.2893C80.1994 16.0536 80.9438 16.7982 80.9438 17.7074V19.719C80.9438 20.6282 80.1993 21.3728 79.2893 21.3728H50.4434C49.5306 21.3728 48.7861 20.6282 48.7861 19.719V17.7074C48.786 16.7982 49.5305 16.0536 50.4434 16.0536Z" fill="#E9EEF7"/>
<path id="Vector_20" fill-rule="evenodd" clip-rule="evenodd" d="M161.693 5.27869C149.319 5.27869 139.289 14.0697 139.289 24.9154C139.289 35.7611 149.319 44.5522 161.693 44.5522C174.064 44.5522 184.093 35.7611 184.093 24.9154C184.093 14.0697 174.064 5.27869 161.693 5.27869Z" fill="#8CA3CA"/>
<path id="Vector_21" fill-rule="evenodd" clip-rule="evenodd" d="M176.523 18.6799H146.861C144.879 18.6799 143.259 20.3015 143.259 22.2808V27.5498C143.259 29.5292 144.879 31.1507 146.861 31.1507H176.523C178.502 31.1507 180.123 29.5292 180.123 27.5498V22.2808C180.123 20.3015 178.502 18.6799 176.523 18.6799Z" fill="#BECCE7"/>
<path id="Vector_22" fill-rule="evenodd" clip-rule="evenodd" d="M172.976 49.7869H150.407C147.525 49.7869 144.962 52.1529 145.17 55.0236L146.71 76.2604C146.917 79.1311 149.064 81.4971 151.945 81.4971H171.436C174.317 81.4971 176.465 79.1348 176.673 76.2604L178.211 55.0236C178.423 52.1493 175.857 49.7869 172.976 49.7869Z" fill="#8CA3CA"/>
<path id="Vector_23" fill-rule="evenodd" clip-rule="evenodd" d="M157.823 44.2644C159.081 44.4541 160.372 44.5543 161.693 44.5543C163.011 44.5543 164.302 44.4541 165.558 44.2644V49.7875H157.823V44.2644Z" fill="#8CA3CA"/>
<path id="Vector_24" fill-rule="evenodd" clip-rule="evenodd" d="M171.637 22.3995C170.244 22.3995 169.118 23.5271 169.118 24.9159C169.118 26.3083 170.244 27.4357 171.637 27.4357C173.025 27.4357 174.154 26.3082 174.154 24.9159C174.154 23.5271 173.025 22.3995 171.637 22.3995ZM151.747 22.3995C150.357 22.3995 149.23 23.5271 149.23 24.9159C149.23 26.3083 150.357 27.4357 151.747 27.4357C153.138 27.4357 154.267 26.3082 154.267 24.9159C154.267 23.5271 153.138 22.3995 151.747 22.3995Z" fill="white"/>
<path id="Vector_25" fill-rule="evenodd" clip-rule="evenodd" d="M151.606 49.7869H171.776V65.1892C171.776 70.7374 167.242 75.276 161.69 75.276C156.142 75.276 151.606 70.7372 151.606 65.1892V49.7869Z" fill="#BECCE7"/>
<path id="Vector_26" fill-rule="evenodd" clip-rule="evenodd" d="M184.356 18.073H182.694C183.6 20.2027 184.094 22.5079 184.094 24.9169C184.094 26.5921 183.855 28.2207 183.403 29.7706H184.356C186.426 29.7706 188.124 28.0776 188.124 26.0051V21.8387C188.124 19.7661 186.426 18.073 184.356 18.073ZM140.689 18.073H138.391C136.319 18.073 134.622 19.7661 134.622 21.8386V26.005C134.622 28.0775 136.319 29.7705 138.391 29.7705H139.981C139.529 28.2206 139.29 26.5919 139.29 24.9167C139.29 22.508 139.784 20.2027 140.689 18.073Z" fill="#BECCE7"/>
<path id="Vector_27" fill-rule="evenodd" clip-rule="evenodd" d="M178.941 51.6891H177.088C177.859 52.5983 178.305 53.7616 178.211 55.0252L177.757 61.3036H178.941C181.587 61.3036 183.75 59.1417 183.75 56.4963C183.75 53.851 181.588 51.6891 178.941 51.6891ZM146.297 51.6891H144.44C141.795 51.6891 139.633 53.851 139.633 56.4962C139.633 59.1415 141.795 61.3035 144.44 61.3035H145.625L145.17 55.0251C145.077 53.7616 145.521 52.5983 146.297 51.6891Z" fill="#BECCE7"/>
<path id="Vector_28" fill-rule="evenodd" clip-rule="evenodd" d="M182.683 79.9235L188.177 70.4203C188.421 70.9931 188.847 71.4942 189.428 71.8306C190.008 72.1636 190.652 72.2816 191.269 72.2065L185.771 81.7099C186.342 82.3614 186.746 83.1274 186.964 83.9436C187.334 85.3179 187.175 86.8356 186.406 88.1636V88.1671L183.811 86.6637C184.165 86.0514 184.237 85.35 184.068 84.7165C183.897 84.0828 183.484 83.514 182.872 83.1596C182.26 82.8052 181.559 82.73 180.925 82.9018C180.292 83.0701 179.723 83.4815 179.369 84.0937V84.0972L176.773 82.5938C177.543 81.266 178.778 80.3711 180.152 80.006C180.968 79.7876 181.836 79.7518 182.683 79.9235Z" fill="#8CA3CA"/>
<path id="Vector_29" fill-rule="evenodd" clip-rule="evenodd" d="M188.038 68.5078L181.643 60.4683C182.701 59.7452 183.46 58.6106 183.682 57.3005L190.834 66.2849C189.488 66.3243 188.365 67.2549 188.038 68.5078Z" fill="#8CA3CA"/>
<path id="Vector_30" fill-rule="evenodd" clip-rule="evenodd" d="M190.917 72.2333C189.274 72.2333 187.942 70.9016 187.942 69.2587C187.942 67.6157 189.274 66.2842 190.917 66.2842C192.56 66.2842 193.89 67.6157 193.89 69.2587C193.89 70.9016 192.56 72.2333 190.917 72.2333Z" fill="#BECCE7"/>
<path id="Vector_31" fill-rule="evenodd" clip-rule="evenodd" d="M115.03 58.7686L125.694 61.3781C125.214 61.7754 124.852 62.3195 124.691 62.9708C124.534 63.6223 124.602 64.2738 124.845 64.8464L114.182 62.237C113.721 62.9637 113.094 63.5685 112.375 64.0053C111.157 64.7426 109.658 65.0182 108.165 64.6531L108.877 61.7432C109.565 61.9113 110.259 61.7824 110.818 61.4424C111.379 61.1024 111.812 60.5475 111.981 59.8603C112.15 59.173 112.024 58.4787 111.68 57.9167C111.34 57.3584 110.784 56.9253 110.097 56.7571L110.811 53.8435V53.8471C112.304 54.2122 113.506 55.1465 114.243 56.3634C114.682 57.0863 114.959 57.9096 115.03 58.7686Z" fill="#8CA3CA"/>
<path id="Vector_32" fill-rule="evenodd" clip-rule="evenodd" d="M129.052 61.0916L139.633 56.4812V56.4955C139.633 57.7698 140.138 58.9367 140.953 59.7994L130.476 64.3631C130.53 64.1412 130.556 63.9121 130.556 63.6759C130.556 62.5699 129.95 61.6033 129.052 61.0916Z" fill="#8CA3CA"/>
<path id="Vector_33" fill-rule="evenodd" clip-rule="evenodd" d="M127.581 60.701C129.224 60.701 130.557 62.0326 130.557 63.6755C130.557 65.3185 129.224 66.65 127.581 66.65C125.942 66.65 124.61 65.3185 124.61 63.6755C124.61 62.0326 125.942 60.701 127.581 60.701Z" fill="#BECCE7"/>
<path id="Vector_34" fill-rule="evenodd" clip-rule="evenodd" d="M171.508 81.4746H151.875C151.145 81.4746 150.547 82.0689 150.547 82.8027C150.547 83.5329 151.145 84.1305 151.875 84.1305H171.508C172.238 84.1305 172.836 83.5328 172.836 82.8027C172.836 82.0689 172.238 81.4746 171.508 81.4746Z" fill="#BECCE7"/>
<path id="Vector_35" fill-rule="evenodd" clip-rule="evenodd" d="M169.347 84.1301H154.041C153.145 84.1301 152.415 84.2556 152.415 85.4188C152.415 91.7401 170.967 91.8405 170.967 85.4188C170.967 84.2556 170.237 84.1301 169.347 84.1301Z" fill="#8CA3CA"/>
<path id="Vector_36" fill-rule="evenodd" clip-rule="evenodd" d="M145.399 11.4353C149.484 7.6447 155.272 5.27869 161.693 5.27869C166.906 5.27869 171.701 6.83929 175.505 9.45593C172.168 12.8957 166.136 15.1901 159.248 15.1901C153.79 15.19 148.868 13.7475 145.399 11.4353Z" fill="#BECCE7"/>
<path id="Vector_37" fill-rule="evenodd" clip-rule="evenodd" d="M51.5318 137.179C23.1326 137.179 0.109375 140.047 0.109375 143.59C0.109375 147.13 23.1324 150.001 51.5318 150.001C79.9313 150.001 102.954 147.13 102.954 143.59C102.954 140.047 79.9313 137.179 51.5318 137.179Z" fill="#CFDAEE"/>
<path id="Vector_38" fill-rule="evenodd" clip-rule="evenodd" d="M22.3669 94.6831C22.0734 87.5384 21.4471 81.3247 20.6989 76.9901C19.5034 70.0853 18.4297 66.1085 18.4161 66.0692C18.2577 65.4606 15.9847 63.0017 10.9315 63.0768C5.87642 63.1518 6.35699 66.3771 6.35699 66.3771C6.35699 66.4844 6.37028 66.5882 6.39281 66.6634C6.43848 66.8281 11.0809 83.655 10.8805 105.375C10.8805 105.679 10.8447 106.205 10.8626 106.56C10.8626 106.56 22.5782 106.86 22.5827 106.56C22.9898 104.659 22.7894 99.3973 22.3669 94.6831Z" fill="#D1A586"/>
<path id="Vector_39" fill-rule="evenodd" clip-rule="evenodd" d="M23.8387 105.267C23.8307 105.568 23.6767 105.815 23.4799 105.815H23.4727C23.2794 105.808 23.1255 105.565 23.1219 105.267H13.0851C13.0779 105.568 12.9213 105.815 12.7245 105.815H12.72C12.5196 105.808 12.3621 105.557 12.3621 105.253C12.4237 99.0357 12.0685 93.2263 11.5317 88.1042C10.1966 75.3257 7.73118 66.7816 7.6945 66.6634C7.67308 66.5882 7.65868 66.488 7.65868 66.3771C7.65868 66.3771 7.1791 63.152 12.2342 63.0768C17.291 63.0017 19.5648 65.4606 19.7215 66.0692C19.7286 66.1015 20.3407 68.3492 21.1461 72.394C21.4146 73.7362 21.7053 75.2718 22.006 76.9901C22.7532 81.3247 23.3804 87.5384 23.6697 94.6831C24.092 99.3973 24.2423 103.37 23.8343 105.267L23.8387 105.267Z" fill="#E5BD9E"/>
<path id="Vector_40" fill-rule="evenodd" clip-rule="evenodd" d="M23.8383 105.267C23.8303 105.568 23.6763 105.815 23.4795 105.815H23.4723C23.2789 105.807 23.1251 105.564 23.1215 105.267H13.0847C13.0775 105.568 12.9209 105.815 12.7241 105.815H12.7196C12.5192 105.807 12.3617 105.557 12.3617 105.253C12.4233 99.0351 12.0681 93.2257 11.5312 88.1036C13.1922 79.9926 19.6065 73.7895 21.1457 72.3936C21.4142 73.7358 21.7049 75.2714 22.0021 76.9897C22.7493 81.3243 23.3801 87.538 23.6693 94.6827C24.0916 99.3969 24.2419 103.37 23.8339 105.267H23.8383Z" fill="#DFB697"/>
<path id="Vector_41" fill-rule="evenodd" clip-rule="evenodd" d="M15.9631 104.462C14.8427 104.462 14.0518 104.515 13.7725 104.802C13.7652 104.515 13.7511 103.979 13.7259 102.969C13.6901 101.784 13.6329 99.9301 13.5505 97.8396C13.4072 94.1779 13.1567 89.1453 12.7845 85.9451C12.3487 82.226 9.75633 67.1066 9.74205 67.0601C9.72408 67.0064 9.71793 66.9348 9.71793 66.8633C9.71793 66.8489 9.61686 66.1117 10.1645 65.4673C10.7095 64.8265 11.6857 64.49 13.0602 64.4686C13.1175 64.4686 13.1784 64.4686 13.2321 64.4686C16.8079 64.4686 18.4473 66.1795 18.5699 66.6483C18.5977 66.7558 21.4764 78.4354 21.973 85.0467C22.0195 85.6623 22.1242 86.7039 22.2522 88.0246C22.7642 93.1969 23.8272 103.964 22.7642 104.146C20.688 104.512 18.6047 104.487 16.9296 104.469C16.586 104.462 16.2638 104.462 15.9631 104.462ZM13.7188 105.163L13.7474 105.145C13.7591 105.138 13.7618 105.131 13.7653 105.095H13.7726C13.7726 105.006 13.7986 104.938 13.8549 104.88C14.1734 104.555 15.3869 104.569 16.9271 104.587C18.6049 104.605 20.6952 104.63 22.782 104.265C23.8595 104.075 23.1328 95.778 22.3668 88.014C22.2389 86.6933 22.1343 85.6517 22.0885 85.0397C21.5901 78.4714 18.7051 66.713 18.6801 66.6198C18.5512 66.1258 16.8196 64.2967 13.0567 64.354C11.6464 64.3755 10.6404 64.7263 10.0749 65.3956C9.49143 66.0793 9.5952 66.8417 9.60234 66.8739C9.60234 66.9491 9.6096 67.0314 9.62745 67.0958C9.64543 67.1603 12.2441 82.3192 12.6665 85.9595C13.3681 91.9515 13.6481 104.376 13.658 105.066C13.658 105.074 13.658 105.084 13.658 105.092V105.124L13.7188 105.163Z" fill="#D1A586"/>
<path id="Vector_42" fill-rule="evenodd" clip-rule="evenodd" d="M11.6275 105.814H50.98C50.98 105.814 50.0646 102.103 27.2743 102.657C11.1444 103.047 11.6275 105.814 11.6275 105.814Z" fill="#E5BD9E"/>
<path id="Vector_43" fill-rule="evenodd" clip-rule="evenodd" d="M8.4248 144.552C12.9887 121.454 11.8119 107.28 11.8075 107.097C11.7931 106.743 12.4516 106.421 12.8035 106.41C13.1604 106.403 14.7355 106.302 14.918 106.607C15.1578 107.008 16.0743 124.472 9.27688 144.552L8.4248 144.552Z" fill="#D1A586"/>
<path id="Vector_44" fill-rule="evenodd" clip-rule="evenodd" d="M45.1708 144.552C40.6069 121.454 41.7774 107.28 41.7855 107.097C41.7955 106.743 41.1404 106.421 40.7895 106.41C40.4316 106.403 38.8567 106.302 38.6741 106.607C38.4342 107.008 37.5179 124.472 44.319 144.552L45.1708 144.552Z" fill="#D1A586"/>
<path id="Vector_45" fill-rule="evenodd" clip-rule="evenodd" d="M52.4519 144.552C47.888 121.454 49.0621 107.28 49.0692 107.097C49.0799 106.743 48.425 106.421 48.0706 106.41C47.7127 106.403 46.1377 106.302 45.9588 106.607C45.7189 107.008 44.7998 124.472 51.6009 144.552L52.4519 144.552Z" fill="#A0795F"/>
<path id="Vector_46" fill-rule="evenodd" clip-rule="evenodd" d="M15.7549 144.552C20.3187 121.454 19.1456 107.28 19.1383 107.097C19.1266 106.743 19.7817 106.421 20.1334 106.41C20.4905 106.403 22.0653 106.302 22.248 106.607C22.4879 107.008 23.4041 124.472 16.6067 144.552L15.7549 144.552Z" fill="#A0795F"/>
<path id="Vector_47" fill-rule="evenodd" clip-rule="evenodd" d="M51.0053 106.996H11.6492C11.2053 106.996 10.8438 106.635 10.8438 106.191V105.661C10.8438 105.217 11.2054 104.856 11.6492 104.856H51.0053C51.449 104.856 51.8106 105.217 51.8106 105.661V106.191C51.8106 106.635 51.449 106.996 51.0053 106.996Z" fill="#D1A586"/>
<path id="Vector_48" fill-rule="evenodd" clip-rule="evenodd" d="M37.7293 130.546C37.4035 130.922 37.3606 131.341 37.5217 131.788V131.796C37.8223 132.626 38.8139 133.549 39.9664 134.473C40.1131 134.591 40.242 134.702 40.3565 134.802C40.3852 134.828 40.4173 134.853 40.446 134.881C40.4674 134.903 40.4889 134.921 40.5141 134.939C41.5843 135.93 41.1798 136.156 43.1092 138.164C45.3069 140.451 46.8219 140.49 47.2541 140.283C47.6155 140.107 46.8781 138.894 46.0559 137.53C46.0157 137.462 45.9762 137.398 45.9369 137.333C45.826 137.151 45.7186 136.965 45.6112 136.786C44.6492 135.143 44.8953 134.373 45.1244 131.932C45.3105 129.945 48.2135 120.843 48.2135 120.843L43.9978 120.116C43.9978 120.116 42.7298 127.364 41.3338 128.481C40.5856 129.075 39.748 129.083 39.0287 129.527C38.9786 129.555 38.9283 129.587 38.8827 129.62C38.4702 129.892 38.055 130.171 37.7257 130.547L37.7293 130.546Z" fill="#FFB27D"/>
<path id="Vector_49" fill-rule="evenodd" clip-rule="evenodd" d="M37.7293 130.545C37.4035 130.92 37.3606 131.339 37.5217 131.787V131.794C37.8904 132.624 38.8568 133.544 39.97 134.464C40.1131 134.586 40.242 134.693 40.3566 134.8C40.3853 134.826 40.4174 134.851 40.4461 134.879C40.4675 134.901 40.4891 134.918 40.5142 134.936C41.5844 135.928 41.1799 136.154 43.1093 138.162C45.3071 140.449 46.822 140.488 47.2542 140.28C47.6156 140.105 46.8783 138.892 46.056 137.528C45.6292 137.371 43.6426 136.561 42.1392 134.639C40.8148 132.95 39.9307 130.781 39.0287 129.525C38.9786 129.553 38.9283 129.585 38.8827 129.617C38.4702 129.89 38.055 130.169 37.7257 130.545H37.7293Z" fill="#233862"/>
<path id="Vector_50" fill-rule="evenodd" clip-rule="evenodd" d="M71.7018 127.914C71.9596 129.213 73.8146 128.998 75.8852 128.49C77.9551 127.985 77.4647 128.583 80.4106 128.257C83.3566 127.931 84.2505 126.833 84.3408 126.396C84.4196 126.006 82.9628 125.87 81.4022 125.687C81.2052 125.669 81.0074 125.644 80.8115 125.619C79.0478 125.397 77.7556 124.259 76.1538 123.325C74.637 122.44 72.3739 118.832 72.3739 118.832L68.3301 119.154C68.3301 119.154 70.4536 122.372 71.2723 123.776C71.7565 124.599 71.7269 125.687 71.6697 126.528C71.6383 126.986 71.6087 127.452 71.7018 127.914Z" fill="#FFB27D"/>
<path id="Vector_51" fill-rule="evenodd" clip-rule="evenodd" d="M75.8858 128.49C77.9557 127.986 77.4653 128.583 80.4112 128.258C83.3571 127.932 84.2511 126.833 84.3414 126.397C84.4202 126.006 82.9633 125.87 81.4027 125.688L81.3883 125.72C81.3883 125.72 79.6202 126.973 77.1682 127.034C75.1664 127.08 73.0483 126.508 71.6703 126.529C71.6389 126.987 71.6093 127.452 71.7024 127.914C71.96 129.213 73.8151 128.999 75.8858 128.49Z" fill="#233862"/>
<path id="Vector_52" fill-rule="evenodd" clip-rule="evenodd" d="M62.707 68.5417C62.707 68.5417 63.6699 66.1828 64.7304 66.0862C65.789 65.9931 69.1581 65.4597 69.4006 65.9429C69.6404 66.4226 69.4006 68.1586 68.6776 68.785C67.9545 69.4115 63.4766 70.4209 63.4766 70.4209L62.707 68.5417Z" fill="#FFB27D"/>
<path id="Vector_53" fill-rule="evenodd" clip-rule="evenodd" d="M56.2105 102.066L47.4982 125.507C47.4982 125.507 46.1595 125.64 44.8788 125.268C43.6976 124.928 42.3438 124.036 42.3438 124.036C42.3438 124.036 44.5021 101.525 48.4654 96.8433C52.4271 92.1615 56.2105 102.066 56.2105 102.066Z" fill="#233862"/>
<path id="Vector_54" fill-rule="evenodd" clip-rule="evenodd" d="M21.7548 92.5817C21.7548 92.5817 46.7869 84.1163 52.3663 85.9205C57.9503 87.7172 74.7128 121.07 74.7128 121.07C74.7128 121.07 74.3333 121.572 73.3025 121.958C72.3423 122.32 70.0166 122.298 70.0166 122.298C70.0166 122.298 54.8899 109.33 53.0902 105.546C51.2852 101.767 50.5667 98.1655 48.7653 98.5236C46.9649 98.8851 25.5347 107.35 20.6712 102.307C15.8094 97.2635 17.0846 90.7129 17.0846 90.7129L21.7548 92.5817Z" fill="#2B478B"/>
<path id="Vector_55" fill-rule="evenodd" clip-rule="evenodd" d="M37.0501 53.2051C37.4501 52.3819 37.8975 50.9143 38.1158 48.3012C38.081 48.5626 37.6291 51.8558 36.3628 53.7241C31.1575 57.1389 21.1781 68.5537 21.3785 70.7157C21.3785 70.7157 17.8634 64.7559 17.8035 64.7201C17.8035 64.7201 11.321 56.4766 19.0016 51.7517C22.9068 49.3536 22.8861 46.2717 22.7241 43.5979C22.5596 40.9204 23.7909 29.4018 31.6121 32.4156C31.6121 32.4156 32.8684 31.8573 33.4303 31.9396C33.4303 31.9396 32.9722 32.0291 32.7395 32.2689C33.645 32.2152 34.9408 32.2832 36.0219 32.8989C38.8927 34.5275 41.4591 49.1496 37.0501 53.2051Z" fill="#233862"/>
<path id="Vector_56" fill-rule="evenodd" clip-rule="evenodd" d="M36.0543 53.8917C36.0829 53.9024 33.5415 55.2233 31.6301 54.7007C29.8342 54.2104 28.6628 51.8801 28.6879 51.8766C29.4476 51.7262 29.6652 50.6775 29.6508 46.1854L29.9944 46.2534L35.7789 47.3988C35.7789 47.3988 35.6464 49.2171 35.6428 50.9317C35.6356 52.3741 35.7251 53.7378 36.0543 53.8917Z" fill="#FFB27D"/>
<path id="Vector_57" fill-rule="evenodd" clip-rule="evenodd" d="M35.7786 47.3999C35.7786 47.3999 35.6461 49.2183 35.6425 50.9329C32.4067 50.8434 30.6958 47.8903 29.9941 46.2545L35.7786 47.3999Z" fill="#ED975D"/>
<path id="Vector_58" fill-rule="evenodd" clip-rule="evenodd" d="M29.3964 45.6224C29.3964 45.6224 27.6998 42.9415 27.2916 40.6507C27.0016 39.0149 27.8357 32.9478 33.9315 33.8247C33.9315 33.8247 35.6998 33.9965 37.3642 35.1205C38.6849 36.0154 40.5965 37.9447 38.4639 43.235L37.9047 45.0248L29.3964 45.6224Z" fill="#233862"/>
<path id="Vector_59" fill-rule="evenodd" clip-rule="evenodd" d="M36.8597 49.0196C36.8597 49.0196 29.1997 49.1485 29.1962 44.3771C29.1898 39.6057 28.1974 36.4094 33.087 36.1265C37.9765 35.8473 38.9287 37.6657 39.3188 39.2585C39.7052 40.8478 38.8498 48.8657 36.8597 49.0196Z" fill="#FFB27D"/>
<path id="Vector_60" fill-rule="evenodd" clip-rule="evenodd" d="M36.5733 36.0115C36.5733 36.0115 34.4793 41.6062 31.2614 42.4366C28.0434 43.2634 26.6475 42.4008 26.6475 42.4008C26.6475 42.4008 29.1138 40.4393 29.6255 37.0173C29.6255 37.0173 34.9947 33.3485 36.5733 36.0115Z" fill="#233862"/>
<path id="Vector_61" fill-rule="evenodd" clip-rule="evenodd" d="M36.0547 36.4667C36.0547 36.4667 37.6224 37.7159 38.0028 38.9294C38.3893 40.1464 38.5567 42.6448 39.2869 42.5589C39.2869 42.5589 40.8655 38.7575 39.0901 36.6062C37.2081 34.3227 36.0547 36.4667 36.0547 36.4667Z" fill="#233862"/>
<path id="Vector_62" fill-rule="evenodd" clip-rule="evenodd" d="M15.88 92.7136C16.2953 93.8591 17.5588 94.1523 19.259 93.9556C22.4948 93.5797 27.302 91.4035 30.7669 89.9037C36.0502 87.6092 38.452 89.7641 40.1344 88.3073C41.813 86.847 38.2122 83.6073 41.3335 68.5595C42.3938 63.4587 35.6851 52.5165 35.6851 52.5165C35.6851 52.5165 35.1061 55.6842 28.6873 51.8758C28.4592 51.7398 25.931 55.4803 23.498 60.0941C20.8161 65.1806 18.2461 71.3265 19.0013 74.4942C20.4402 80.5328 14.6782 89.3811 15.88 92.7136Z" fill="#F99746"/>
<path id="Vector_63" fill-rule="evenodd" clip-rule="evenodd" d="M35.6855 52.5167L39.6409 68.7494C39.6409 68.7494 40.1349 69.6264 40.9052 70.8756C42.7191 73.8035 46.0696 78.7791 48.2171 79.2874C49.2766 79.5343 51.528 78.6536 54.0194 77.3938C58.7335 75.0135 64.3067 71.2836 64.3067 71.2836C64.6647 69.1216 62.7863 67.3606 62.7863 67.3606C62.7863 67.3606 51.4995 71.6023 50.3791 71.681C47.9351 71.8564 45.45 60.0621 43.1665 56.1319C41.5139 53.2935 35.6855 52.5167 35.6855 52.5167Z" fill="#F99746"/>
<path id="Vector_64" fill-rule="evenodd" clip-rule="evenodd" d="M15.88 92.715C16.2953 93.8606 17.5588 94.1538 19.259 93.9571C21.4961 92.9798 31.1785 89.2322 31.0676 86.691C30.9065 82.9288 29.2063 82.8072 30.4099 78.1681C31.3718 74.4385 22.4304 67.5088 21.0021 66.0017C18.3211 71.0881 18.246 71.328 19.0012 74.4958C20.4402 80.5342 14.6782 89.3826 15.88 92.715Z" fill="#ED7D2B"/>
<path id="Vector_65" fill-rule="evenodd" clip-rule="evenodd" d="M40.9053 70.876C42.7192 73.804 46.0697 78.7796 48.2172 79.2879C49.2767 79.5348 51.5281 78.6541 54.0195 77.3943C52.2011 77.8633 50.4364 77.8525 48.7183 77.6842C46.857 77.5051 46.3166 75.225 43.3741 71.8032C41.4665 69.5838 40.9975 70.1423 40.9053 70.876Z" fill="#BD251D"/>
<path id="Vector_66" fill-rule="evenodd" clip-rule="evenodd" d="M31.9391 78.0742C31.9391 78.0742 33.5596 76.8144 35.0916 77.115C36.6236 77.4156 37.3717 78.4681 37.3109 78.9476C37.2536 79.4272 36.4411 80.7767 35.2706 80.8984C34.1002 81.0165 30.7676 80.1755 30.7676 80.1755L31.9391 78.0742Z" fill="#FFB27D"/>
<path id="Vector_67" fill-rule="evenodd" clip-rule="evenodd" d="M28.6876 51.8754C28.6876 51.8754 22.4414 52.2583 20.2839 55.2722C17.2405 59.5138 11.9572 76.8346 13.3998 80.797L32.3897 80.7149C32.3897 80.7149 32.8514 78.5671 32.2099 77.5255C31.569 76.4839 21.1646 74.8015 20.684 74.322C20.2007 73.8424 26.6868 64.9581 26.6868 63.5156C26.6868 62.0768 28.6876 51.8754 28.6876 51.8754Z" fill="#F99746"/>
<path id="Vector_68" fill-rule="evenodd" clip-rule="evenodd" d="M33.5713 85.1712H56.5586L60.7027 70.7174H37.7476L33.5713 85.1712Z" fill="#699DEE"/>
<path id="Vector_69" d="M56.4824 84.6083H26.4258V85.1701H56.4824V84.6083Z" fill="#22407A"/>
<path id="Vector_70" fill-rule="evenodd" clip-rule="evenodd" d="M49.2585 77.7059C49.4052 77.2012 49.1082 76.786 48.5999 76.786C48.0952 76.786 47.5654 77.2012 47.4187 77.7059C47.2719 78.2142 47.5653 78.6296 48.0737 78.6296C48.5829 78.6295 49.1119 78.214 49.2585 77.7059Z" fill="#22407A"/>
<path id="Vector_71" fill-rule="evenodd" clip-rule="evenodd" d="M80.8008 88.238L82.3794 97.1795L86.7391 121.888L90.6372 143.973C90.6953 144.306 90.996 144.553 91.3432 144.553C91.651 144.553 91.8855 144.292 91.847 143.995L88.4858 118.957L84.8921 92.1756L84.348 88.1344L80.8008 88.238Z" fill="#C69D7F"/>
<path id="Vector_72" fill-rule="evenodd" clip-rule="evenodd" d="M63.5449 88.238L65.127 97.1795L69.4868 121.888L73.3812 143.973C73.442 144.306 73.74 144.553 74.0873 144.553C74.395 144.553 74.6339 144.292 74.591 143.995L71.2298 118.957L67.636 92.1756L67.0919 88.1344L63.5449 88.238Z" fill="#C69D7F"/>
<path id="Vector_73" fill-rule="evenodd" clip-rule="evenodd" d="M82.3792 97.1792C82.1716 93.3385 84.892 92.1752 84.892 92.1752L84.3479 88.1376L80.8008 88.2378L82.3792 97.1792Z" fill="#A0795F"/>
<path id="Vector_74" fill-rule="evenodd" clip-rule="evenodd" d="M23.8773 147.216C24.228 147.216 24.5262 146.972 24.5824 146.636L28.0475 127.014L33.0265 98.7898L34.4197 90.897L30.8717 90.8004L30.256 95.3785L25.9366 127.575L23.3728 146.657C23.337 146.954 23.5703 147.216 23.8773 147.216Z" fill="#C69D7F"/>
<path id="Vector_75" fill-rule="evenodd" clip-rule="evenodd" d="M24.3886 91.3364H90.8661C91.4747 91.3364 91.9687 89.9546 91.9687 88.2689V88.2043C91.9687 86.5185 91.4747 85.1367 90.8661 85.1367H24.3886C23.7836 85.1367 23.2861 86.5185 23.2861 88.2043V88.2689C23.2861 89.9546 23.7836 91.3364 24.3886 91.3364Z" fill="#E0B594"/>
<path id="Vector_76" fill-rule="evenodd" clip-rule="evenodd" d="M61.1496 82.5057C61.3 82.8994 61.9873 83.1106 62.3246 83.193C62.1913 82.8815 62.1053 82.545 62.0802 82.1908C61.8727 81.9043 61.5434 81.7396 61.3 81.7826C61.0852 81.822 60.9562 82.008 61.1496 82.5057ZM60.832 81.4069C61.1138 81.2314 61.6731 81.2994 62.0731 81.3852V80.8018C62.0731 80.673 62.0838 80.544 62.1018 80.4188H68.1475C68.1618 80.544 68.1726 80.673 68.1726 80.8018V81.9867C68.1726 83.6655 66.8017 85.0363 65.1228 85.0363C64.2172 85.0363 63.3985 84.6352 62.8357 83.9983C62.8357 83.9983 61.4002 83.6437 60.9502 83.107C60.4983 82.57 60.348 81.7039 60.8276 81.4069H60.832Z" fill="#AABCDD"/>
<path id="Vector_77" fill-rule="evenodd" clip-rule="evenodd" d="M67.6796 80.8018V81.9867C67.6796 83.6618 66.305 85.0363 64.6297 85.0363C64.4902 85.0363 64.3541 85.0255 64.2217 85.0077C65.7036 84.8072 66.8562 83.5258 66.8562 81.9867V80.8018C66.8562 80.673 66.8489 80.544 66.8356 80.4188H67.6545C67.6687 80.544 67.6796 80.673 67.6796 80.8018Z" fill="#E9EEF7"/>
<path id="Vector_78" d="M66.3685 84.7715H63.8809V85.1436H66.3685V84.7715Z" fill="#8CA3CA"/>
<path id="Vector_79" fill-rule="evenodd" clip-rule="evenodd" d="M163.201 142.852C172.367 142.852 179.802 144.452 179.802 146.427C179.802 148.4 172.367 150 163.201 150C154.029 150 146.598 148.4 146.598 146.427C146.598 144.452 154.03 142.852 163.201 142.852Z" fill="#CFDAEE"/>
<path id="Vector_80" fill-rule="evenodd" clip-rule="evenodd" d="M166.933 125.335C166.933 125.335 163.329 121.126 166.715 118.455C166.715 118.455 169.181 116.959 171.196 117.081C171.196 117.081 168.343 121.867 169.268 122.343C170.189 122.818 172.062 116.78 172.062 116.78C172.062 116.78 177.686 116.236 179.497 117.106C179.497 117.106 174.686 121.04 175.703 121.272C176.709 121.509 181.907 117.646 181.907 117.646C181.907 117.646 187.14 118.537 186.86 121.731C186.581 124.923 184.777 125.908 183.982 125.822C183.194 125.739 178.555 123.968 178.455 124.619C178.356 125.267 181.145 127.39 183.097 127.49C183.097 127.49 179.407 131.556 176.959 130.382C174.504 129.208 174.296 127.347 172.768 126.649C171.239 125.951 169.932 125.954 170.567 126.667C171.196 127.375 173.964 128.07 174.836 129.616C175.71 131.159 176.497 132.204 173.956 131.821C171.422 131.442 167.298 129.584 167.112 127.458C166.933 125.335 166.933 125.335 166.933 125.335Z" fill="#AABCDD"/>
<path id="Vector_81" fill-rule="evenodd" clip-rule="evenodd" d="M184.29 121.815C184.29 121.815 170.077 121.267 166.933 125.333C166.933 125.333 166.239 127.409 164.105 129.303L163.773 130.212C163.773 130.212 166.232 127.614 167.112 127.456C167.112 127.456 165.738 122.42 184.29 121.815Z" fill="#AABCDD"/>
<path id="Vector_82" fill-rule="evenodd" clip-rule="evenodd" d="M164.105 129.305C164.105 129.305 161.056 131.559 160.841 135.594L161.392 135.643C161.392 135.643 162.369 131.474 164.13 129.845C165.892 128.213 164.105 129.305 164.105 129.305Z" fill="#AABCDD"/>
<path id="Vector_83" fill-rule="evenodd" clip-rule="evenodd" d="M154.33 120.043C154.33 120.043 160.069 116.833 157.391 112.473C157.391 112.473 155.246 109.795 152.952 109.108C152.952 109.108 154.18 115.609 152.952 115.759C151.731 115.912 152.111 108.421 152.111 108.421C152.111 108.421 146.069 105.514 143.698 105.744C143.698 105.744 147.447 112.09 146.226 111.936C145.002 111.786 140.796 105.361 140.796 105.361C140.796 105.361 134.604 104.215 133.609 107.884C132.618 111.557 134.222 113.389 135.137 113.618C136.054 113.847 141.945 113.772 141.791 114.538C141.636 115.301 137.66 116.525 135.446 115.838C135.446 115.838 137.889 121.876 141.099 121.572C144.315 121.264 145.306 119.278 147.296 119.124C149.283 118.973 150.736 119.506 149.745 120.044C148.75 120.577 145.385 120.219 143.778 121.583C142.173 122.95 140.871 123.791 143.857 124.4C146.838 125.012 152.19 124.632 153.26 122.338C154.33 120.044 154.33 120.043 154.33 120.043Z" fill="#CFDAEE"/>
<path id="Vector_84" fill-rule="evenodd" clip-rule="evenodd" d="M136.439 109.029C136.439 109.029 152.498 114.23 154.33 120.043C154.33 120.043 154.255 122.642 155.859 125.624V126.769C155.859 126.769 154.18 122.871 153.26 122.338C153.26 122.338 156.854 117.291 136.439 109.029Z" fill="#AABCDD"/>
<path id="Vector_85" fill-rule="evenodd" clip-rule="evenodd" d="M155.858 125.623C155.858 125.623 158.339 129.381 156.925 133.96L156.289 133.788C156.289 133.788 156.906 128.748 155.607 126.214C154.316 123.676 155.858 125.623 155.858 125.623Z" fill="#AABCDD"/>
<path id="Vector_86" fill-rule="evenodd" clip-rule="evenodd" d="M163.454 115.612C163.454 115.612 155.894 111.381 159.421 105.636C159.421 105.636 162.245 102.107 165.266 101.201C165.266 101.201 163.658 109.767 165.266 109.967C166.88 110.171 166.377 100.292 166.377 100.292C166.377 100.292 174.339 96.462 177.468 96.7663C177.468 96.7663 172.524 105.131 174.138 104.927C175.749 104.727 181.295 96.2615 181.295 96.2615C181.295 96.2615 189.459 94.7512 190.77 99.5868C192.074 104.426 189.964 106.846 188.754 107.147C187.544 107.451 179.784 107.347 179.984 108.356C180.184 109.366 185.425 110.977 188.349 110.071C188.349 110.071 185.124 118.032 180.893 117.627C176.659 117.226 175.349 114.606 172.728 114.406C170.105 114.202 168.19 114.907 169.502 115.612C170.81 116.317 175.245 115.845 177.365 117.645C179.479 119.442 181.194 120.552 177.26 121.357C173.33 122.166 166.275 121.661 164.864 118.637C163.454 115.612 163.454 115.612 163.454 115.612Z" fill="#CFDAEE"/>
<path id="Vector_87" fill-rule="evenodd" clip-rule="evenodd" d="M187.039 101.101C187.039 101.101 165.875 107.952 163.454 115.612C163.454 115.612 163.554 119.042 161.436 122.972V124.482C161.436 124.482 163.658 119.342 164.865 118.637C164.865 118.637 160.129 111.986 187.039 101.101Z" fill="#AABCDD"/>
<path id="Vector_88" fill-rule="evenodd" clip-rule="evenodd" d="M161.436 122.973C161.436 122.973 158.175 127.931 160.036 133.962L160.877 133.736C160.877 133.736 160.057 127.093 161.768 123.75C163.472 120.407 161.436 122.973 161.436 122.973Z" fill="#AABCDD"/>
<path id="Vector_89" fill-rule="evenodd" clip-rule="evenodd" d="M168.258 146.161C173.946 144.092 178.01 138.641 178.01 132.241H148.389C148.389 138.641 152.451 144.092 158.139 146.161H168.258Z" fill="#AABCDD"/>
<path id="Vector_90" fill-rule="evenodd" clip-rule="evenodd" d="M159.942 146.161C154.254 144.092 150.195 138.641 150.195 132.241H153.875C153.875 138.641 157.937 144.096 163.623 146.161H159.942Z" fill="#BECCE7"/>
<path id="Vector_91" d="M178.345 132.241H147.905V132.695H178.345V132.241Z" fill="#AABCDD"/>
</g>
</svg>
