<svg width="1334" height="800" viewBox="0 0 1334 800" fill="none" xmlns="http://www.w3.org/2000/svg">
<g style="mix-blend-mode:soft-light">
<path d="M122.196 0V799.926" stroke="white"/>
<path d="M182.737 0V799.926" stroke="white"/>
<path d="M243.278 0V799.926" stroke="white"/>
<path d="M303.818 0V799.926" stroke="white"/>
<path d="M364.359 0V799.926" stroke="white"/>
<path d="M424.899 0V799.926" stroke="white"/>
<path d="M485.44 0V799.926" stroke="white"/>
<path d="M545.978 0V799.926" stroke="white"/>
<path d="M606.521 0V799.926" stroke="white"/>
<path d="M667.062 0V799.926" stroke="white"/>
<path d="M727.6 0V799.926" stroke="white"/>
<path d="M788.14 0V799.926" stroke="white"/>
<path d="M848.681 0V799.926" stroke="white"/>
<path d="M909.222 0V799.926" stroke="white"/>
<path d="M969.766 0V799.926" stroke="white"/>
<path d="M1030.31 0V799.926" stroke="white"/>
<path d="M1090.85 0V799.926" stroke="white"/>
<path d="M1151.39 0V799.926" stroke="white"/>
<path d="M1211.93 0V799.926" stroke="white"/>
<path d="M1272.47 0V799.926" stroke="white"/>
<path d="M1333.01 0V799.926" stroke="white"/>
</g>
</svg>
