<svg width="858" height="567" viewBox="0 0 858 567" fill="none" xmlns="http://www.w3.org/2000/svg">
<path opacity="0.9" d="M812.126 339.461C820.671 282.464 813.27 224.782 777.668 175.561C736.862 119.227 672.226 79.4165 603.517 68.1221C591.276 66.0965 578.894 65.0311 566.486 64.9359C536.869 64.7348 507.423 69.4191 479.336 78.7998C431.917 94.7878 391.156 122.641 354.297 155.885C337.926 170.639 321.944 189.574 300.266 196.426C277.763 203.598 253.556 194.37 231.626 188.729C190.522 178.154 130.187 155.314 89.2319 177.012C35.4639 205.562 19.4479 268.372 40.0399 317.478C60.6319 366.584 123.552 370.01 130.416 407.696C137.28 445.382 170.456 501.34 242.528 495.63C314.6 489.92 342.056 428.252 387.816 446.524C403.912 452.953 416.553 464.796 430.247 474.971C449.317 489.177 470.001 498.85 493.476 503.304C527.041 509.676 563.694 506.307 597.58 504.686C636.476 502.813 678.323 504.24 716.087 490.673C756.63 476.09 782.233 444.137 795.972 404.076C803.3 383.068 808.706 361.442 812.126 339.461Z" fill="url(#paint0_linear_5375_41264)"/>
<path opacity="0.59" d="M812.126 339.461C820.671 282.464 813.27 224.782 777.668 175.561C736.862 119.227 672.226 79.4165 603.517 68.1221C591.276 66.0965 578.894 65.0311 566.486 64.9359C536.869 64.7348 507.423 69.4191 479.336 78.7998C431.917 94.7878 391.156 122.641 354.297 155.885C337.926 170.639 321.944 189.574 300.266 196.426C277.763 203.598 253.556 194.37 231.626 188.729C190.522 178.154 130.187 155.314 89.2319 177.012C35.4639 205.562 19.4479 268.372 40.0399 317.478C60.6319 366.584 123.552 370.01 130.416 407.696C137.28 445.382 170.456 501.34 242.528 495.63C314.6 489.92 342.056 428.252 387.816 446.524C403.912 452.953 416.553 464.796 430.247 474.971C449.317 489.177 470.001 498.85 493.476 503.304C527.041 509.676 563.694 506.307 597.58 504.686C636.476 502.813 678.323 504.24 716.087 490.673C756.63 476.09 782.233 444.137 795.972 404.076C803.3 383.068 808.706 361.442 812.126 339.461Z" fill="white"/>
<path d="M519.376 452.234H717.86C721.653 452.234 725.29 450.73 727.972 448.053C730.653 445.375 732.16 441.745 732.16 437.959V71.3766C732.16 67.5906 730.653 63.9597 727.972 61.2826C725.29 58.6055 721.653 57.1016 717.86 57.1016H143.572C139.779 57.1016 136.142 58.6055 133.46 61.2826C130.779 63.9597 129.272 67.5906 129.272 71.3766V437.959C129.272 441.745 130.779 445.375 133.46 448.053C136.142 450.73 139.779 452.234 143.572 452.234H342.056" stroke="black" stroke-linecap="round" stroke-linejoin="round"/>
<path d="M718.432 73.0898H141.856V409.98H718.432V73.0898Z" stroke="black" stroke-linecap="round" stroke-linejoin="round"/>
<path d="M519.376 452.234H342.056V492.147H519.376V452.234Z" stroke="black" stroke-linecap="round" stroke-linejoin="round"/>
<path d="M519.376 492.145H550.264V507.379H311.168V492.145H342.056" stroke="black" stroke-linecap="round" stroke-linejoin="round"/>
<path d="M228.079 179.866H183.177V120.105H218.458L228.079 129.493V179.866Z" fill="white" stroke="#263238" stroke-linecap="round" stroke-linejoin="round"/>
<path d="M219.671 128.512V130.956L228.079 129.505L219.671 128.512Z" fill="#263238" stroke="#263238" stroke-linecap="round" stroke-linejoin="round"/>
<path d="M218.458 120.105V129.504H228.079L218.458 120.105Z" fill="white" stroke="#263238" stroke-linecap="round" stroke-linejoin="round"/>
<path d="M188.886 133.09H223.446" stroke="#263238" stroke-linecap="round" stroke-linejoin="round"/>
<path d="M188.886 141.633H223.446" stroke="#263238" stroke-linecap="round" stroke-linejoin="round"/>
<path d="M188.886 150.164H223.446" stroke="#263238" stroke-linecap="round" stroke-linejoin="round"/>
<path d="M188.886 158.703H223.446" stroke="#263238" stroke-linecap="round" stroke-linejoin="round"/>
<path d="M188.886 167.234H223.446" stroke="#263238" stroke-linecap="round" stroke-linejoin="round"/>
<path d="M101.278 252.086H117.363" stroke="#263238" stroke-linecap="round" stroke-linejoin="round"/>
<path d="M83.5005 252.086H98.3725" stroke="#263238" stroke-linecap="round" stroke-linejoin="round"/>
<path d="M111.14 257.156H117.363" stroke="#263238" stroke-linecap="round" stroke-linejoin="round"/>
<path d="M83.5005 257.156H108.234" stroke="#263238" stroke-linecap="round" stroke-linejoin="round"/>
<path d="M114.915 262.227H117.363" stroke="#263238" stroke-linecap="round" stroke-linejoin="round"/>
<path d="M101.564 262.227H110.854" stroke="#263238" stroke-linecap="round" stroke-linejoin="round"/>
<path d="M83.5005 262.227H98.9559" stroke="#263238" stroke-linecap="round" stroke-linejoin="round"/>
<path d="M83.5005 267.297H117.363" stroke="#263238" stroke-linecap="round" stroke-linejoin="round"/>
<path d="M111.723 272.367H117.363" stroke="#263238" stroke-linecap="round" stroke-linejoin="round"/>
<path d="M92.2866 272.367H105.923" stroke="#263238" stroke-linecap="round" stroke-linejoin="round"/>
<path d="M83.5005 272.367H88.2252" stroke="#263238" stroke-linecap="round" stroke-linejoin="round"/>
<path d="M98.9561 277.438H117.363" stroke="#263238" stroke-linecap="round" stroke-linejoin="round"/>
<path d="M83.5005 277.438H95.7642" stroke="#263238" stroke-linecap="round" stroke-linejoin="round"/>
<path d="M108.234 282.508H117.363" stroke="#263238" stroke-linecap="round" stroke-linejoin="round"/>
<path d="M99.2422 282.508H105.626" stroke="#263238" stroke-linecap="round" stroke-linejoin="round"/>
<path d="M83.5005 282.508H95.7642" stroke="#263238" stroke-linecap="round" stroke-linejoin="round"/>
<path d="M204.387 320.242H167.355V270.953H196.447L204.387 278.684V320.242Z" fill="#5388FF" stroke="#263238" stroke-linecap="round" stroke-linejoin="round"/>
<path d="M197.443 277.883V279.893L204.387 278.694L197.443 277.883Z" fill="#263238" stroke="#263238" stroke-linecap="round" stroke-linejoin="round"/>
<path d="M196.448 270.953V278.696H204.387L196.448 270.953Z" fill="white" stroke="#263238" stroke-linecap="round" stroke-linejoin="round"/>
<path d="M172.058 281.652H200.566" stroke="#263238" stroke-linecap="round" stroke-linejoin="round"/>
<path d="M172.058 288.699H200.566" stroke="#263238" stroke-linecap="round" stroke-linejoin="round"/>
<path d="M172.058 295.746H200.566" stroke="#263238" stroke-linecap="round" stroke-linejoin="round"/>
<path d="M172.058 302.781H200.566" stroke="#263238" stroke-linecap="round" stroke-linejoin="round"/>
<path d="M172.058 309.828H200.566" stroke="#263238" stroke-linecap="round" stroke-linejoin="round"/>
<path d="M165.457 185.394H120.555V125.633H155.836L165.457 135.009V185.394Z" fill="#5388FF" stroke="#263238" stroke-linecap="round" stroke-linejoin="round"/>
<path d="M157.037 134.039V136.483L165.456 135.021L157.037 134.039Z" fill="#263238" stroke="#263238" stroke-linecap="round" stroke-linejoin="round"/>
<path d="M155.835 125.633V135.02H165.456L155.835 125.633Z" fill="white" stroke="#263238" stroke-linecap="round" stroke-linejoin="round"/>
<path d="M126.252 138.617H160.824" stroke="#263238" stroke-linecap="round" stroke-linejoin="round"/>
<path d="M126.252 147.148H160.824" stroke="#263238" stroke-linecap="round" stroke-linejoin="round"/>
<path d="M126.252 155.691H160.824" stroke="#263238" stroke-linecap="round" stroke-linejoin="round"/>
<path d="M126.252 164.23H160.824" stroke="#263238" stroke-linecap="round" stroke-linejoin="round"/>
<path d="M126.252 172.762H160.824" stroke="#263238" stroke-linecap="round" stroke-linejoin="round"/>
<path d="M261.621 212.733H216.719V152.961H252L261.621 162.348V212.733Z" fill="#5388FF" stroke="#263238" stroke-linecap="round" stroke-linejoin="round"/>
<path d="M253.213 161.367V163.822L261.621 162.361L253.213 161.367Z" fill="#263238" stroke="#263238" stroke-linecap="round" stroke-linejoin="round"/>
<path d="M252 152.961V162.36H261.621L252 152.961Z" fill="white" stroke="#263238" stroke-linecap="round" stroke-linejoin="round"/>
<path d="M222.428 165.957H256.988" stroke="#263238" stroke-linecap="round" stroke-linejoin="round"/>
<path d="M222.428 174.488H256.988" stroke="#263238" stroke-linecap="round" stroke-linejoin="round"/>
<path d="M222.428 183.031H256.988" stroke="#263238" stroke-linecap="round" stroke-linejoin="round"/>
<path d="M222.428 191.559H256.988" stroke="#263238" stroke-linecap="round" stroke-linejoin="round"/>
<path d="M222.428 200.102H256.988" stroke="#263238" stroke-linecap="round" stroke-linejoin="round"/>
<path d="M321.864 278.968H276.962V219.195H312.243L321.864 228.583V278.968Z" fill="white" stroke="#263238" stroke-linecap="round" stroke-linejoin="round"/>
<path d="M313.444 227.602V230.057L321.864 228.595L313.444 227.602Z" fill="#263238" stroke="#263238" stroke-linecap="round" stroke-linejoin="round"/>
<path d="M312.243 219.195V228.594H321.864L312.243 219.195Z" fill="white" stroke="#263238" stroke-linecap="round" stroke-linejoin="round"/>
<path d="M282.659 232.191H317.231" stroke="#263238" stroke-linecap="round" stroke-linejoin="round"/>
<path d="M282.659 240.723H317.231" stroke="#263238" stroke-linecap="round" stroke-linejoin="round"/>
<path d="M282.659 249.266H317.231" stroke="#263238" stroke-linecap="round" stroke-linejoin="round"/>
<path d="M282.659 257.797H317.231" stroke="#263238" stroke-linecap="round" stroke-linejoin="round"/>
<path d="M282.659 266.34H317.231" stroke="#263238" stroke-linecap="round" stroke-linejoin="round"/>
<path d="M196.562 169.977H147.153C141.713 169.977 137.303 174.379 137.303 179.809V238.439C137.303 243.87 141.713 248.272 147.153 248.272H196.562C202.002 248.272 206.412 243.87 206.412 238.439V179.809C206.412 174.379 202.002 169.977 196.562 169.977Z" fill="white" stroke="#263238" stroke-linecap="round" stroke-linejoin="round"/>
<path d="M198.724 169.977H144.956C142.92 169.977 140.968 170.784 139.528 172.221C138.089 173.658 137.28 175.607 137.28 177.639V179.295H206.377V177.651C206.38 175.62 205.576 173.672 204.141 172.233C202.706 170.794 200.758 169.983 198.724 169.977Z" fill="#263238" stroke="#263238" stroke-linecap="round" stroke-linejoin="round"/>
<path d="M147.164 192.977H196.528" stroke="#263238" stroke-linecap="round" stroke-linejoin="round"/>
<path d="M147.164 205.012H196.528" stroke="#263238" stroke-linecap="round" stroke-linejoin="round"/>
<path d="M147.164 217.062H196.528" stroke="#263238" stroke-linecap="round" stroke-linejoin="round"/>
<path d="M147.164 229.109H196.528" stroke="#263238" stroke-linecap="round" stroke-linejoin="round"/>
<path d="M188.76 174.361C188.76 173.927 188.631 173.503 188.39 173.142C188.149 172.782 187.806 172.501 187.404 172.335C187.003 172.169 186.561 172.125 186.135 172.21C185.709 172.295 185.318 172.504 185.011 172.81C184.703 173.117 184.494 173.508 184.409 173.933C184.325 174.358 184.368 174.799 184.534 175.2C184.701 175.6 184.982 175.943 185.343 176.184C185.705 176.425 186.129 176.553 186.564 176.553C187.146 176.553 187.705 176.322 188.117 175.911C188.529 175.5 188.76 174.942 188.76 174.361Z" fill="white"/>
<path d="M196.036 174.361C196.036 173.927 195.907 173.503 195.665 173.142C195.424 172.782 195.081 172.501 194.68 172.335C194.278 172.169 193.837 172.125 193.411 172.21C192.984 172.295 192.593 172.504 192.286 172.81C191.979 173.117 191.77 173.508 191.685 173.933C191.6 174.358 191.644 174.799 191.81 175.2C191.976 175.6 192.258 175.943 192.619 176.184C192.98 176.425 193.405 176.553 193.839 176.553C194.422 176.553 194.98 176.322 195.392 175.911C195.804 175.5 196.036 174.942 196.036 174.361Z" fill="white"/>
<path d="M203.254 174.361C203.254 173.926 203.125 173.502 202.883 173.141C202.641 172.78 202.298 172.499 201.896 172.334C201.494 172.168 201.051 172.125 200.625 172.211C200.199 172.296 199.807 172.506 199.501 172.814C199.194 173.122 198.986 173.514 198.902 173.94C198.819 174.366 198.864 174.807 199.032 175.208C199.2 175.608 199.483 175.95 199.846 176.189C200.209 176.429 200.634 176.555 201.069 176.553C201.357 176.553 201.642 176.496 201.908 176.386C202.174 176.276 202.415 176.114 202.618 175.91C202.821 175.707 202.982 175.465 203.091 175.199C203.2 174.933 203.256 174.648 203.254 174.361Z" fill="white"/>
<path d="M149.2 234.09H120.978C115.538 234.09 111.128 238.492 111.128 243.922V278.548C111.128 283.978 115.538 288.381 120.978 288.381H149.2C154.64 288.381 159.05 283.978 159.05 278.548V243.922C159.05 238.492 154.64 234.09 149.2 234.09Z" fill="white" stroke="#263238" stroke-linecap="round" stroke-linejoin="round"/>
<path d="M153.719 234.109H116.448C115.037 234.109 113.684 234.669 112.686 235.665C111.688 236.661 111.128 238.011 111.128 239.42V240.562H159.016V239.42C159.016 238.015 158.458 236.668 157.466 235.673C156.473 234.678 155.126 234.115 153.719 234.109Z" fill="#263238" stroke="#263238" stroke-linecap="round" stroke-linejoin="round"/>
<path d="M117.969 250.031H152.198" stroke="#263238" stroke-linecap="round" stroke-linejoin="round"/>
<path d="M117.969 258.379H152.198" stroke="#263238" stroke-linecap="round" stroke-linejoin="round"/>
<path d="M117.969 266.738H152.198" stroke="#263238" stroke-linecap="round" stroke-linejoin="round"/>
<path d="M117.969 275.086H152.198" stroke="#263238" stroke-linecap="round" stroke-linejoin="round"/>
<path d="M145.322 238.635C146.163 238.635 146.844 237.955 146.844 237.117C146.844 236.278 146.163 235.598 145.322 235.598C144.482 235.598 143.801 236.278 143.801 237.117C143.801 237.955 144.482 238.635 145.322 238.635Z" fill="white"/>
<path d="M150.333 238.635C151.173 238.635 151.855 237.955 151.855 237.117C151.855 236.278 151.173 235.598 150.333 235.598C149.493 235.598 148.812 236.278 148.812 237.117C148.812 237.955 149.493 238.635 150.333 238.635Z" fill="white"/>
<path d="M156.865 237.117C156.865 236.816 156.776 236.522 156.609 236.273C156.442 236.023 156.204 235.828 155.926 235.713C155.648 235.598 155.342 235.568 155.047 235.627C154.752 235.685 154.481 235.83 154.268 236.043C154.055 236.255 153.91 236.526 153.852 236.82C153.793 237.115 153.823 237.42 153.938 237.698C154.053 237.975 154.248 238.213 154.498 238.379C154.749 238.546 155.043 238.635 155.344 238.635C155.544 238.635 155.741 238.596 155.926 238.52C156.111 238.443 156.278 238.332 156.42 238.191C156.561 238.049 156.673 237.882 156.749 237.698C156.826 237.513 156.865 237.316 156.865 237.117Z" fill="white"/>
<path d="M134.832 304.723H150.916" stroke="#263238" stroke-linecap="round" stroke-linejoin="round"/>
<path d="M117.042 304.723H131.926" stroke="#263238" stroke-linecap="round" stroke-linejoin="round"/>
<path d="M144.693 309.793H150.916" stroke="#263238" stroke-linecap="round" stroke-linejoin="round"/>
<path d="M117.042 309.793H141.787" stroke="#263238" stroke-linecap="round" stroke-linejoin="round"/>
<path d="M148.457 314.863H150.917" stroke="#263238" stroke-linecap="round" stroke-linejoin="round"/>
<path d="M135.118 314.863H144.396" stroke="#263238" stroke-linecap="round" stroke-linejoin="round"/>
<path d="M117.042 314.863H132.509" stroke="#263238" stroke-linecap="round" stroke-linejoin="round"/>
<path d="M117.042 319.934H150.916" stroke="#263238" stroke-linecap="round" stroke-linejoin="round"/>
<path d="M145.276 325.004H150.916" stroke="#263238" stroke-linecap="round" stroke-linejoin="round"/>
<path d="M125.84 325.004H139.465" stroke="#263238" stroke-linecap="round" stroke-linejoin="round"/>
<path d="M117.042 325.004H121.779" stroke="#263238" stroke-linecap="round" stroke-linejoin="round"/>
<path d="M132.509 330.074H150.916" stroke="#263238" stroke-linecap="round" stroke-linejoin="round"/>
<path d="M117.042 330.074H129.318" stroke="#263238" stroke-linecap="round" stroke-linejoin="round"/>
<path d="M141.787 335.145H150.916" stroke="#263238" stroke-linecap="round" stroke-linejoin="round"/>
<path d="M132.795 335.145H139.179" stroke="#263238" stroke-linecap="round" stroke-linejoin="round"/>
<path d="M117.042 335.145H129.318" stroke="#263238" stroke-linecap="round" stroke-linejoin="round"/>
<path d="M248.534 297.902H264.63" stroke="#263238" stroke-linecap="round" stroke-linejoin="round"/>
<path d="M230.756 297.902H245.64" stroke="#263238" stroke-linecap="round" stroke-linejoin="round"/>
<path d="M258.395 302.984H264.63" stroke="#263238" stroke-linecap="round" stroke-linejoin="round"/>
<path d="M230.756 302.984H255.501" stroke="#263238" stroke-linecap="round" stroke-linejoin="round"/>
<path d="M262.17 308.055H264.63" stroke="#263238" stroke-linecap="round" stroke-linejoin="round"/>
<path d="M248.832 308.055H258.109" stroke="#263238" stroke-linecap="round" stroke-linejoin="round"/>
<path d="M230.756 308.055H246.223" stroke="#263238" stroke-linecap="round" stroke-linejoin="round"/>
<path d="M230.756 313.125H264.63" stroke="#263238" stroke-linecap="round" stroke-linejoin="round"/>
<path d="M258.979 318.195H264.63" stroke="#263238" stroke-linecap="round" stroke-linejoin="round"/>
<path d="M239.542 318.195H253.178" stroke="#263238" stroke-linecap="round" stroke-linejoin="round"/>
<path d="M230.756 318.195H235.481" stroke="#263238" stroke-linecap="round" stroke-linejoin="round"/>
<path d="M246.223 323.266H264.63" stroke="#263238" stroke-linecap="round" stroke-linejoin="round"/>
<path d="M230.756 323.266H243.031" stroke="#263238" stroke-linecap="round" stroke-linejoin="round"/>
<path d="M255.501 328.336H264.63" stroke="#263238" stroke-linecap="round" stroke-linejoin="round"/>
<path d="M246.509 328.336H252.892" stroke="#263238" stroke-linecap="round" stroke-linejoin="round"/>
<path d="M230.756 328.336H243.031" stroke="#263238" stroke-linecap="round" stroke-linejoin="round"/>
<path d="M286.171 182.883H302.256" stroke="#263238" stroke-linecap="round" stroke-linejoin="round"/>
<path d="M268.382 182.883H283.266" stroke="#263238" stroke-linecap="round" stroke-linejoin="round"/>
<path d="M296.033 187.953H302.256" stroke="#263238" stroke-linecap="round" stroke-linejoin="round"/>
<path d="M268.382 187.953H293.127" stroke="#263238" stroke-linecap="round" stroke-linejoin="round"/>
<path d="M299.796 193.023H302.256" stroke="#263238" stroke-linecap="round" stroke-linejoin="round"/>
<path d="M286.458 193.023H295.735" stroke="#263238" stroke-linecap="round" stroke-linejoin="round"/>
<path d="M268.382 193.023H283.849" stroke="#263238" stroke-linecap="round" stroke-linejoin="round"/>
<path d="M268.382 198.094H302.256" stroke="#263238" stroke-linecap="round" stroke-linejoin="round"/>
<path d="M296.616 203.164H302.256" stroke="#263238" stroke-linecap="round" stroke-linejoin="round"/>
<path d="M277.18 203.164H290.805" stroke="#263238" stroke-linecap="round" stroke-linejoin="round"/>
<path d="M268.382 203.164H273.118" stroke="#263238" stroke-linecap="round" stroke-linejoin="round"/>
<path d="M283.849 208.234H302.256" stroke="#263238" stroke-linecap="round" stroke-linejoin="round"/>
<path d="M268.382 208.234H280.657" stroke="#263238" stroke-linecap="round" stroke-linejoin="round"/>
<path d="M293.127 213.305H302.256" stroke="#263238" stroke-linecap="round" stroke-linejoin="round"/>
<path d="M284.135 213.305H290.519" stroke="#263238" stroke-linecap="round" stroke-linejoin="round"/>
<path d="M268.382 213.305H280.657" stroke="#263238" stroke-linecap="round" stroke-linejoin="round"/>
<path d="M109.698 194.336H125.783" stroke="#263238" stroke-linecap="round" stroke-linejoin="round"/>
<path d="M91.9087 194.336H106.792" stroke="#263238" stroke-linecap="round" stroke-linejoin="round"/>
<path d="M119.56 199.406H125.783" stroke="#263238" stroke-linecap="round" stroke-linejoin="round"/>
<path d="M91.9087 199.406H116.653" stroke="#263238" stroke-linecap="round" stroke-linejoin="round"/>
<path d="M123.334 204.477H125.783" stroke="#263238" stroke-linecap="round" stroke-linejoin="round"/>
<path d="M109.984 204.477H119.273" stroke="#263238" stroke-linecap="round" stroke-linejoin="round"/>
<path d="M91.9087 204.477H107.376" stroke="#263238" stroke-linecap="round" stroke-linejoin="round"/>
<path d="M91.9087 209.547H125.783" stroke="#263238" stroke-linecap="round" stroke-linejoin="round"/>
<path d="M120.143 214.617H125.782" stroke="#263238" stroke-linecap="round" stroke-linejoin="round"/>
<path d="M100.706 214.617H114.343" stroke="#263238" stroke-linecap="round" stroke-linejoin="round"/>
<path d="M91.9087 214.617H96.6449" stroke="#263238" stroke-linecap="round" stroke-linejoin="round"/>
<path d="M107.376 219.688H125.783" stroke="#263238" stroke-linecap="round" stroke-linejoin="round"/>
<path d="M91.9087 219.688H104.184" stroke="#263238" stroke-linecap="round" stroke-linejoin="round"/>
<path d="M116.654 224.758H125.783" stroke="#263238" stroke-linecap="round" stroke-linejoin="round"/>
<path d="M107.662 224.758H114.045" stroke="#263238" stroke-linecap="round" stroke-linejoin="round"/>
<path d="M91.9087 224.758H104.184" stroke="#263238" stroke-linecap="round" stroke-linejoin="round"/>
<path d="M210.29 234.509V284.894H255.192V225.133H219.923L210.29 234.509Z" fill="white" stroke="#263238" stroke-linecap="round" stroke-linejoin="round"/>
<path d="M218.71 233.539V235.983L210.29 234.533L218.71 233.539Z" fill="#263238" stroke="#263238" stroke-linecap="round" stroke-linejoin="round"/>
<path d="M219.911 225.133V234.531H210.29L219.911 225.133Z" fill="white" stroke="#263238" stroke-linecap="round" stroke-linejoin="round"/>
<path d="M249.495 238.121H214.923" stroke="#263238" stroke-linecap="round" stroke-linejoin="round"/>
<path d="M249.495 246.652H214.923" stroke="#263238" stroke-linecap="round" stroke-linejoin="round"/>
<path d="M249.495 255.191H214.923" stroke="#263238" stroke-linecap="round" stroke-linejoin="round"/>
<path d="M249.495 263.734H214.923" stroke="#263238" stroke-linecap="round" stroke-linejoin="round"/>
<path d="M255.192 270.953H210.29V284.908H255.192V270.953Z" fill="#263238" stroke="#263238" stroke-linecap="round" stroke-linejoin="round"/>
<path d="M262.125 238.43H231.054V253.367H262.125V238.43Z" fill="#263238" stroke="#263238" stroke-linecap="round" stroke-linejoin="round"/>
<path d="M243.809 240.539C245.399 240.539 246.097 241.475 246.097 242.994V244.205C246.148 244.522 246.125 244.847 246.03 245.155C245.935 245.462 245.771 245.743 245.55 245.977C245.329 246.211 245.057 246.391 244.755 246.503C244.453 246.616 244.13 246.658 243.809 246.626H242.814V250.6H241.67V240.539H243.809ZM243.729 245.621C244.564 245.621 244.965 245.233 244.965 244.273V242.937C244.965 242.024 244.633 241.555 243.821 241.555H242.745V245.621H243.729Z" fill="white"/>
<path d="M249.392 240.539C250.959 240.539 251.68 241.487 251.68 243.04V248.111C251.68 249.652 250.959 250.6 249.392 250.6H246.989V240.539H249.392ZM249.392 249.572C250.192 249.572 250.536 249.07 250.536 248.156V242.983C250.536 242.058 250.147 241.555 249.334 241.555H248.122V249.549L249.392 249.572Z" fill="white"/>
<path d="M256.119 245.221V246.238H253.831V250.6H252.687V240.539H256.691V241.555H253.808V245.221H256.119Z" fill="white"/>
<path opacity="0.2" d="M792.884 281.159L784.967 280.965L784.853 285.464C782.905 285.668 780.986 286.089 779.133 286.721L776.902 282.644L769.912 286.435L772.063 290.375C770.469 291.541 769.008 292.878 767.704 294.361L763.734 291.928L759.616 298.677L763.448 300.961C762.651 302.767 762.056 304.655 761.675 306.591L757.019 306.466L756.825 314.38L761.332 314.494C761.536 316.438 761.958 318.354 762.59 320.204L758.472 322.522L762.259 329.477L766.217 327.33C767.379 328.919 768.714 330.375 770.198 331.67L767.773 335.644L774.534 339.766L776.879 335.941C778.684 336.735 780.572 337.329 782.508 337.711L782.393 342.359L790.321 342.553L790.504 338.031C792.452 337.827 794.371 337.406 796.224 336.774L798.443 340.851L805.41 337.071L803.248 333.12C804.844 331.96 806.306 330.627 807.607 329.146L811.577 331.567L815.718 324.818L811.874 322.477C812.677 320.673 813.272 318.784 813.647 316.847L818.303 316.972L818.509 309.058L814.002 308.944C813.792 307 813.37 305.086 812.743 303.234L816.816 301.018L813.029 294.064L809.071 296.222C807.916 294.624 806.58 293.164 805.09 291.871L807.527 287.897L800.8 283.751L798.455 287.588C796.653 286.782 794.765 286.184 792.826 285.807L792.884 281.159ZM787.164 330.802C783.391 330.708 779.73 329.499 776.646 327.329C773.561 325.159 771.19 322.124 769.833 318.608C768.476 315.093 768.194 311.255 769.022 307.579C769.85 303.904 771.751 300.556 774.485 297.959C777.22 295.362 780.664 293.633 784.383 292.99C788.101 292.347 791.927 292.819 795.377 294.347C798.827 295.875 801.745 298.39 803.763 301.573C805.781 304.757 806.808 308.467 806.715 312.233C806.586 317.282 804.454 322.074 800.788 325.556C797.122 329.038 792.222 330.924 787.164 330.802Z" stroke="black" stroke-linecap="round" stroke-linejoin="round"/>
<path opacity="0.2" d="M770.495 222.05L762.579 221.855L762.464 226.344C760.517 226.555 758.599 226.98 756.744 227.611L754.456 223.534L747.501 227.314L749.652 231.266C748.058 232.428 746.597 233.761 745.293 235.24L741.312 232.819L737.182 239.568L741.014 241.909C740.217 243.711 739.622 245.595 739.241 247.528L734.585 247.413L734.391 255.327L738.887 255.43C739.095 257.394 739.521 259.328 740.156 261.197L736.072 263.413L739.859 270.356L743.817 268.209C744.979 269.802 746.314 271.262 747.798 272.56L745.373 276.523L752.134 280.657L754.422 276.82C756.225 277.621 758.113 278.215 760.051 278.59L759.936 283.238L767.864 283.444L767.978 278.944C769.927 278.737 771.845 278.311 773.698 277.676L775.918 281.753L782.873 277.973L780.848 274.079C782.444 272.92 783.906 271.587 785.207 270.105L789.177 272.526L793.318 265.777L789.474 263.436C790.279 261.637 790.874 259.751 791.247 257.817L795.903 257.931L796.109 250.029L791.602 249.914C791.397 247.969 790.971 246.054 790.332 244.204L794.416 241.978L790.63 235.034L786.671 237.181C785.51 235.588 784.175 234.129 782.69 232.83L785.116 228.867L778.355 224.745L776.067 228.57C774.262 227.773 772.375 227.179 770.438 226.8L770.495 222.05ZM764.775 271.681C761.002 271.587 757.341 270.378 754.256 268.207C751.171 266.036 748.8 263.001 747.444 259.485C746.087 255.969 745.806 252.13 746.635 248.454C747.464 244.778 749.366 241.43 752.102 238.834C754.837 236.238 758.282 234.509 762.002 233.868C765.721 233.226 769.548 233.7 772.997 235.23C776.446 236.76 779.364 239.276 781.381 242.461C783.397 245.646 784.422 249.357 784.326 253.123C784.197 258.172 782.065 262.963 778.399 266.443C774.733 269.923 769.833 271.807 764.775 271.681Z" stroke="black" stroke-linecap="round" stroke-linejoin="round"/>
<path opacity="0.2" d="M384.887 148.457V140.463H380.38C380.126 138.514 379.654 136.598 378.973 134.753L383 132.469L379.03 125.617L375.129 127.901C373.926 126.341 372.557 124.917 371.045 123.653L373.333 119.633L366.469 115.67L364.181 119.565C362.34 118.813 360.422 118.265 358.461 117.932V113.227H350.533V117.726C348.58 117.98 346.661 118.451 344.813 119.131L342.525 115.111L335.661 119.074L337.949 122.968C336.389 124.171 334.962 125.538 333.693 127.045L329.666 124.761L325.708 131.613L329.598 133.897C328.845 135.735 328.296 137.649 327.962 139.607H323.306V147.521H327.813C328.067 149.471 328.539 151.386 329.22 153.231L325.193 155.515L329.163 162.367L333.064 160.083C334.27 161.64 335.639 163.065 337.148 164.331L334.86 168.351L341.724 172.302L344.012 168.419C345.853 169.171 347.771 169.719 349.732 170.052V174.723H357.66V170.155C359.613 169.901 361.532 169.43 363.38 168.751L365.668 172.77L372.532 168.808L370.244 164.913C371.807 163.713 373.234 162.346 374.5 160.837L378.527 163.121L382.496 156.269L378.595 153.985C379.348 152.147 379.897 150.232 380.231 148.275L384.887 148.457ZM335.032 143.992C335.032 140.225 336.151 136.542 338.248 133.409C340.344 130.277 343.324 127.835 346.811 126.393C350.298 124.952 354.135 124.574 357.836 125.309C361.538 126.044 364.938 127.859 367.607 130.523C370.275 133.187 372.093 136.581 372.829 140.276C373.565 143.971 373.187 147.801 371.743 151.282C370.299 154.762 367.853 157.737 364.715 159.83C361.577 161.923 357.888 163.041 354.114 163.041C351.604 163.041 349.119 162.546 346.801 161.586C344.483 160.626 342.377 159.219 340.604 157.445C338.832 155.672 337.427 153.566 336.471 151.25C335.515 148.934 335.026 146.452 335.032 143.946V143.992Z" stroke="black" stroke-linecap="round" stroke-linejoin="round"/>
<path opacity="0.2" d="M443.517 124.58V116.666H439.021C438.767 114.716 438.295 112.801 437.614 110.956L441.63 108.672L437.671 101.82L433.77 104.104C432.57 102.538 431.196 101.113 429.675 99.8556L431.963 95.8243L425.099 91.873L422.811 95.7558C420.972 94.9994 419.053 94.4553 417.091 94.1341V89.4062H409.174V93.9057C407.221 94.1564 405.302 94.6276 403.454 95.3104L401.166 91.2906L394.302 95.2419L396.59 99.1361C395.042 100.338 393.634 101.709 392.392 103.224L388.365 100.94L384.395 107.792L388.296 110.076C387.53 111.91 386.981 113.826 386.66 115.786H381.981V123.701H386.489C386.746 125.65 387.218 127.565 387.896 129.411L383.869 131.695L387.827 138.547L391.74 136.263C392.939 137.812 394.309 139.222 395.824 140.465L393.536 144.485L400.4 148.448L402.688 144.553C404.525 145.317 406.444 145.865 408.408 146.186V150.834H416.336V146.335C418.29 146.086 420.209 145.615 422.056 144.93L424.344 148.95L431.208 144.999L428.92 141.105C430.485 139.903 431.913 138.532 433.175 137.016L437.214 139.3L441.172 132.448L437.282 130.164C438.04 128.329 438.585 126.413 438.907 124.454L443.517 124.58ZM393.673 120.115C393.673 116.347 394.792 112.664 396.889 109.532C398.986 106.399 401.966 103.958 405.453 102.516C408.939 101.074 412.776 100.697 416.478 101.432C420.179 102.167 423.579 103.981 426.248 106.645C428.917 109.309 430.734 112.703 431.47 116.398C432.207 120.094 431.829 123.924 430.384 127.404C428.94 130.885 426.494 133.86 423.356 135.953C420.218 138.046 416.529 139.163 412.755 139.163C410.249 139.165 407.767 138.673 405.451 137.716C403.135 136.76 401.031 135.356 399.259 133.587C397.487 131.818 396.081 129.718 395.123 127.406C394.164 125.094 393.672 122.617 393.673 120.115Z" stroke="black" stroke-linecap="round" stroke-linejoin="round"/>
<g opacity="0.2">
<path d="M207.316 377.782C218.499 377.782 227.564 368.732 227.564 357.569C227.564 346.405 218.499 337.355 207.316 337.355C196.133 337.355 187.067 346.405 187.067 357.569C187.067 368.732 196.133 377.782 207.316 377.782Z" stroke="black" stroke-linecap="round" stroke-linejoin="round"/>
<path d="M222.513 360.408C224.092 352.028 218.566 343.957 210.171 342.381C201.776 340.805 193.691 346.321 192.112 354.701C190.534 363.081 196.059 371.153 204.454 372.728C212.849 374.304 220.935 368.788 222.513 360.408Z" stroke="black" stroke-linecap="round" stroke-linejoin="round"/>
<path d="M236.968 371.431L226.043 365.516L224.224 368.862L235.161 374.766C234.921 375.21 234.866 375.731 235.01 376.214C235.154 376.698 235.483 377.105 235.927 377.347L256.759 388.607C257.204 388.847 257.726 388.901 258.211 388.757C258.695 388.614 259.103 388.285 259.345 387.842L261.164 384.496C261.4 384.05 261.451 383.529 261.305 383.046C261.16 382.563 260.829 382.156 260.386 381.915L239.554 370.655C239.107 370.419 238.585 370.368 238.101 370.513C237.618 370.659 237.21 370.988 236.968 371.431Z" stroke="black" stroke-miterlimit="10"/>
</g>
<path opacity="0.2" d="M547.976 125.618C547.978 129.987 546.683 134.258 544.253 137.891C541.823 141.525 538.368 144.358 534.326 146.031C530.283 147.704 525.834 148.143 521.542 147.293C517.249 146.442 513.306 144.339 510.21 141.251C507.115 138.162 505.007 134.227 504.152 129.942C503.297 125.658 503.735 121.216 505.409 117.18C507.083 113.143 509.919 109.693 513.558 107.266C517.197 104.839 521.475 103.543 525.851 103.543" stroke="black" stroke-linecap="round" stroke-linejoin="round"/>
<path opacity="0.2" d="M547.976 125.618H525.851V103.543C531.717 103.543 537.343 105.868 541.492 110.008C545.641 114.147 547.973 119.762 547.976 125.618Z" stroke="black" stroke-linecap="round" stroke-linejoin="round"/>
<path opacity="0.2" d="M545.688 110.394L557.128 101.258H573.144" stroke="black" stroke-linecap="round" stroke-linejoin="round"/>
<path opacity="0.2" d="M582.296 101.258H603.643" stroke="black" stroke-linecap="round" stroke-linejoin="round"/>
<path opacity="0.2" d="M582.296 108.113H603.643" stroke="black" stroke-linecap="round" stroke-linejoin="round"/>
<path opacity="0.2" d="M582.296 114.965H603.643" stroke="black" stroke-linecap="round" stroke-linejoin="round"/>
<path opacity="0.2" d="M582.296 121.816H603.643" stroke="black" stroke-linecap="round" stroke-linejoin="round"/>
<g opacity="0.2">
<path d="M302.268 360.996L301.444 356.977H286.961L287.785 360.996L288.528 364.582L293.447 388.564H332.115L326.463 360.996H302.268Z" stroke="black" stroke-linecap="round" stroke-linejoin="round"/>
<path d="M332.115 388.566L339.242 362.859H327.058" stroke="black" stroke-linecap="round" stroke-linejoin="round"/>
</g>
<g opacity="0.2">
<path d="M356.562 360.996L355.727 356.977H341.255L342.079 360.996L342.823 364.582L347.742 388.564H386.409L380.746 360.996H356.562Z" stroke="black" stroke-linecap="round" stroke-linejoin="round"/>
<path d="M386.409 388.566L393.536 362.859H381.353" stroke="black" stroke-linecap="round" stroke-linejoin="round"/>
</g>
<path d="M438.678 296.84C438.953 296.837 439.225 296.888 439.48 296.99C439.734 297.093 439.966 297.244 440.161 297.437C440.357 297.629 440.513 297.857 440.619 298.11C440.726 298.362 440.782 298.633 440.783 298.907V311.971C440.744 312.503 440.505 313.001 440.113 313.364C439.722 313.727 439.207 313.929 438.673 313.929C438.138 313.929 437.624 313.727 437.232 313.364C436.841 313.001 436.601 312.503 436.562 311.971V298.907C436.565 298.633 436.622 298.361 436.73 298.109C436.838 297.857 436.995 297.628 437.191 297.436C437.388 297.244 437.62 297.093 437.876 296.99C438.131 296.888 438.403 296.837 438.678 296.84Z" fill="#263238"/>
<path d="M433.576 296.84C433.851 296.837 434.124 296.888 434.379 296.99C434.634 297.093 434.867 297.244 435.063 297.436C435.26 297.628 435.416 297.857 435.524 298.109C435.632 298.361 435.69 298.633 435.693 298.907V311.971C435.653 312.503 435.414 313.001 435.022 313.364C434.631 313.727 434.116 313.929 433.582 313.929C433.047 313.929 432.533 313.727 432.141 313.364C431.75 313.001 431.51 312.503 431.471 311.971V298.907C431.477 298.355 431.702 297.827 432.096 297.44C432.491 297.053 433.023 296.837 433.576 296.84Z" fill="#263238"/>
<path d="M428.554 296.84C428.828 296.837 429.1 296.888 429.355 296.99C429.609 297.093 429.841 297.244 430.037 297.437C430.232 297.629 430.388 297.857 430.495 298.11C430.601 298.362 430.657 298.633 430.659 298.907V311.971C430.657 312.245 430.601 312.516 430.495 312.769C430.388 313.021 430.232 313.25 430.037 313.442C429.841 313.634 429.609 313.786 429.355 313.888C429.1 313.99 428.828 314.042 428.554 314.038C428.279 314.042 428.007 313.99 427.753 313.888C427.498 313.786 427.266 313.634 427.071 313.442C426.875 313.25 426.719 313.021 426.613 312.769C426.506 312.516 426.45 312.245 426.449 311.971V298.907C426.45 298.633 426.506 298.362 426.613 298.11C426.719 297.857 426.875 297.629 427.071 297.437C427.266 297.244 427.498 297.093 427.753 296.99C428.007 296.888 428.279 296.837 428.554 296.84Z" fill="#263238"/>
<path d="M423.486 296.84C423.761 296.837 424.034 296.888 424.289 296.99C424.544 297.093 424.776 297.244 424.973 297.436C425.169 297.628 425.326 297.857 425.434 298.109C425.542 298.361 425.599 298.633 425.602 298.907V311.971C425.563 312.503 425.324 313.001 424.932 313.364C424.541 313.727 424.026 313.929 423.492 313.929C422.957 313.929 422.443 313.727 422.051 313.364C421.66 313.001 421.42 312.503 421.381 311.971V298.907C421.387 298.355 421.612 297.827 422.006 297.44C422.401 297.053 422.933 296.837 423.486 296.84Z" fill="#263238"/>
<path d="M418.43 296.84C418.704 296.837 418.976 296.888 419.231 296.99C419.485 297.093 419.717 297.244 419.913 297.437C420.108 297.629 420.264 297.857 420.371 298.11C420.477 298.362 420.533 298.633 420.535 298.907V311.971C420.535 312.529 420.313 313.063 419.918 313.457C419.523 313.851 418.988 314.073 418.43 314.073C417.871 314.073 417.336 313.851 416.941 313.457C416.546 313.063 416.325 312.529 416.325 311.971V298.907C416.326 298.633 416.382 298.362 416.489 298.11C416.595 297.857 416.751 297.629 416.947 297.437C417.142 297.244 417.374 297.093 417.628 296.99C417.883 296.888 418.155 296.837 418.43 296.84Z" fill="#263238"/>
<path d="M413.362 296.84C413.637 296.837 413.91 296.888 414.165 296.99C414.42 297.093 414.652 297.244 414.849 297.436C415.045 297.628 415.202 297.857 415.31 298.109C415.418 298.361 415.475 298.633 415.478 298.907V311.971C415.475 312.246 415.418 312.517 415.31 312.77C415.202 313.022 415.045 313.251 414.849 313.443C414.652 313.635 414.42 313.786 414.165 313.888C413.91 313.99 413.637 314.042 413.362 314.038C412.809 314.042 412.277 313.826 411.882 313.439C411.488 313.051 411.263 312.524 411.257 311.971V298.907C411.263 298.355 411.488 297.827 411.882 297.44C412.277 297.053 412.809 296.837 413.362 296.84Z" fill="#263238"/>
<path d="M408.305 296.84C408.58 296.837 408.852 296.888 409.106 296.99C409.361 297.093 409.593 297.244 409.788 297.437C409.984 297.629 410.139 297.857 410.246 298.11C410.353 298.362 410.409 298.633 410.41 298.907V311.971C410.41 312.529 410.188 313.063 409.794 313.457C409.399 313.851 408.863 314.073 408.305 314.073C407.747 314.073 407.211 313.851 406.817 313.457C406.422 313.063 406.2 312.529 406.2 311.971V298.907C406.202 298.633 406.257 298.362 406.364 298.11C406.471 297.857 406.627 297.629 406.822 297.437C407.018 297.244 407.249 297.093 407.504 296.99C407.758 296.888 408.031 296.837 408.305 296.84Z" fill="#263238"/>
<path d="M403.249 296.84C403.802 296.837 404.334 297.053 404.728 297.44C405.123 297.827 405.348 298.355 405.354 298.907V311.971C405.314 312.503 405.075 313.001 404.683 313.364C404.292 313.727 403.777 313.929 403.243 313.929C402.709 313.929 402.194 313.727 401.802 313.364C401.411 313.001 401.172 312.503 401.132 311.971V298.907C401.135 298.633 401.192 298.361 401.3 298.109C401.408 297.857 401.565 297.628 401.762 297.436C401.958 297.244 402.191 297.093 402.446 296.99C402.701 296.888 402.974 296.837 403.249 296.84Z" fill="#263238"/>
<path d="M398.181 296.84C398.455 296.837 398.727 296.888 398.982 296.99C399.236 297.093 399.468 297.244 399.664 297.437C399.859 297.629 400.015 297.857 400.122 298.11C400.228 298.362 400.284 298.633 400.286 298.907V311.971C400.286 312.529 400.064 313.063 399.669 313.457C399.274 313.851 398.739 314.073 398.181 314.073C397.622 314.073 397.087 313.851 396.692 313.457C396.297 313.063 396.076 312.529 396.076 311.971V298.907C396.077 298.633 396.133 298.362 396.24 298.11C396.346 297.857 396.502 297.629 396.698 297.437C396.893 297.244 397.125 297.093 397.379 296.99C397.634 296.888 397.906 296.837 398.181 296.84Z" fill="#263238"/>
<path d="M393.124 296.84C393.677 296.837 394.209 297.053 394.604 297.44C394.998 297.827 395.223 298.355 395.229 298.907V311.971C395.19 312.503 394.95 313.001 394.559 313.364C394.167 313.727 393.653 313.929 393.118 313.929C392.584 313.929 392.069 313.727 391.678 313.364C391.286 313.001 391.047 312.503 391.008 311.971V298.907C391.011 298.633 391.068 298.361 391.176 298.109C391.284 297.857 391.441 297.628 391.637 297.436C391.834 297.244 392.066 297.093 392.321 296.99C392.576 296.888 392.849 296.837 393.124 296.84Z" fill="#263238"/>
<path d="M388.056 296.84C388.331 296.837 388.603 296.888 388.857 296.99C389.112 297.093 389.344 297.244 389.539 297.437C389.735 297.629 389.89 297.857 389.997 298.11C390.104 298.362 390.16 298.633 390.161 298.907V311.971C390.161 312.529 389.939 313.063 389.545 313.457C389.15 313.851 388.614 314.073 388.056 314.073C387.498 314.073 386.962 313.851 386.568 313.457C386.173 313.063 385.951 312.529 385.951 311.971V298.907C385.953 298.633 386.008 298.362 386.115 298.11C386.222 297.857 386.378 297.629 386.573 297.437C386.769 297.244 387 297.093 387.255 296.99C387.509 296.888 387.782 296.837 388.056 296.84Z" fill="#263238"/>
<path d="M384.441 296.84C384.387 297.038 384.387 297.247 384.441 297.445C384.636 297.636 384.79 297.864 384.896 298.114C385.002 298.365 385.058 298.635 385.059 298.907V311.971C385.058 312.244 385.002 312.513 384.896 312.764C384.79 313.015 384.636 313.242 384.441 313.433C383.527 313.865 382.523 314.073 381.513 314.038C379.133 314.038 377.623 313.113 378.138 311.971L383.537 298.907C383.89 298.241 384.192 297.55 384.441 296.84Z" fill="#263238"/>
<path d="M384.441 296.84C384.037 297.502 383.681 298.193 383.378 298.907L376.708 311.971C376.17 313.113 373.814 314.038 371.434 314.038C369.055 314.038 368.082 313.113 369.283 311.971L382.371 298.907L383.869 297.445C384.247 297.068 384.441 296.84 384.441 296.84Z" fill="#263238"/>
<path d="M384.441 296.84C384.227 297.013 384.024 297.2 383.835 297.399L382.37 298.907L369.283 311.971C368.139 313.113 367.212 312.165 367.212 309.687C367.212 307.209 368.139 304.868 369.283 304.354L382.37 297.822C383.085 297.548 383.777 297.219 384.441 296.84Z" fill="#263238"/>
<path d="M384.441 296.841C383.732 297.065 383.04 297.34 382.37 297.663L369.283 302.882C368.139 303.384 367.212 301.831 367.212 299.399C367.211 298.835 367.264 298.273 367.373 297.72C367.422 297.473 367.487 297.228 367.567 296.989C367.586 296.901 367.625 296.819 367.681 296.749L367.819 296.601C368.008 296.403 368.235 296.246 368.487 296.138C368.738 296.03 369.009 295.974 369.283 295.973H382.37C382.644 295.974 382.915 296.03 383.167 296.138C383.418 296.246 383.646 296.403 383.835 296.601L383.961 296.749C383.961 296.818 384.041 296.863 384.086 296.852H384.441V296.841Z" fill="#263238"/>
<path d="M384.441 292.955C384.447 293.232 384.399 293.508 384.298 293.766C384.197 294.024 384.046 294.259 383.853 294.459C383.661 294.658 383.431 294.818 383.176 294.928C382.922 295.039 382.648 295.098 382.371 295.102H369.283C368.738 295.063 368.229 294.819 367.857 294.419C367.485 294.02 367.278 293.495 367.278 292.95C367.278 292.404 367.485 291.879 367.857 291.48C368.229 291.081 368.738 290.837 369.283 290.797H382.371C382.649 290.803 382.923 290.863 383.177 290.975C383.432 291.087 383.662 291.247 383.854 291.448C384.046 291.648 384.197 291.885 384.298 292.143C384.399 292.402 384.447 292.678 384.441 292.955Z" fill="#263238"/>
<path d="M384.441 287.784C384.447 288.061 384.399 288.337 384.298 288.596C384.197 288.854 384.046 289.091 383.854 289.291C383.662 289.492 383.432 289.652 383.177 289.764C382.923 289.876 382.649 289.936 382.371 289.942H369.283C368.738 289.902 368.229 289.658 367.857 289.259C367.485 288.86 367.278 288.335 367.278 287.789C367.278 287.244 367.485 286.719 367.857 286.32C368.229 285.92 368.738 285.676 369.283 285.637H382.371C382.648 285.641 382.922 285.7 383.176 285.811C383.431 285.921 383.661 286.081 383.853 286.28C384.046 286.48 384.197 286.715 384.298 286.973C384.399 287.231 384.447 287.507 384.441 287.784Z" fill="#263238"/>
<path d="M384.441 282.624C384.447 282.901 384.399 283.177 384.298 283.436C384.197 283.694 384.046 283.931 383.854 284.131C383.662 284.331 383.432 284.492 383.177 284.604C382.923 284.715 382.649 284.776 382.371 284.782H369.283C368.738 284.742 368.229 284.498 367.857 284.099C367.485 283.7 367.278 283.175 367.278 282.629C367.278 282.084 367.485 281.559 367.857 281.16C368.229 280.76 368.738 280.516 369.283 280.477H382.371C382.648 280.481 382.922 280.54 383.176 280.651C383.431 280.761 383.661 280.921 383.853 281.12C384.046 281.32 384.197 281.555 384.298 281.813C384.399 282.071 384.447 282.347 384.441 282.624Z" fill="#263238"/>
<path d="M384.441 277.506C384.447 277.783 384.399 278.058 384.298 278.316C384.197 278.574 384.046 278.81 383.853 279.009C383.661 279.209 383.431 279.368 383.176 279.479C382.922 279.589 382.648 279.649 382.371 279.653H369.283C368.738 279.613 368.229 279.369 367.857 278.97C367.485 278.571 367.278 278.046 367.278 277.5C367.278 276.955 367.485 276.43 367.857 276.031C368.229 275.631 368.738 275.387 369.283 275.348H382.371C382.649 275.354 382.923 275.414 383.177 275.526C383.432 275.638 383.662 275.798 383.854 275.999C384.046 276.199 384.197 276.435 384.298 276.694C384.399 276.953 384.447 277.229 384.441 277.506Z" fill="#263238"/>
<path d="M384.441 272.288C384.447 272.565 384.399 272.841 384.298 273.1C384.197 273.358 384.046 273.595 383.854 273.795C383.662 273.995 383.432 274.156 383.177 274.268C382.923 274.379 382.649 274.44 382.371 274.446H369.283C368.738 274.406 368.229 274.162 367.857 273.763C367.485 273.364 367.278 272.839 367.278 272.293C367.278 271.748 367.485 271.223 367.857 270.824C368.229 270.424 368.738 270.18 369.283 270.141H382.371C382.648 270.145 382.922 270.204 383.176 270.315C383.431 270.425 383.661 270.585 383.853 270.784C384.046 270.984 384.197 271.219 384.298 271.477C384.399 271.735 384.447 272.011 384.441 272.288Z" fill="#263238"/>
<path d="M384.441 267.127C384.447 267.404 384.399 267.679 384.298 267.937C384.197 268.195 384.046 268.431 383.853 268.63C383.661 268.83 383.431 268.99 383.176 269.1C382.922 269.21 382.648 269.27 382.371 269.274H369.283C368.738 269.234 368.229 268.99 367.857 268.591C367.485 268.192 367.278 267.667 367.278 267.121C367.278 266.576 367.485 266.051 367.857 265.652C368.229 265.252 368.738 265.008 369.283 264.969H382.371C382.649 264.975 382.923 265.035 383.177 265.147C383.432 265.259 383.662 265.419 383.854 265.62C384.046 265.82 384.197 266.056 384.298 266.315C384.399 266.574 384.447 266.85 384.441 267.127Z" fill="#263238"/>
<path d="M384.441 260.682C384.439 261.246 384.382 261.809 384.27 262.361C384.224 262.608 384.162 262.852 384.087 263.092C384.066 263.178 384.023 263.257 383.961 263.32C383.925 263.378 383.883 263.432 383.835 263.48C383.646 263.678 383.419 263.835 383.167 263.943C382.915 264.051 382.645 264.107 382.371 264.108H369.283C369.009 264.107 368.739 264.051 368.487 263.943C368.235 263.835 368.008 263.678 367.819 263.48L367.682 263.32C367.682 263.263 367.602 263.218 367.567 263.229H367.224C367.938 263.017 368.631 262.742 369.295 262.407L382.382 257.199C383.515 256.685 384.441 258.25 384.441 260.682Z" fill="#263238"/>
<path d="M384.441 250.35C384.441 252.782 383.514 255.169 382.37 255.683L369.283 262.204C368.572 262.504 367.881 262.847 367.212 263.232C367.212 263.232 367.441 263.049 367.819 262.672L369.283 261.176L382.37 248.112C383.514 246.913 384.441 247.917 384.441 250.35Z" fill="#263238"/>
<path d="M380.357 246.043C382.645 246.043 383.56 246.968 382.37 248.11L369.283 261.174L367.773 262.659C367.575 262.846 367.388 263.045 367.212 263.253C367.621 262.593 367.984 261.906 368.299 261.197L375.163 248.133C375.747 246.968 378.069 246.043 380.357 246.043Z" fill="#263238"/>
<path d="M370.587 246.043C372.875 246.043 374.305 246.968 373.768 248.11L368.048 261.174C367.705 261.839 367.407 262.526 367.155 263.23C367.172 263.032 367.172 262.834 367.155 262.636V262.328C367.08 262.216 367.014 262.098 366.961 261.974C366.854 261.721 366.8 261.449 366.801 261.174V248.11C366.801 247.832 366.855 247.556 366.961 247.299C367.012 247.177 367.077 247.062 367.155 246.956C367.303 246.835 367.464 246.732 367.636 246.648C368.558 246.216 369.569 246.008 370.587 246.043Z" fill="#263238"/>
<path d="M364.009 246.043C364.554 246.049 365.073 246.27 365.455 246.657C365.836 247.044 366.049 247.567 366.046 248.11V261.174C366.046 261.714 365.831 262.231 365.449 262.612C365.067 262.993 364.55 263.207 364.009 263.207C363.469 263.207 362.951 262.993 362.57 262.612C362.188 262.231 361.973 261.714 361.973 261.174V248.11C361.97 247.567 362.183 247.044 362.564 246.657C362.946 246.27 363.465 246.049 364.009 246.043Z" fill="#263238"/>
<path d="M359.124 246.043C359.668 246.049 360.188 246.27 360.57 246.657C360.951 247.044 361.164 247.567 361.161 248.11V261.174C361.161 261.714 360.946 262.231 360.564 262.612C360.182 262.993 359.664 263.207 359.124 263.207C358.584 263.207 358.066 262.993 357.684 262.612C357.303 262.231 357.088 261.714 357.088 261.174V248.11C357.085 247.841 357.135 247.573 357.236 247.323C357.337 247.073 357.486 246.846 357.676 246.654C357.865 246.462 358.09 246.309 358.339 246.204C358.588 246.099 358.854 246.044 359.124 246.043Z" fill="#263238"/>
<path d="M354.24 246.043C354.784 246.049 355.303 246.27 355.685 246.657C356.067 247.044 356.279 247.567 356.276 248.11V261.174C356.278 261.443 356.226 261.709 356.125 261.958C356.023 262.206 355.873 262.432 355.684 262.623C355.495 262.814 355.27 262.966 355.022 263.07C354.775 263.174 354.509 263.229 354.24 263.23C353.97 263.23 353.703 263.177 353.453 263.073C353.204 262.97 352.978 262.818 352.788 262.627C352.597 262.436 352.447 262.21 352.345 261.96C352.242 261.711 352.19 261.444 352.192 261.174V248.11C352.19 247.84 352.242 247.572 352.344 247.322C352.446 247.073 352.597 246.845 352.787 246.653C352.977 246.461 353.203 246.308 353.453 246.204C353.702 246.099 353.969 246.044 354.24 246.043Z" fill="#263238"/>
<path d="M350.773 271.192V238.383C354.163 238.383 357.413 239.727 359.809 242.119C362.206 244.511 363.552 247.756 363.552 251.139V258.436C363.552 260.111 363.221 261.77 362.579 263.318C361.937 264.866 360.996 266.272 359.809 267.456C358.623 268.641 357.214 269.58 355.664 270.221C354.113 270.863 352.452 271.192 350.773 271.192Z" fill="white" stroke="#263238" stroke-linecap="round" stroke-linejoin="round"/>
<path d="M317.906 302.838L352.089 285.993C353.703 285.198 355.062 283.968 356.012 282.443C356.962 280.917 357.466 279.156 357.466 277.36V232.822C357.466 231.025 356.962 229.265 356.012 227.739C355.062 226.213 353.703 224.983 352.089 224.188L317.906 207.344V302.838Z" fill="#B7E7FF" stroke="#263238" stroke-linecap="round" stroke-linejoin="round"/>
<path d="M381.821 321.574H407.081" stroke="#263238" stroke-linecap="round" stroke-linejoin="round"/>
<path d="M376.776 325.996H386.878" stroke="#263238" stroke-linecap="round" stroke-linejoin="round"/>
<path d="M392.552 256.301V280.888" stroke="#263238" stroke-linecap="round" stroke-linejoin="round"/>
<path d="M388.136 265.128V250.008" stroke="#263238" stroke-linecap="round" stroke-linejoin="round"/>
<path d="M359.09 296.008V308.615" stroke="#263238" stroke-linecap="round" stroke-linejoin="round"/>
<path d="M363.518 291.598V302.949" stroke="#263238" stroke-linecap="round" stroke-linejoin="round"/>
<path d="M580.74 207.285H587.307" stroke="#263238" stroke-width="9" stroke-linecap="round" stroke-linejoin="round"/>
<path d="M530.347 286.026H556.636V207.285H580.74" stroke="#263238" stroke-width="4" stroke-linecap="round" stroke-linejoin="round"/>
<path d="M580.74 366.227H588.771" stroke="#263238" stroke-width="9" stroke-linecap="round" stroke-linejoin="round"/>
<path d="M525.233 310.086H555.904V366.227H580.74" stroke="#263238" stroke-width="4" stroke-linecap="round" stroke-linejoin="round"/>
<path d="M430.556 211.488H424.001V270.77" stroke="#263238" stroke-width="4" stroke-linecap="round" stroke-linejoin="round"/>
<path d="M435.658 211.488H430.556" stroke="#263238" stroke-width="7" stroke-linecap="round" stroke-linejoin="round"/>
<path d="M494.265 233.734H464.304V265.779H494.265V233.734Z" fill="#263238" stroke="#263238" stroke-linecap="round" stroke-linejoin="round"/>
<path d="M521.881 189.414H492.458V218.261H521.881V189.414Z" fill="#263238" stroke="#263238" stroke-linecap="round" stroke-linejoin="round"/>
<path d="M510.121 218.248H523.151C520.049 226.461 514.665 233.62 507.631 238.886C500.597 244.152 492.204 247.306 483.437 247.978C474.671 248.651 465.894 246.814 458.136 242.683C450.379 238.551 443.962 232.298 439.639 224.655C435.564 217.5 433.501 209.38 433.668 201.152C433.668 200.433 433.668 199.702 433.725 198.982C434.445 187.922 439.126 177.488 446.912 169.586C454.698 161.684 465.071 156.84 476.138 155.938C487.205 155.037 498.228 158.138 507.194 164.675C516.161 171.212 522.474 180.75 524.982 191.548H510.11C508.353 191.548 506.614 191.893 504.992 192.564C503.369 193.235 501.895 194.218 500.653 195.458C499.411 196.698 498.426 198.169 497.754 199.789C497.082 201.409 496.736 203.145 496.736 204.898C496.736 206.651 497.082 208.387 497.754 210.007C498.426 211.626 499.411 213.098 500.653 214.338C501.895 215.577 503.369 216.561 504.992 217.232C506.614 217.903 508.353 218.248 510.11 218.248H510.121Z" fill="#B7E7FF" stroke="#263238" stroke-linecap="round" stroke-linejoin="round"/>
<path d="M483.363 203.824H496.748" stroke="#263238" stroke-linecap="round" stroke-linejoin="round"/>
<path d="M472.667 157.895V246.023" stroke="#263238" stroke-linecap="round" stroke-linejoin="round"/>
<path d="M471.591 215.577C478.092 215.577 483.363 210.315 483.363 203.825C483.363 197.335 478.092 192.074 471.591 192.074C465.09 192.074 459.819 197.335 459.819 203.825C459.819 210.315 465.09 215.577 471.591 215.577Z" fill="#263238" stroke="#263238" stroke-linecap="round" stroke-linejoin="round"/>
<path d="M477.483 203.823C477.483 202.659 477.137 201.521 476.489 200.554C475.841 199.587 474.921 198.833 473.843 198.388C472.766 197.943 471.581 197.827 470.438 198.055C469.295 198.283 468.245 198.844 467.421 199.668C466.598 200.492 466.038 201.541 465.812 202.682C465.585 203.824 465.704 205.007 466.151 206.081C466.599 207.156 467.356 208.074 468.326 208.718C469.297 209.363 470.437 209.706 471.603 209.704C472.376 209.704 473.141 209.552 473.856 209.256C474.57 208.96 475.219 208.527 475.765 207.981C476.311 207.434 476.744 206.786 477.039 206.073C477.333 205.359 477.484 204.594 477.483 203.823Z" fill="white" stroke="#263238" stroke-linecap="round" stroke-linejoin="round"/>
<path d="M511.185 209.693C514.432 209.693 517.065 207.065 517.065 203.823C517.065 200.581 514.432 197.953 511.185 197.953C507.937 197.953 505.305 200.581 505.305 203.823C505.305 207.065 507.937 209.693 511.185 209.693Z" fill="#5388FF"/>
<path d="M448.585 201.152V224.655H439.605C435.53 217.501 433.467 209.38 433.633 201.152H448.585Z" fill="#263238" stroke="#263238" stroke-linecap="round" stroke-linejoin="round"/>
<path d="M479.291 358.016V427.392" stroke="#263238" stroke-width="3" stroke-linecap="round" stroke-linejoin="round"/>
<path d="M479.29 405.993C489.159 405.993 497.159 398.006 497.159 388.154C497.159 378.303 489.159 370.316 479.29 370.316C469.421 370.316 461.421 378.303 461.421 388.154C461.421 398.006 469.421 405.993 479.29 405.993Z" fill="white" stroke="#263238" stroke-linecap="round" stroke-linejoin="round"/>
<path d="M479.29 432.396C484.029 432.396 487.87 428.561 487.87 423.831C487.87 419.1 484.029 415.266 479.29 415.266C474.552 415.266 470.71 419.1 470.71 423.831C470.71 428.561 474.552 432.396 479.29 432.396Z" fill="white" stroke="#263238" stroke-linecap="round" stroke-linejoin="round"/>
<path d="M543.297 277.824L523.563 336.534C518.061 352.888 501.381 364.057 482.471 364.057H476.099C457.188 364.057 440.509 352.888 435.018 336.534L415.272 277.824C412.275 268.905 419.665 259.906 429.973 259.906H528.597C538.916 259.906 546.294 268.905 543.297 277.824Z" fill="#B7E7FF" stroke="#263238" stroke-linecap="round" stroke-linejoin="round"/>
<path d="M535.049 283.33C532.659 282.68 530.11 282.963 527.921 284.121C525.733 285.28 524.068 287.226 523.265 289.566L507.318 336.068C506.541 338.334 506.63 340.806 507.568 343.011C508.505 345.216 510.225 346.997 512.397 348.013L515.829 349.646C519.261 345.844 521.881 341.383 523.529 336.536L540.872 284.929L535.049 283.33Z" fill="white" stroke="#263238" stroke-linecap="round" stroke-linejoin="round"/>
<path d="M434.823 289.566C434.02 287.226 432.356 285.28 430.167 284.121C427.978 282.963 425.43 282.68 423.04 283.33L417.617 284.804L435.017 336.536C436.635 341.317 439.203 345.722 442.568 349.487L445.691 348.013C447.855 346.989 449.566 345.205 450.497 343.002C451.427 340.798 451.512 338.33 450.736 336.068L434.823 289.566Z" fill="white" stroke="#263238" stroke-linecap="round" stroke-linejoin="round"/>
<path d="M510.224 259.906C509.99 262.075 508.961 264.08 507.335 265.537C505.709 266.994 503.6 267.799 501.415 267.797H455.655C453.471 267.799 451.362 266.994 449.736 265.537C448.11 264.08 447.081 262.075 446.847 259.906H510.224Z" fill="white" stroke="#263238" stroke-linecap="round" stroke-linejoin="round"/>
<path d="M479.336 363.725V267.797" stroke="#263238" stroke-linecap="round" stroke-linejoin="round"/>
<path d="M479.29 332.321C483.081 332.321 486.154 329.253 486.154 325.469C486.154 321.685 483.081 318.617 479.29 318.617C475.499 318.617 472.426 321.685 472.426 325.469C472.426 329.253 475.499 332.321 479.29 332.321Z" fill="#263238" stroke="#263238" stroke-linecap="round" stroke-linejoin="round"/>
<path d="M479.29 328.327C480.87 328.327 482.15 327.049 482.15 325.472C482.15 323.895 480.87 322.617 479.29 322.617C477.711 322.617 476.43 323.895 476.43 325.472C476.43 327.049 477.711 328.327 479.29 328.327Z" fill="#5388FF"/>
<path d="M757.66 137.348H599.41C591.197 137.348 584.538 143.994 584.538 152.194V261.163C584.538 269.363 591.197 276.009 599.41 276.009H757.66C765.873 276.009 772.532 269.363 772.532 261.163V152.194C772.532 143.994 765.873 137.348 757.66 137.348Z" fill="#263238" stroke="#263238" stroke-linecap="round" stroke-linejoin="round"/>
<path d="M754.022 145.809H603.048C597.197 145.809 592.455 150.543 592.455 156.384V256.959C592.455 262.8 597.197 267.534 603.048 267.534H754.022C759.872 267.534 764.615 262.8 764.615 256.959V156.384C764.615 150.543 759.872 145.809 754.022 145.809Z" fill="white" stroke="#263238" stroke-linecap="round" stroke-linejoin="round"/>
<path d="M751.23 166.148H614.728V171.116H751.23V166.148Z" fill="#E0E0E0"/>
<path d="M751.23 177.844H614.728V182.811H751.23V177.844Z" fill="#E0E0E0"/>
<path d="M751.23 189.535H614.728V194.503H751.23V189.535Z" fill="#E0E0E0"/>
<path d="M751.23 201.242H614.728V206.21H751.23V201.242Z" fill="#E0E0E0"/>
<path d="M751.23 212.938H614.728V217.905H751.23V212.938Z" fill="#E0E0E0"/>
<path d="M751.23 224.629H614.728V229.597H751.23V224.629Z" fill="#E0E0E0"/>
<path d="M751.23 236.324H614.728V241.292H751.23V236.324Z" fill="#E0E0E0"/>
<path d="M628.903 195.305H615.609V250.121H628.903V195.305Z" fill="#ED4121"/>
<path d="M649.231 210.676H635.938V250.12H649.231V210.676Z" fill="#5388FF"/>
<path d="M669.56 201.117H656.267V250.12H669.56V201.117Z" fill="#ED4121"/>
<path d="M689.901 220.93H676.607V250.131H689.901V220.93Z" fill="#5388FF"/>
<path d="M710.229 202.145H696.936V250.131H710.229V202.145Z" fill="#ED4121"/>
<path d="M730.57 189.504H717.276V250.121H730.57V189.504Z" fill="#5388FF"/>
<path d="M750.899 181.645H737.605V250.119H750.899V181.645Z" fill="#ED4121"/>
<path d="M604.661 167.074H609.203" stroke="#263238" stroke-linecap="round" stroke-linejoin="round"/>
<path d="M604.661 173.582H609.203" stroke="#263238" stroke-linecap="round" stroke-linejoin="round"/>
<path d="M604.661 180.105H609.203" stroke="#263238" stroke-linecap="round" stroke-linejoin="round"/>
<path d="M604.661 186.625H609.203" stroke="#263238" stroke-linecap="round" stroke-linejoin="round"/>
<path d="M604.661 193.145H609.203" stroke="#263238" stroke-linecap="round" stroke-linejoin="round"/>
<path d="M604.661 199.656H609.203" stroke="#263238" stroke-linecap="round" stroke-linejoin="round"/>
<path d="M604.661 206.176H609.203" stroke="#263238" stroke-linecap="round" stroke-linejoin="round"/>
<path d="M604.661 212.695H609.203" stroke="#263238" stroke-linecap="round" stroke-linejoin="round"/>
<path d="M604.661 219.219H609.203" stroke="#263238" stroke-linecap="round" stroke-linejoin="round"/>
<path d="M604.661 225.727H609.203" stroke="#263238" stroke-linecap="round" stroke-linejoin="round"/>
<path d="M604.661 232.246H609.203" stroke="#263238" stroke-linecap="round" stroke-linejoin="round"/>
<path d="M604.661 238.77H609.203" stroke="#263238" stroke-linecap="round" stroke-linejoin="round"/>
<path d="M604.661 245.289H609.203" stroke="#263238" stroke-linecap="round" stroke-linejoin="round"/>
<path d="M604.661 251.801H609.203" stroke="#263238" stroke-linecap="round" stroke-linejoin="round"/>
<path d="M751.276 253.672V258.206" stroke="#263238" stroke-linecap="round" stroke-linejoin="round"/>
<path d="M740.431 253.672V258.206" stroke="#263238" stroke-linecap="round" stroke-linejoin="round"/>
<path d="M729.586 253.672V258.206" stroke="#263238" stroke-linecap="round" stroke-linejoin="round"/>
<path d="M718.752 253.672V258.206" stroke="#263238" stroke-linecap="round" stroke-linejoin="round"/>
<path d="M707.907 253.672V258.206" stroke="#263238" stroke-linecap="round" stroke-linejoin="round"/>
<path d="M697.062 253.672V258.206" stroke="#263238" stroke-linecap="round" stroke-linejoin="round"/>
<path d="M686.228 253.672V258.206" stroke="#263238" stroke-linecap="round" stroke-linejoin="round"/>
<path d="M675.383 253.672V258.206" stroke="#263238" stroke-linecap="round" stroke-linejoin="round"/>
<path d="M664.538 253.672V258.206" stroke="#263238" stroke-linecap="round" stroke-linejoin="round"/>
<path d="M653.704 253.672V258.206" stroke="#263238" stroke-linecap="round" stroke-linejoin="round"/>
<path d="M642.859 253.672V258.206" stroke="#263238" stroke-linecap="round" stroke-linejoin="round"/>
<path d="M632.014 253.672V258.206" stroke="#263238" stroke-linecap="round" stroke-linejoin="round"/>
<path d="M621.169 253.672V258.206" stroke="#263238" stroke-linecap="round" stroke-linejoin="round"/>
<path d="M610.335 253.672V258.206" stroke="#263238" stroke-linecap="round" stroke-linejoin="round"/>
<path d="M693.172 154.832H662.765V159.811H693.172V154.832Z" fill="#263238"/>
<path d="M757.66 292.832H599.41C591.197 292.832 584.538 299.479 584.538 307.678V416.648C584.538 424.847 591.197 431.494 599.41 431.494H757.66C765.873 431.494 772.532 424.847 772.532 416.648V307.678C772.532 299.479 765.873 292.832 757.66 292.832Z" fill="#263238" stroke="#263238" stroke-linecap="round" stroke-linejoin="round"/>
<path d="M754.022 301.305H603.048C597.197 301.305 592.455 306.039 592.455 311.88V412.456C592.455 418.296 597.197 423.03 603.048 423.03H754.022C759.872 423.03 764.615 418.296 764.615 412.456V311.88C764.615 306.039 759.872 301.305 754.022 301.305Z" fill="white" stroke="#263238" stroke-linecap="round" stroke-linejoin="round"/>
<path d="M649.632 411.255C638.123 411.255 627.026 406.98 618.501 399.262C609.975 391.544 604.632 380.936 603.51 369.502C602.388 358.068 605.568 346.626 612.431 337.404C619.295 328.182 629.35 321.839 640.64 319.609L642.836 330.824C638.144 331.743 633.692 333.614 629.754 336.321C625.816 339.029 622.478 342.515 619.946 346.564C617.414 350.613 615.743 355.138 615.035 359.859C614.328 364.579 614.599 369.394 615.833 374.006C617.067 378.617 619.236 382.926 622.208 386.666C625.179 390.405 628.888 393.496 633.105 395.745C637.322 397.995 641.957 399.355 646.722 399.742C651.488 400.13 656.283 399.535 660.809 397.996L664.481 408.811C659.698 410.431 654.682 411.256 649.632 411.255Z" fill="#ED4121"/>
<path d="M682.453 353.153C679.606 345.343 674.062 338.804 666.816 334.711C659.571 330.618 651.1 329.241 642.928 330.827L640.64 319.612C651.505 317.501 662.769 319.332 672.402 324.776C682.036 330.219 689.405 338.918 693.184 349.304L682.453 353.153Z" fill="#5388FF"/>
<path d="M664.515 408.833L660.843 398.018C665.236 396.526 669.288 394.174 672.761 391.101C676.234 388.028 679.059 384.295 681.071 380.12C683.083 375.945 684.241 371.412 684.478 366.785C684.716 362.158 684.027 357.53 682.453 353.172L693.218 349.289C695.306 355.076 696.218 361.221 695.902 367.364C695.585 373.507 694.046 379.526 691.374 385.069C688.702 390.612 684.951 395.568 680.339 399.648C675.728 403.728 670.348 406.851 664.515 408.833Z" fill="#A8A8A8"/>
<path d="M724.369 329.352H711.511V342.188H724.369V329.352Z" fill="#ED4121"/>
<path d="M724.369 360.77H711.511V373.606H724.369V360.77Z" fill="#5388FF"/>
<path d="M724.369 392.195H711.511V405.031H724.369V392.195Z" fill="#A8A8A8"/>
<path d="M731.13 336.113H752.798" stroke="#263238" stroke-linecap="round" stroke-linejoin="round"/>
<path d="M731.13 366.512H752.798" stroke="#263238" stroke-linecap="round" stroke-linejoin="round"/>
<path d="M637.723 365.84H659.39" stroke="#263238" stroke-linecap="round" stroke-linejoin="round"/>
<path d="M731.13 398.273H752.798" stroke="#263238" stroke-linecap="round" stroke-linejoin="round"/>
<path d="M747.032 507.379H123.552" stroke="#263238" stroke-width="0.75" stroke-miterlimit="10" stroke-linecap="round"/>
<path d="M505.328 279.219H453.253C450.056 279.219 447.464 281.806 447.464 284.997V308.682C447.464 311.874 450.056 314.461 453.253 314.461H505.328C508.525 314.461 511.116 311.874 511.116 308.682V284.997C511.116 281.806 508.525 279.219 505.328 279.219Z" fill="white" stroke="#263238" stroke-linecap="round" stroke-linejoin="round"/>
<path d="M459.763 293.5V292.732H460.515V288.668H459.763V287.9H462.003C462.75 287.9 463.32 288.089 463.715 288.468C464.115 288.847 464.315 289.417 464.315 290.18V291.228C464.315 291.991 464.115 292.561 463.715 292.94C463.32 293.313 462.75 293.5 462.003 293.5H459.763ZM461.387 292.716H462.011C462.496 292.716 462.856 292.593 463.091 292.348C463.326 292.103 463.443 291.737 463.443 291.252V290.148C463.443 289.657 463.326 289.292 463.091 289.052C462.856 288.812 462.496 288.692 462.011 288.692H461.387V292.716ZM467.163 293.612C466.768 293.612 466.416 293.532 466.107 293.372C465.803 293.207 465.563 292.972 465.387 292.668C465.211 292.364 465.123 292.004 465.123 291.588V291.468C465.123 291.052 465.211 290.695 465.387 290.396C465.563 290.092 465.803 289.857 466.107 289.692C466.416 289.527 466.768 289.444 467.163 289.444C467.558 289.444 467.91 289.527 468.219 289.692C468.528 289.857 468.771 290.092 468.947 290.396C469.123 290.695 469.211 291.052 469.211 291.468V291.588C469.211 292.004 469.123 292.364 468.947 292.668C468.771 292.972 468.528 293.207 468.219 293.372C467.91 293.532 467.558 293.612 467.163 293.612ZM467.163 292.876C467.526 292.876 467.819 292.761 468.043 292.532C468.272 292.297 468.387 291.975 468.387 291.564V291.492C468.387 291.081 468.275 290.761 468.051 290.532C467.827 290.297 467.531 290.18 467.163 290.18C466.806 290.18 466.512 290.297 466.283 290.532C466.059 290.761 465.947 291.081 465.947 291.492V291.564C465.947 291.975 466.059 292.297 466.283 292.532C466.512 292.761 466.806 292.876 467.163 292.876ZM472.069 293.612C471.69 293.612 471.346 293.532 471.037 293.372C470.733 293.212 470.49 292.98 470.309 292.676C470.133 292.372 470.045 292.007 470.045 291.58V291.476C470.045 291.049 470.133 290.687 470.309 290.388C470.49 290.084 470.733 289.852 471.037 289.692C471.346 289.527 471.69 289.444 472.069 289.444C472.448 289.444 472.77 289.513 473.037 289.652C473.304 289.791 473.517 289.975 473.677 290.204C473.842 290.433 473.949 290.687 473.997 290.964L473.197 291.132C473.17 290.956 473.114 290.796 473.029 290.652C472.944 290.508 472.824 290.393 472.669 290.308C472.514 290.223 472.32 290.18 472.085 290.18C471.856 290.18 471.648 290.233 471.461 290.34C471.28 290.441 471.136 290.591 471.029 290.788C470.922 290.98 470.869 291.215 470.869 291.492V291.564C470.869 291.841 470.922 292.079 471.029 292.276C471.136 292.473 471.28 292.623 471.461 292.724C471.648 292.825 471.856 292.876 472.085 292.876C472.432 292.876 472.696 292.788 472.877 292.612C473.058 292.431 473.173 292.201 473.221 291.924L474.021 292.108C473.957 292.38 473.842 292.631 473.677 292.86C473.517 293.089 473.304 293.273 473.037 293.412C472.77 293.545 472.448 293.612 472.069 293.612ZM476.483 293.572C476.185 293.572 475.918 293.505 475.683 293.372C475.449 293.239 475.265 293.049 475.131 292.804C474.998 292.559 474.931 292.265 474.931 291.924V289.556H475.755V291.868C475.755 292.209 475.841 292.463 476.011 292.628C476.182 292.788 476.419 292.868 476.723 292.868C477.059 292.868 477.329 292.756 477.531 292.532C477.739 292.303 477.843 291.975 477.843 291.548V289.556H478.667V293.5H477.859V292.908H477.731C477.657 293.068 477.523 293.22 477.331 293.364C477.139 293.503 476.857 293.572 476.483 293.572ZM479.885 293.5V289.556H480.693V290.02H480.821C480.896 289.881 481.016 289.759 481.181 289.652C481.347 289.545 481.571 289.492 481.853 289.492C482.147 289.492 482.381 289.553 482.557 289.676C482.739 289.793 482.875 289.945 482.965 290.132H483.093C483.184 289.951 483.315 289.799 483.485 289.676C483.661 289.553 483.909 289.492 484.229 289.492C484.485 289.492 484.712 289.545 484.909 289.652C485.107 289.753 485.264 289.908 485.381 290.116C485.499 290.319 485.557 290.572 485.557 290.876V293.5H484.733V290.94C484.733 290.7 484.667 290.516 484.533 290.388C484.405 290.255 484.221 290.188 483.981 290.188C483.725 290.188 483.52 290.271 483.365 290.436C483.211 290.601 483.133 290.839 483.133 291.148V293.5H482.309V290.94C482.309 290.7 482.243 290.516 482.109 290.388C481.981 290.255 481.797 290.188 481.557 290.188C481.301 290.188 481.096 290.271 480.941 290.436C480.787 290.601 480.709 290.839 480.709 291.148V293.5H479.885ZM488.553 293.612C488.153 293.612 487.804 293.529 487.505 293.364C487.206 293.193 486.972 292.956 486.801 292.652C486.636 292.343 486.553 291.985 486.553 291.58V291.484C486.553 291.073 486.636 290.716 486.801 290.412C486.966 290.103 487.196 289.865 487.489 289.7C487.788 289.529 488.132 289.444 488.521 289.444C488.9 289.444 489.23 289.529 489.513 289.7C489.801 289.865 490.025 290.097 490.185 290.396C490.345 290.695 490.425 291.044 490.425 291.444V291.756H487.393C487.404 292.103 487.518 292.38 487.737 292.588C487.961 292.791 488.238 292.892 488.569 292.892C488.878 292.892 489.11 292.823 489.265 292.684C489.425 292.545 489.548 292.385 489.633 292.204L490.313 292.556C490.238 292.705 490.129 292.863 489.985 293.028C489.846 293.193 489.662 293.332 489.433 293.444C489.204 293.556 488.91 293.612 488.553 293.612ZM487.401 291.124H489.585C489.564 290.825 489.457 290.593 489.265 290.428C489.073 290.257 488.822 290.172 488.513 290.172C488.204 290.172 487.95 290.257 487.753 290.428C487.561 290.593 487.444 290.825 487.401 291.124ZM491.417 293.5V289.556H492.225V290.148H492.353C492.427 289.988 492.561 289.839 492.753 289.7C492.945 289.561 493.23 289.492 493.609 289.492C493.907 289.492 494.171 289.559 494.401 289.692C494.635 289.825 494.819 290.015 494.953 290.26C495.086 290.5 495.153 290.791 495.153 291.132V293.5H494.329V291.196C494.329 290.855 494.243 290.604 494.073 290.444C493.902 290.279 493.667 290.196 493.369 290.196C493.027 290.196 492.753 290.308 492.545 290.532C492.342 290.756 492.241 291.081 492.241 291.508V293.5H491.417ZM497.709 293.5C497.469 293.5 497.277 293.428 497.133 293.284C496.995 293.14 496.925 292.948 496.925 292.708V290.252H495.837V289.556H496.925V288.252H497.749V289.556H498.925V290.252H497.749V292.564C497.749 292.724 497.824 292.804 497.973 292.804H498.797V293.5H497.709ZM462.824 303.5L464.424 297.9H465.944L467.536 303.5H466.648L466.28 302.18H464.088L463.72 303.5H462.824ZM464.304 301.38H466.064L465.248 298.436H465.12L464.304 301.38ZM468.319 303.5V299.556H469.127V300.148H469.255C469.33 299.988 469.463 299.839 469.655 299.7C469.847 299.561 470.132 299.492 470.511 299.492C470.81 299.492 471.074 299.559 471.303 299.692C471.538 299.825 471.722 300.015 471.855 300.26C471.988 300.5 472.055 300.791 472.055 301.132V303.5H471.231V301.196C471.231 300.855 471.146 300.604 470.975 300.444C470.804 300.279 470.57 300.196 470.271 300.196C469.93 300.196 469.655 300.308 469.447 300.532C469.244 300.756 469.143 301.081 469.143 301.508V303.5H468.319ZM474.465 303.612C474.182 303.612 473.929 303.564 473.705 303.468C473.486 303.372 473.31 303.231 473.177 303.044C473.049 302.857 472.985 302.631 472.985 302.364C472.985 302.092 473.049 301.868 473.177 301.692C473.31 301.511 473.489 301.375 473.713 301.284C473.942 301.193 474.201 301.148 474.489 301.148H475.689V300.892C475.689 300.663 475.62 300.479 475.481 300.34C475.342 300.201 475.129 300.132 474.841 300.132C474.558 300.132 474.342 300.199 474.193 300.332C474.044 300.465 473.945 300.639 473.897 300.852L473.129 300.604C473.193 300.391 473.294 300.199 473.433 300.028C473.577 299.852 473.766 299.711 474.001 299.604C474.236 299.497 474.518 299.444 474.849 299.444C475.361 299.444 475.764 299.575 476.057 299.836C476.35 300.097 476.497 300.468 476.497 300.948V302.572C476.497 302.732 476.572 302.812 476.721 302.812H477.057V303.5H476.441C476.254 303.5 476.102 303.452 475.985 303.356C475.868 303.26 475.809 303.129 475.809 302.964V302.94H475.689C475.646 303.02 475.582 303.113 475.497 303.22C475.412 303.327 475.286 303.42 475.121 303.5C474.956 303.575 474.737 303.612 474.465 303.612ZM474.585 302.932C474.916 302.932 475.182 302.839 475.385 302.652C475.588 302.46 475.689 302.199 475.689 301.868V301.788H474.537C474.318 301.788 474.142 301.836 474.009 301.932C473.876 302.023 473.809 302.159 473.809 302.34C473.809 302.521 473.878 302.665 474.017 302.772C474.156 302.879 474.345 302.932 474.585 302.932ZM477.858 303.5V297.9H478.682V303.5H477.858ZM480.361 305.1V304.38H482.561C482.71 304.38 482.785 304.3 482.785 304.14V302.924H482.657C482.609 303.031 482.534 303.135 482.433 303.236C482.337 303.332 482.206 303.412 482.041 303.476C481.876 303.54 481.668 303.572 481.417 303.572C481.118 303.572 480.852 303.505 480.617 303.372C480.382 303.239 480.198 303.049 480.065 302.804C479.932 302.559 479.865 302.268 479.865 301.932V299.556H480.689V301.868C480.689 302.209 480.774 302.463 480.945 302.628C481.116 302.788 481.353 302.868 481.657 302.868C481.993 302.868 482.262 302.756 482.465 302.532C482.673 302.308 482.777 301.983 482.777 301.556V299.556H483.601V304.308C483.601 304.548 483.529 304.74 483.385 304.884C483.246 305.028 483.054 305.1 482.809 305.1H480.361ZM484.659 303.5V302.492L486.987 300.364V300.252H484.739V299.556H487.883V300.572L485.547 302.7V302.804H487.947V303.5H484.659ZM490.666 303.612C490.266 303.612 489.917 303.529 489.618 303.364C489.319 303.193 489.085 302.956 488.914 302.652C488.749 302.343 488.666 301.985 488.666 301.58V301.484C488.666 301.073 488.749 300.716 488.914 300.412C489.079 300.103 489.309 299.865 489.602 299.7C489.901 299.529 490.245 299.444 490.634 299.444C491.013 299.444 491.343 299.529 491.626 299.7C491.914 299.865 492.138 300.097 492.298 300.396C492.458 300.695 492.538 301.044 492.538 301.444V301.756H489.506C489.517 302.103 489.631 302.38 489.85 302.588C490.074 302.791 490.351 302.892 490.682 302.892C490.991 302.892 491.223 302.823 491.378 302.684C491.538 302.545 491.661 302.385 491.746 302.204L492.426 302.556C492.351 302.705 492.242 302.863 492.098 303.028C491.959 303.193 491.775 303.332 491.546 303.444C491.317 303.556 491.023 303.612 490.666 303.612ZM489.514 301.124H491.698C491.677 300.825 491.57 300.593 491.378 300.428C491.186 300.257 490.935 300.172 490.626 300.172C490.317 300.172 490.063 300.257 489.866 300.428C489.674 300.593 489.557 300.825 489.514 301.124ZM493.53 303.5V299.556H494.338V300.02H494.466C494.53 299.855 494.631 299.735 494.77 299.66C494.914 299.58 495.09 299.54 495.298 299.54H495.77V300.284H495.266C494.999 300.284 494.781 300.359 494.61 300.508C494.439 300.652 494.354 300.876 494.354 301.18V303.5H493.53Z" fill="#263238"/>
<defs>
<linearGradient id="paint0_linear_5375_41264" x1="31.3779" y1="64.9297" x2="159.968" y2="646.739" gradientUnits="userSpaceOnUse">
<stop stop-color="#8C52FF"/>
<stop offset="1" stop-color="#FF914D"/>
</linearGradient>
</defs>
</svg>
