<svg width="51" height="14" viewBox="0 0 51 14" fill="none" xmlns="http://www.w3.org/2000/svg">
<g id="Vector">
<path d="M48.0665 0.430709L46.3592 11.2337C46.3528 11.2734 46.3551 11.314 46.366 11.3527C46.3768 11.3913 46.3959 11.4272 46.4219 11.4576C46.448 11.4881 46.4803 11.5124 46.5167 11.529C46.553 11.5455 46.5925 11.5539 46.6324 11.5534H48.6529C48.7241 11.554 48.7933 11.5289 48.8478 11.4826C48.9023 11.4363 48.9385 11.3719 48.9499 11.301L50.6571 0.497995C50.6635 0.458326 50.6612 0.417728 50.6504 0.379048C50.6396 0.340368 50.6205 0.304541 50.5944 0.27408C50.5684 0.243619 50.5361 0.21926 50.4997 0.202711C50.4633 0.186162 50.4238 0.177824 50.3839 0.178281H48.3635C48.292 0.176856 48.2224 0.201687 48.1678 0.248137C48.1131 0.294588 48.0771 0.359483 48.0665 0.430709ZM45.909 3.58328H43.992C43.9208 3.58258 43.8517 3.60762 43.7973 3.65386C43.7429 3.7001 43.7067 3.76448 43.6954 3.83528L43.632 4.233C43.632 4.233 42.1431 2.60699 39.5069 3.70585C37.9946 4.33499 37.2686 5.63485 36.9597 6.58714C36.9597 6.58714 35.9792 9.48128 38.1967 11.0743C38.1967 11.0743 40.2529 12.6064 42.5682 10.98L42.5282 11.2337C42.5189 11.2933 42.5293 11.3543 42.5577 11.4074C42.5862 11.4605 42.6311 11.5028 42.6856 11.5277C42.7218 11.5449 42.7614 11.5534 42.8014 11.5534H44.7197C44.7912 11.5548 44.8607 11.53 44.9154 11.4836C44.9701 11.4371 45.0061 11.3722 45.0167 11.301L46.1835 3.903C46.19 3.86337 46.1877 3.82278 46.1768 3.78416C46.1658 3.74554 46.1464 3.70986 46.1201 3.67971C46.0941 3.64898 46.0617 3.62438 46.0253 3.60764C45.9888 3.59091 45.9491 3.58287 45.909 3.58328ZM43.0882 7.67185C43.0134 8.18874 42.7539 8.66038 42.3584 8.99828C41.9612 9.33741 41.4557 9.52052 40.935 9.51385C40.7308 9.51624 40.5275 9.48645 40.3324 9.42557C39.5048 9.15985 39.0324 8.36528 39.1682 7.50385C39.2436 6.98722 39.5033 6.51596 39.8988 6.17828C40.2957 5.83896 40.8008 5.65528 41.3214 5.66099C41.5256 5.65887 41.7289 5.68894 41.9239 5.75014C42.7567 6.01414 43.2269 6.81 43.0903 7.67228L43.0882 7.67185ZM32.8516 7.87628C33.8912 7.87628 34.8967 7.50428 35.6865 6.82799C36.4746 6.15399 36.9964 5.21753 37.1571 4.18885C37.4929 2.049 35.8209 0.181281 33.4507 0.181281H29.6324C29.5612 0.180592 29.492 0.205697 29.4376 0.252025C29.3832 0.298354 29.347 0.362826 29.3358 0.433709L27.6282 11.2367C27.6189 11.2963 27.6293 11.3573 27.6577 11.4104C27.6862 11.4635 27.7311 11.5058 27.7856 11.5307C27.8222 11.5479 27.8614 11.5564 27.9014 11.5564H29.9231C29.9943 11.5571 30.0635 11.532 30.1179 11.4857C30.1723 11.4394 30.2085 11.3749 30.2197 11.304L30.7209 8.13171C30.7315 8.06041 30.7674 7.99541 30.8221 7.94887C30.8768 7.90233 30.9464 7.87744 31.018 7.87885L32.8516 7.87628ZM34.5426 4.09157C34.418 4.88271 33.806 5.46514 32.6354 5.46514H31.1388L31.5933 2.58814H33.0631C34.2733 2.59028 34.6673 3.30385 34.5426 4.09371V4.09157Z" fill="#0070E0"/>
<path d="M25.3247 3.76671L23.0124 7.66885L21.8388 3.79542C21.8204 3.73361 21.7826 3.67949 21.731 3.64122C21.6794 3.60295 21.6169 3.58262 21.5528 3.58328H19.466C19.412 3.58255 19.3596 3.60149 19.3184 3.63661C19.2772 3.67174 19.25 3.72068 19.2418 3.77442C19.2367 3.81005 19.2403 3.8464 19.2524 3.88028L21.3554 10.4049L19.4532 13.4794C19.4371 13.5047 19.4262 13.5331 19.4214 13.5628C19.4165 13.5925 19.4176 13.6228 19.4248 13.652C19.432 13.6812 19.445 13.7087 19.4631 13.7326C19.4811 13.7566 19.5038 13.7766 19.5298 13.7914C19.5646 13.8116 19.6042 13.8219 19.6443 13.8214H21.892C21.9561 13.8216 22.0192 13.8052 22.0752 13.7737C22.1312 13.7421 22.1781 13.6966 22.2115 13.6414L28.0856 3.927C28.1069 3.89317 28.1186 3.85412 28.1194 3.81408C28.1202 3.77404 28.1101 3.73454 28.0903 3.69985C28.0704 3.66505 28.0417 3.63623 28.007 3.61641C27.9724 3.59659 27.9331 3.58648 27.8932 3.58714H25.6464C25.582 3.58654 25.5185 3.60277 25.4621 3.63424C25.4057 3.66571 25.3584 3.71135 25.3247 3.76671ZM18.283 3.58328H16.3643C16.2929 3.58259 16.2237 3.60774 16.1692 3.65415C16.1146 3.70056 16.0785 3.76514 16.0673 3.83614L16.0052 4.23342C16.0052 4.23342 14.5149 2.60742 11.8788 3.70628C10.3669 4.33542 9.64047 5.63528 9.33281 6.58757C9.33281 6.58757 8.35154 9.48171 10.5686 11.0747C10.5686 11.0747 12.6252 12.6069 14.9405 10.9804L14.9005 11.2341C14.8911 11.2938 14.9014 11.3548 14.9298 11.408C14.9583 11.4611 15.0033 11.5033 15.0579 11.5281C15.0941 11.5453 15.1337 11.5539 15.1737 11.5539H17.092C17.1632 11.5544 17.2322 11.5292 17.2866 11.4829C17.341 11.4366 17.3772 11.3722 17.3886 11.3014L18.5558 3.90342C18.5653 3.84374 18.555 3.78257 18.5266 3.72935C18.4981 3.67614 18.4531 3.63384 18.3983 3.60899C18.362 3.59216 18.323 3.5834 18.283 3.58328ZM15.4618 7.67271C15.3862 8.18896 15.1267 8.65987 14.7315 8.99742C14.3346 9.33652 13.8295 9.52004 13.309 9.51428C13.1051 9.51656 12.9021 9.48678 12.7073 9.42599C11.88 9.16028 11.4081 8.36571 11.5439 7.50385C11.6195 6.98609 11.8802 6.51395 12.2771 6.17614C12.6755 5.83684 13.1822 5.65403 13.7039 5.66142C13.9081 5.65928 14.112 5.68928 14.3069 5.75057C15.1311 6.01457 15.6005 6.80999 15.4643 7.67271H15.4618ZM5.22558 7.87671C6.2634 7.87617 7.26724 7.50417 8.05792 6.82714C8.84534 6.15315 9.36656 5.21702 9.52686 4.18885C9.86303 2.04942 8.19069 0.181709 5.82133 0.181709H2.0026C1.93135 0.18099 1.8622 0.206019 1.80771 0.252255C1.75321 0.298491 1.71698 0.362869 1.70558 0.433709L0.00345283 11.2337C-0.00605808 11.2934 0.00420761 11.3546 0.0326653 11.4078C0.061123 11.461 0.106188 11.5033 0.160899 11.5281C0.197069 11.5449 0.236644 11.5539 0.276644 11.5539H2.29707C2.36845 11.5545 2.43769 11.5294 2.49221 11.483C2.54672 11.4366 2.58288 11.372 2.59409 11.301L3.09452 8.12871C3.10515 8.05748 3.14115 7.99259 3.19581 7.94614C3.25046 7.89969 3.32004 7.87486 3.39154 7.87628L5.22558 7.87671ZM6.91664 4.09157C6.79196 4.88271 6.18047 5.46514 5.00984 5.46514H3.51324L3.96686 2.58814H5.43664C6.64728 2.59028 7.0409 3.30428 6.91664 4.09371V4.09157Z" fill="#003087"/>
</g>
</svg>
