<svg width="21" height="20" viewBox="0 0 21 20" fill="none" xmlns="http://www.w3.org/2000/svg">
<g id="Frame" clip-path="url(#clip0_5375_40452)">
<g id="Group">
<path id="Vector" d="M14.3487 0H14.491C14.6052 1.41044 14.0668 2.46432 13.4125 3.22751C12.7705 3.98542 11.8914 4.7205 10.4696 4.60897C10.3747 3.21872 10.9139 2.24301 11.5673 1.48158C12.1733 0.771967 13.2843 0.140517 14.3487 0ZM18.6529 14.6805V14.7201C18.2533 15.9303 17.6834 16.9675 16.9878 17.93C16.3528 18.8038 15.5747 19.9798 14.1854 19.9798C12.9848 19.9798 12.1874 19.2078 10.957 19.1868C9.65543 19.1657 8.93967 19.8323 7.74967 20H7.34392C6.47008 19.8735 5.76486 19.1815 5.25109 18.5579C3.73614 16.7154 2.56546 14.3354 2.34766 11.2897V10.3948C2.43987 8.21499 3.49902 6.44272 4.90683 5.58381C5.64981 5.12712 6.6712 4.73807 7.80851 4.91196C8.29593 4.98748 8.79389 5.15435 9.23037 5.31946C9.64402 5.47842 10.1613 5.76033 10.6513 5.7454C10.9833 5.73574 11.3135 5.56273 11.6481 5.44065C12.6283 5.08673 13.589 4.68098 14.8555 4.87156C16.3774 5.10166 17.4577 5.77789 18.1251 6.82124C16.8376 7.64063 15.8197 8.87542 15.9936 10.9841C16.1482 12.8995 17.2618 14.0201 18.6529 14.6805Z" fill="black"/>
</g>
</g>
<defs>
<clipPath id="clip0_5375_40452">
<rect width="20" height="20" fill="white" transform="translate(0.5)"/>
</clipPath>
</defs>
</svg>
