<svg width="20" height="20" viewBox="0 0 20 20" fill="none" xmlns="http://www.w3.org/2000/svg">
<g id="Icons">
<mask id="mask0_4790_10696" style="mask-type:alpha" maskUnits="userSpaceOnUse" x="0" y="0" width="20" height="20">
<rect id="Bounding box" width="20" height="20" fill="#D9D9D9"/>
</mask>
<g mask="url(#mask0_4790_10696)">
<path id="visibility" d="M10.0023 13.1473C10.8772 13.1473 11.6202 12.8412 12.2313 12.2288C12.8424 11.6164 13.148 10.8728 13.148 9.99796C13.148 9.1231 12.8418 8.38011 12.2294 7.769C11.6171 7.15789 10.8735 6.85234 9.99859 6.85234C9.12373 6.85234 8.38075 7.15852 7.76964 7.77088C7.15852 8.38324 6.85297 9.12685 6.85297 10.0017C6.85297 10.8766 7.15915 11.6196 7.77151 12.2307C8.38387 12.8418 9.12748 13.1473 10.0023 13.1473ZM10.0005 11.9998C9.44491 11.9998 8.97269 11.8054 8.5838 11.4165C8.19491 11.0276 8.00047 10.5554 8.00047 9.99984C8.00047 9.44428 8.19491 8.97206 8.5838 8.58317C8.97269 8.19428 9.44491 7.99984 10.0005 7.99984C10.556 7.99984 11.0282 8.19428 11.4171 8.58317C11.806 8.97206 12.0005 9.44428 12.0005 9.99984C12.0005 10.5554 11.806 11.0276 11.4171 11.4165C11.0282 11.8054 10.556 11.9998 10.0005 11.9998ZM10.0015 15.5832C8.13248 15.5832 6.4295 15.0754 4.89255 14.0598C3.35561 13.0444 2.20783 11.6911 1.44922 9.99984C2.20783 8.30859 3.35519 6.95525 4.8913 5.93984C6.42755 4.92428 8.13026 4.4165 9.99943 4.4165C11.8685 4.4165 13.5714 4.92428 15.1084 5.93984C16.6453 6.95525 17.7931 8.30859 18.5517 9.99984C17.7931 11.6911 16.6457 13.0444 15.1096 14.0598C13.5734 15.0754 11.8707 15.5832 10.0015 15.5832ZM10.0005 14.4998C11.556 14.4998 12.9935 14.0971 14.313 13.2915C15.6324 12.4859 16.6463 11.3887 17.3546 9.99984C16.6463 8.61095 15.6324 7.51373 14.313 6.70817C12.9935 5.90262 11.556 5.49984 10.0005 5.49984C8.44491 5.49984 7.00741 5.90262 5.68797 6.70817C4.36852 7.51373 3.35464 8.61095 2.6463 9.99984C3.35464 11.3887 4.36852 12.4859 5.68797 13.2915C7.00741 14.0971 8.44491 14.4998 10.0005 14.4998Z" fill="#A5A5AB"/>
</g>
</g>
</svg>
