<svg width="20" height="21" viewBox="0 0 20 21" fill="none" xmlns="http://www.w3.org/2000/svg">
<g id="Frame" clip-path="url(#clip0_5375_40437)">
<path id="Vector" d="M19.9905 10.925C19.9905 10.0864 19.9224 9.47445 19.7752 8.83984H10.1992V12.6248H15.8201C15.7068 13.5655 15.0948 14.982 13.7349 15.9339L13.7159 16.0606L16.7436 18.4062L16.9534 18.4271C18.8798 16.6479 19.9905 14.0301 19.9905 10.925Z" fill="#4285F4"/>
<path id="Vector_2" d="M10.1987 20.8969C12.9525 20.8969 15.2643 19.9902 16.9529 18.4264L13.7344 15.9332C12.8732 16.5338 11.7172 16.9531 10.1987 16.9531C7.50162 16.9531 5.21248 15.174 4.39646 12.7148L4.27686 12.725L1.12857 15.1615L1.0874 15.2759C2.76459 18.6077 6.20967 20.8969 10.1987 20.8969Z" fill="#34A853"/>
<path id="Vector_3" d="M4.39695 12.7155C4.18164 12.0809 4.05703 11.4009 4.05703 10.6983C4.05703 9.99563 4.18164 9.3157 4.38562 8.68109L4.37992 8.54594L1.19219 6.07031L1.08789 6.11992C0.396641 7.5025 0 9.05508 0 10.6983C0 12.3415 0.396641 13.894 1.08789 15.2766L4.39695 12.7155Z" fill="#FBBC05"/>
<path id="Vector_4" d="M10.1987 4.44367C12.1139 4.44367 13.4058 5.27094 14.1424 5.96227L17.0208 3.1518C15.253 1.50859 12.9525 0.5 10.1987 0.5C6.20967 0.5 2.76459 2.78914 1.0874 6.12086L4.38514 8.68203C5.21248 6.22289 7.50162 4.44367 10.1987 4.44367Z" fill="#EB4335"/>
</g>
<defs>
<clipPath id="clip0_5375_40437">
<rect width="20" height="20.4688" fill="white" transform="translate(0 0.5)"/>
</clipPath>
</defs>
</svg>
