<svg width="154" height="153" viewBox="0 0 154 153" fill="none" xmlns="http://www.w3.org/2000/svg">
<g id="Frame" clip-path="url(#clip0_5375_38892)">
<g id="Group">
<path id="Vector" d="M150.474 45.8948C143.793 28.895 123.213 18.7005 105.782 25.4468C85.8858 33.1476 92.4827 64.7944 74.4105 71.1938C64.6481 74.6507 50.2168 61.7377 40.3533 59.7574C22.1783 56.1087 5.72483 68.9329 1.67332 86.692C-2.46007 104.81 4.16943 129.009 24.0756 133.927C47.7876 139.784 60.139 118.468 80.0308 112.348C100.444 106.067 123.141 120.901 140.04 102.852C152.525 89.5186 157.089 62.7283 150.474 45.8948Z" fill="url(#paint0_linear_5375_38892)"/>
<path id="Vector_2" d="M129.65 116.464H24.3501C21.0492 116.464 18.3735 113.789 18.3735 110.488V44.3242C18.3735 41.0234 21.0492 38.3477 24.3501 38.3477H129.65C132.951 38.3477 135.626 41.0234 135.626 44.3242V110.488C135.626 113.789 132.951 116.464 129.65 116.464Z" fill="#9FB0FE"/>
<g id="Group_2">
<path id="Vector_3" d="M135.627 44.3242V69.5752C131.877 72.8294 126.982 74.8017 121.624 74.8017C109.82 74.8017 100.252 65.2332 100.252 53.4325C100.252 47.5456 102.634 42.2115 106.486 38.3477H129.651C132.95 38.3477 135.627 41.0222 135.627 44.3242Z" fill="#8399FE"/>
<path id="Vector_4" d="M135.627 44.3242V51.8577L82.4627 92.6985C80.9028 93.8968 78.9634 94.5542 77.0001 94.5542C75.0368 94.5542 73.0974 93.8968 71.5376 92.6985L18.373 51.8577V44.3242C18.373 41.0222 21.0505 38.3477 24.3496 38.3477H129.651C132.95 38.3477 135.627 41.0222 135.627 44.3242Z" fill="#8399FE"/>
<path id="Vector_5" d="M78.8205 66.849L135.627 110.485C135.627 113.786 132.951 116.462 129.65 116.462H24.3501C21.0492 116.462 18.3735 113.786 18.3735 110.485L75.1796 66.849C75.7017 66.4479 76.3416 66.2305 77 66.2305C77.6584 66.2305 78.2984 66.4479 78.8205 66.849Z" fill="#8399FE"/>
</g>
<path id="Vector_6" d="M97.4669 81.1719L82.4628 92.6977C80.9029 93.896 78.9635 94.5534 77.0002 94.5534C75.0369 94.5534 73.0975 93.896 71.5376 92.6977L56.5334 81.1719L75.1803 66.8491C75.7022 66.4479 76.342 66.2305 77.0002 66.2305C77.6584 66.2305 78.2982 66.4479 78.82 66.8491L97.4669 81.1719Z" fill="#6583FE"/>
<path id="Vector_7" d="M75.1796 87.9609L18.3735 44.3242C18.3735 41.0234 21.0492 38.3477 24.3501 38.3477H129.65C132.951 38.3477 135.626 41.0234 135.626 44.3242L78.8205 87.9609C78.2983 88.3619 77.6584 88.5793 77 88.5793C76.3417 88.5793 75.7017 88.3619 75.1796 87.9609Z" fill="#B7C5FF"/>
<path id="Vector_8" d="M111.35 108.511H101.747C101.351 108.511 100.971 108.353 100.691 108.073C100.41 107.793 100.253 107.413 100.253 107.017V100.396C100.253 100 100.41 99.6202 100.691 99.34C100.971 99.0598 101.351 98.9023 101.747 98.9023H111.35C111.746 98.9023 112.126 99.0598 112.406 99.34C112.686 99.6202 112.844 100 112.844 100.396V107.017C112.844 107.413 112.686 107.793 112.406 108.073C112.126 108.353 111.746 108.511 111.35 108.511Z" fill="#02FFB3"/>
<path id="Vector_9" d="M93.696 102.418H85.3787C84.9824 102.418 84.6024 102.261 84.3222 101.98C84.0419 101.7 83.8845 101.32 83.8845 100.924C83.8845 100.528 84.0419 100.148 84.3222 99.8673C84.6024 99.5871 84.9824 99.4297 85.3787 99.4297H93.696C94.0922 99.4297 94.4723 99.5871 94.7525 99.8673C95.0327 100.148 95.1901 100.528 95.1901 100.924C95.1901 101.32 95.0327 101.7 94.7525 101.98C94.4723 102.261 94.0922 102.418 93.696 102.418ZM93.696 108.509H64.4607C64.0644 108.509 63.6844 108.351 63.4042 108.071C63.124 107.791 62.9666 107.411 62.9666 107.015C62.9666 106.618 63.124 106.238 63.4042 105.958C63.6844 105.678 64.0644 105.52 64.4607 105.52H93.696C94.0922 105.52 94.4723 105.678 94.7525 105.958C95.0327 106.238 95.1901 106.618 95.1901 107.015C95.1901 107.411 95.0327 107.791 94.7525 108.071C94.4723 108.351 94.0922 108.509 93.696 108.509Z" fill="white"/>
<path id="Vector_10" d="M129.65 116.464H24.3501C21.0492 116.464 18.3735 113.789 18.3735 110.488V44.3242C18.3735 41.0234 21.0492 38.3477 24.3501 38.3477H129.65C132.951 38.3477 135.626 41.0234 135.626 44.3242V110.488C135.626 113.789 132.951 116.464 129.65 116.464Z" fill="url(#paint1_linear_5375_38892)"/>
<path id="Vector_11" d="M142.694 49.3155C144.581 37.6643 136.666 26.6893 125.014 24.8022C113.363 22.9152 102.388 30.8305 100.501 42.4817C98.614 54.133 106.529 65.1079 118.181 66.995C129.832 68.8821 140.807 60.9667 142.694 49.3155Z" fill="url(#paint2_linear_5375_38892)"/>
<path id="Vector_12" d="M112.296 38.6066L115.346 45.8947L112.296 53.1828C111.778 54.4206 113.027 55.6607 114.261 55.1336L132.675 47.2687C133.884 46.752 133.884 45.0373 132.675 44.5207L114.261 36.6558C113.027 36.1287 111.778 37.3688 112.296 38.6066Z" fill="white"/>
<path id="Vector_13" d="M122.303 47.2928L113.121 51.2164L115.345 45.8973L113.119 40.5781L122.303 44.5017C123.448 44.9918 123.448 46.8057 122.303 47.2928Z" fill="#FFDBED"/>
<path id="Vector_14" d="M99.3608 24.4039C98.7918 24.405 98.2283 24.2937 97.7024 24.0762C97.1766 23.8588 96.699 23.5396 96.297 23.1369C94.6074 21.4473 94.6074 18.6984 96.297 17.0091C97.9856 15.3202 100.735 15.3196 102.424 17.0091C104.114 18.6987 104.114 21.4476 102.424 23.1369C102.022 23.5395 101.545 23.8587 101.019 24.0762C100.493 24.2936 99.9298 24.405 99.3608 24.4039ZM99.3608 18.7289C99.1842 18.7286 99.0093 18.7631 98.846 18.8306C98.6828 18.8981 98.5345 18.9972 98.4097 19.1222C98.1579 19.3746 98.0165 19.7165 98.0165 20.073C98.0165 20.4295 98.1579 20.7715 98.4097 21.0239C98.662 21.2757 99.004 21.4171 99.3605 21.4171C99.7171 21.4171 100.059 21.2757 100.311 21.0239C100.563 20.7715 100.705 20.4295 100.705 20.073C100.705 19.7165 100.563 19.3746 100.311 19.1222C100.187 18.9973 100.038 18.8982 99.8753 18.8307C99.7122 18.7633 99.5374 18.7286 99.3608 18.7289ZM65.8054 137.255C65.2365 137.256 64.6729 137.144 64.1471 136.927C63.6213 136.709 63.1436 136.39 62.7415 135.988C61.052 134.298 61.052 131.549 62.7415 129.86C64.4305 128.171 67.1803 128.171 68.8693 129.86C70.5589 131.549 70.5589 134.298 68.8693 135.988C68.4672 136.39 67.9896 136.709 67.4638 136.927C66.938 137.144 66.3744 137.256 65.8054 137.255ZM65.8054 131.58C65.6288 131.579 65.4538 131.614 65.2906 131.681C65.1274 131.749 64.9791 131.848 64.8543 131.973C64.6025 132.225 64.4611 132.567 64.4611 132.924C64.4611 133.28 64.6025 133.622 64.8543 133.875C65.1067 134.126 65.4487 134.268 65.8053 134.268C66.1619 134.268 66.5039 134.126 66.7563 133.875C67.0081 133.622 67.1494 133.28 67.1494 132.924C67.1494 132.567 67.0081 132.225 66.7563 131.973C66.6315 131.848 66.4833 131.749 66.3201 131.681C66.1569 131.614 65.982 131.579 65.8054 131.58Z" fill="#4DC3FF"/>
<path id="Vector_15" d="M88.5887 28.2526C88.3924 28.2529 88.1981 28.2144 88.0168 28.1393C87.8355 28.0642 87.6709 27.9541 87.5323 27.8151L85.7498 26.0329L83.9673 27.8151C83.6859 28.0894 83.3077 28.2419 82.9148 28.2393C82.5218 28.2368 82.1456 28.0796 81.8677 27.8017C81.5899 27.5238 81.4327 27.1476 81.4302 26.7546C81.4277 26.3616 81.5802 25.9835 81.8546 25.7021L84.6934 22.8632C84.9736 22.5831 85.3536 22.4258 85.7498 22.4258C86.146 22.4258 86.526 22.5831 86.8062 22.8632L89.645 25.7021C89.8539 25.9111 89.9962 26.1773 90.0538 26.4671C90.1114 26.7569 90.0818 27.0572 89.9688 27.3302C89.8557 27.6032 89.6642 27.8365 89.4186 28.0007C89.1729 28.1649 88.8841 28.2525 88.5887 28.2526ZM131.909 131.58C131.712 131.58 131.518 131.542 131.337 131.467C131.155 131.392 130.991 131.281 130.852 131.142L129.07 129.36L127.287 131.142C127.006 131.417 126.628 131.569 126.235 131.567C125.842 131.564 125.466 131.407 125.188 131.129C124.91 130.851 124.753 130.475 124.75 130.082C124.748 129.689 124.9 129.311 125.174 129.029L128.013 126.191C128.294 125.91 128.674 125.753 129.07 125.753C129.466 125.753 129.846 125.91 130.126 126.191L132.965 129.029C133.174 129.238 133.316 129.505 133.374 129.794C133.431 130.084 133.402 130.385 133.289 130.658C133.176 130.93 132.984 131.164 132.739 131.328C132.493 131.492 132.204 131.58 131.909 131.58Z" fill="#FF7EB8"/>
<path id="Vector_16" d="M53.9556 132.999C53.7594 132.999 53.565 132.96 53.3838 132.885C53.2025 132.81 53.0378 132.7 52.8992 132.561L51.1167 130.779L49.3342 132.561C49.0528 132.836 48.6747 132.988 48.2817 132.985C47.8887 132.983 47.5125 132.826 47.2347 132.548C46.9568 132.27 46.7996 131.894 46.7971 131.501C46.7947 131.108 46.9471 130.73 47.2215 130.448L50.0604 127.609C50.3406 127.329 50.7205 127.172 51.1167 127.172C51.5129 127.172 51.8929 127.329 52.1731 127.609L55.012 130.448C55.2209 130.657 55.3631 130.923 55.4207 131.213C55.4784 131.503 55.4488 131.803 55.3357 132.076C55.2226 132.349 55.0312 132.583 54.7855 132.747C54.5399 132.911 54.2511 132.999 53.9556 132.999Z" fill="#6583FE"/>
</g>
</g>
<defs>
<linearGradient id="paint0_linear_5375_38892" x1="129.694" y1="150.204" x2="59.7679" y2="57.5679" gradientUnits="userSpaceOnUse">
<stop stop-color="#C6D1FF"/>
<stop offset="0.583" stop-color="#E6D5F4"/>
<stop offset="0.997" stop-color="#FFD9EC"/>
</linearGradient>
<linearGradient id="paint1_linear_5375_38892" x1="77" y1="38.3477" x2="77" y2="116.464" gradientUnits="userSpaceOnUse">
<stop offset="0.003" stop-color="#FF7EB8" stop-opacity="0"/>
<stop offset="1" stop-color="#FF7EB8" stop-opacity="0.6"/>
</linearGradient>
<linearGradient id="paint2_linear_5375_38892" x1="97.0842" y1="63.5781" x2="150.772" y2="51.9689" gradientUnits="userSpaceOnUse">
<stop stop-color="#8C52FF"/>
<stop offset="1" stop-color="#FF914D"/>
</linearGradient>
<clipPath id="clip0_5375_38892">
<rect width="153" height="153" fill="white" transform="translate(0.5)"/>
</clipPath>
</defs>
</svg>
